{"glyphs":{"0":{"x_min":0,"x_max":875,"ha":1000,"o":"m 625 125 l 250 125 l 250 250 l 125 250 l 125 375 l 0 375 l 0 750 l 125 750 l 125 875 l 250 875 l 250 1000 l 625 1000 l 625 875 l 750 875 l 750 750 l 875 750 l 875 375 l 750 375 l 750 250 l 625 250 l 625 125 m 375 375 l 375 250 l 625 250 l 625 750 l 500 750 l 500 875 l 250 875 l 250 375 l 375 375"},"1":{"x_min":125,"x_max":875,"ha":1000,"o":"m 875 125 l 125 125 l 125 250 l 375 250 l 375 750 l 250 750 l 250 875 l 375 875 l 375 1000 l 625 1000 l 625 250 l 875 250 l 875 125"},"2":{"x_min":0,"x_max":875,"ha":1000,"o":"m 875 125 l 0 125 l 0 375 l 125 375 l 125 500 l 250 500 l 250 625 l 500 625 l 500 750 l 625 750 l 625 875 l 250 875 l 250 750 l 0 750 l 0 875 l 125 875 l 125 1000 l 750 1000 l 750 875 l 875 875 l 875 625 l 750 625 l 750 500 l 625 500 l 625 375 l 375 375 l 375 250 l 875 250 l 875 125"},"3":{"x_min":0,"x_max":875,"ha":1000,"o":"m 750 125 l 125 125 l 125 250 l 0 250 l 0 375 l 250 375 l 250 250 l 625 250 l 625 500 l 250 500 l 250 625 l 375 625 l 375 750 l 500 750 l 500 875 l 125 875 l 125 1000 l 875 1000 l 875 875 l 750 875 l 750 750 l 625 750 l 625 625 l 750 625 l 750 500 l 875 500 l 875 250 l 750 250 l 750 125"},"4":{"x_min":0,"x_max":875,"ha":1000,"o":"m 750 125 l 500 125 l 500 375 l 0 375 l 0 625 l 125 625 l 125 750 l 250 750 l 250 875 l 375 875 l 375 1000 l 750 1000 l 750 500 l 875 500 l 875 375 l 750 375 l 750 125 m 250 625 l 250 500 l 500 500 l 500 750 l 375 750 l 375 625 l 250 625"},"5":{"x_min":0,"x_max":875,"ha":1000,"o":"m 750 125 l 125 125 l 125 250 l 0 250 l 0 375 l 250 375 l 250 250 l 625 250 l 625 625 l 0 625 l 0 1000 l 750 1000 l 750 875 l 250 875 l 250 750 l 750 750 l 750 625 l 875 625 l 875 250 l 750 250 l 750 125"},"6":{"x_min":0,"x_max":875,"ha":1000,"o":"m 750 125 l 125 125 l 125 250 l 0 250 l 0 750 l 125 750 l 125 875 l 250 875 l 250 1000 l 750 1000 l 750 875 l 375 875 l 375 750 l 250 750 l 250 625 l 750 625 l 750 500 l 875 500 l 875 250 l 750 250 l 750 125 m 250 500 l 250 250 l 625 250 l 625 500 l 250 500"},"7":{"x_min":0,"x_max":875,"ha":1000,"o":"m 500 125 l 250 125 l 250 500 l 375 500 l 375 625 l 500 625 l 500 750 l 625 750 l 625 875 l 250 875 l 250 750 l 0 750 l 0 1000 l 875 1000 l 875 750 l 750 750 l 750 625 l 625 625 l 625 500 l 500 500 l 500 125"},"8":{"x_min":0,"x_max":875,"ha":1000,"o":"m 750 125 l 125 125 l 125 250 l 0 250 l 0 500 l 125 500 l 125 625 l 0 625 l 0 875 l 125 875 l 125 1000 l 625 1000 l 625 875 l 750 875 l 750 625 l 625 625 l 625 500 l 875 500 l 875 250 l 750 250 l 750 125 m 375 750 l 375 625 l 625 625 l 625 875 l 250 875 l 250 750 l 375 750 m 125 500 l 125 250 l 625 250 l 625 375 l 375 375 l 375 500 l 125 500"},"9":{"x_min":0,"x_max":875,"ha":1000,"o":"m 625 125 l 125 125 l 125 250 l 500 250 l 500 375 l 625 375 l 625 500 l 125 500 l 125 625 l 0 625 l 0 875 l 125 875 l 125 1000 l 750 1000 l 750 875 l 875 875 l 875 375 l 750 375 l 750 250 l 625 250 l 625 125 m 250 875 l 250 625 l 625 625 l 625 875 l 250 875"},"\r":{"x_min":0,"x_max":0,"ha":1000,"o":""}," ":{"x_min":0,"x_max":0,"ha":1000,"o":""},"A":{"x_min":0,"x_max":875,"ha":1000,"o":"m 250 125 l 0 125 l 0 750 l 125 750 l 125 875 l 250 875 l 250 1000 l 625 1000 l 625 875 l 750 875 l 750 750 l 875 750 l 875 125 l 625 125 l 625 375 l 250 375 l 250 125 m 250 750 l 250 500 l 625 500 l 625 750 l 500 750 l 500 875 l 375 875 l 375 750 l 250 750"},"Á":{"x_min":0,"x_max":875,"ha":1000,"o":"m 625 1000 l 625 875 l 500 875 l 500 1000 l 625 1000 m 750 500 l 875 500 l 875 125 l 625 125 l 625 250 l 250 250 l 250 125 l 0 125 l 0 500 l 125 500 l 125 625 l 250 625 l 250 750 l 375 750 l 375 875 l 500 875 l 500 750 l 625 750 l 625 625 l 750 625 l 750 500 m 625 375 l 625 500 l 500 500 l 500 625 l 375 625 l 375 500 l 250 500 l 250 375 l 625 375"},"Ă":{"x_min":0,"x_max":875,"ha":1000,"o":"m 125 1000 l 250 1000 l 250 875 l 125 875 l 125 1000 m 750 1000 l 750 875 l 625 875 l 625 1000 l 750 1000 m 750 500 l 875 500 l 875 125 l 625 125 l 625 250 l 250 250 l 250 125 l 0 125 l 0 500 l 125 500 l 125 625 l 250 625 l 250 875 l 625 875 l 625 625 l 750 625 l 750 500 m 625 375 l 625 500 l 500 500 l 500 625 l 375 625 l 375 500 l 250 500 l 250 375 l 625 375"},"Â":{"x_min":0,"x_max":875,"ha":1000,"o":"m 250 125 l 0 125 l 0 500 l 125 500 l 125 625 l 250 625 l 250 750 l 125 750 l 125 875 l 250 875 l 250 1000 l 625 1000 l 625 875 l 750 875 l 750 750 l 625 750 l 625 625 l 750 625 l 750 500 l 875 500 l 875 125 l 625 125 l 625 250 l 250 250 l 250 125 m 375 875 l 375 750 l 500 750 l 500 875 l 375 875 m 250 500 l 250 375 l 625 375 l 625 500 l 500 500 l 500 625 l 375 625 l 375 500 l 250 500"},"Ä":{"x_min":0,"x_max":875,"ha":1000,"o":"m 375 875 l 125 875 l 125 1000 l 375 1000 l 375 875 m 750 875 l 500 875 l 500 1000 l 750 1000 l 750 875 m 250 125 l 0 125 l 0 500 l 125 500 l 125 625 l 250 625 l 250 750 l 625 750 l 625 625 l 750 625 l 750 500 l 875 500 l 875 125 l 625 125 l 625 250 l 250 250 l 250 125 m 250 500 l 250 375 l 625 375 l 625 500 l 500 500 l 500 625 l 375 625 l 375 500 l 250 500"},"À":{"x_min":0,"x_max":875,"ha":1000,"o":"m 250 1000 l 375 1000 l 375 875 l 250 875 l 250 1000 m 750 500 l 875 500 l 875 125 l 625 125 l 625 250 l 250 250 l 250 125 l 0 125 l 0 500 l 125 500 l 125 625 l 250 625 l 250 750 l 375 750 l 375 875 l 500 875 l 500 750 l 625 750 l 625 625 l 750 625 l 750 500 m 625 375 l 625 500 l 500 500 l 500 625 l 375 625 l 375 500 l 250 500 l 250 375 l 625 375"},"Ā":{"x_min":0,"x_max":875,"ha":1000,"o":"m 750 875 l 125 875 l 125 1000 l 750 1000 l 750 875 m 250 125 l 0 125 l 0 500 l 125 500 l 125 625 l 250 625 l 250 750 l 625 750 l 625 625 l 750 625 l 750 500 l 875 500 l 875 125 l 625 125 l 625 250 l 250 250 l 250 125 m 250 500 l 250 375 l 625 375 l 625 500 l 500 500 l 500 625 l 375 625 l 375 500 l 250 500"},"Ą":{"x_min":0,"x_max":875,"ha":1000,"o":"m 750 750 l 875 750 l 875 375 l 750 375 l 750 250 l 625 250 l 625 500 l 250 500 l 250 375 l 0 375 l 0 750 l 125 750 l 125 875 l 250 875 l 250 1000 l 625 1000 l 625 875 l 750 875 l 750 750 m 625 625 l 625 750 l 500 750 l 500 875 l 375 875 l 375 750 l 250 750 l 250 625 l 625 625 m 500 125 l 500 250 l 625 250 l 625 125 l 500 125 m 875 0 l 625 0 l 625 125 l 875 125 l 875 0"},"Å":{"x_min":0,"x_max":875,"ha":1000,"o":"m 250 125 l 0 125 l 0 500 l 125 500 l 125 625 l 250 625 l 250 875 l 375 875 l 375 1000 l 500 1000 l 500 875 l 625 875 l 625 625 l 750 625 l 750 500 l 875 500 l 875 125 l 625 125 l 625 250 l 250 250 l 250 125 m 375 875 l 375 750 l 500 750 l 500 875 l 375 875 m 250 500 l 250 375 l 625 375 l 625 500 l 500 500 l 500 625 l 375 625 l 375 500 l 250 500"},"Ã":{"x_min":0,"x_max":875,"ha":1000,"o":"m 750 500 l 875 500 l 875 125 l 625 125 l 625 250 l 250 250 l 250 125 l 0 125 l 0 500 l 125 500 l 125 625 l 250 625 l 250 750 l 375 750 l 375 875 l 250 875 l 250 1000 l 500 1000 l 500 875 l 625 875 l 625 625 l 750 625 l 750 500 m 750 1000 l 750 875 l 625 875 l 625 1000 l 750 1000 m 125 875 l 250 875 l 250 750 l 125 750 l 125 875 m 625 375 l 625 500 l 500 500 l 500 625 l 375 625 l 375 500 l 250 500 l 250 375 l 625 375"},"Æ":{"x_min":0,"x_max":875,"ha":1000,"o":"m 250 125 l 0 125 l 0 750 l 125 750 l 125 875 l 250 875 l 250 1000 l 875 1000 l 875 875 l 625 875 l 625 625 l 875 625 l 875 500 l 625 500 l 625 250 l 875 250 l 875 125 l 375 125 l 375 375 l 250 375 l 250 125 m 250 750 l 250 500 l 375 500 l 375 750 l 250 750"},"B":{"x_min":0,"x_max":875,"ha":1000,"o":"m 750 125 l 0 125 l 0 1000 l 750 1000 l 750 875 l 875 875 l 875 625 l 750 625 l 750 500 l 875 500 l 875 250 l 750 250 l 750 125 m 250 875 l 250 625 l 625 625 l 625 875 l 250 875 m 250 500 l 250 250 l 625 250 l 625 500 l 250 500"},"C":{"x_min":0,"x_max":875,"ha":1000,"o":"m 750 125 l 250 125 l 250 250 l 125 250 l 125 375 l 0 375 l 0 750 l 125 750 l 125 875 l 250 875 l 250 1000 l 750 1000 l 750 875 l 875 875 l 875 750 l 625 750 l 625 875 l 375 875 l 375 750 l 250 750 l 250 375 l 375 375 l 375 250 l 625 250 l 625 375 l 875 375 l 875 250 l 750 250 l 750 125"},"Ć":{"x_min":0,"x_max":875,"ha":1000,"o":"m 625 1000 l 625 875 l 500 875 l 500 1000 l 625 1000 m 750 625 l 875 625 l 875 500 l 625 500 l 625 625 l 375 625 l 375 500 l 250 500 l 250 375 l 375 375 l 375 250 l 625 250 l 625 375 l 875 375 l 875 250 l 750 250 l 750 125 l 250 125 l 250 250 l 125 250 l 125 375 l 0 375 l 0 500 l 125 500 l 125 625 l 250 625 l 250 750 l 375 750 l 375 875 l 500 875 l 500 750 l 750 750 l 750 625"},"Č":{"x_min":0,"x_max":875,"ha":1000,"o":"m 750 125 l 250 125 l 250 250 l 125 250 l 125 375 l 0 375 l 0 500 l 125 500 l 125 625 l 250 625 l 250 875 l 125 875 l 125 1000 l 375 1000 l 375 875 l 625 875 l 625 1000 l 875 1000 l 875 875 l 750 875 l 750 625 l 875 625 l 875 500 l 625 500 l 625 625 l 375 625 l 375 500 l 250 500 l 250 375 l 375 375 l 375 250 l 625 250 l 625 375 l 875 375 l 875 250 l 750 250 l 750 125"},"Ç":{"x_min":0,"x_max":875,"ha":1000,"o":"m 750 875 l 875 875 l 875 750 l 625 750 l 625 875 l 375 875 l 375 750 l 250 750 l 250 500 l 375 500 l 375 375 l 625 375 l 625 500 l 875 500 l 875 375 l 750 375 l 750 250 l 625 250 l 625 125 l 500 125 l 500 250 l 250 250 l 250 375 l 125 375 l 125 500 l 0 500 l 0 750 l 125 750 l 125 875 l 250 875 l 250 1000 l 750 1000 l 750 875 m 250 0 l 250 125 l 500 125 l 500 0 l 250 0"},"Ĉ":{"x_min":0,"x_max":875,"ha":1000,"o":"m 750 125 l 250 125 l 250 250 l 125 250 l 125 375 l 0 375 l 0 500 l 125 500 l 125 625 l 250 625 l 250 750 l 125 750 l 125 875 l 250 875 l 250 1000 l 625 1000 l 625 875 l 750 875 l 750 625 l 875 625 l 875 500 l 625 500 l 625 625 l 375 625 l 375 500 l 250 500 l 250 375 l 375 375 l 375 250 l 625 250 l 625 375 l 875 375 l 875 250 l 750 250 l 750 125 m 375 875 l 375 750 l 500 750 l 500 875 l 375 875"},"Ċ":{"x_min":0,"x_max":875,"ha":1000,"o":"m 625 875 l 375 875 l 375 1000 l 625 1000 l 625 875 m 750 125 l 250 125 l 250 250 l 125 250 l 125 375 l 0 375 l 0 500 l 125 500 l 125 625 l 250 625 l 250 750 l 750 750 l 750 625 l 875 625 l 875 500 l 625 500 l 625 625 l 375 625 l 375 500 l 250 500 l 250 375 l 375 375 l 375 250 l 625 250 l 625 375 l 875 375 l 875 250 l 750 250 l 750 125"},"D":{"x_min":0,"x_max":875,"ha":1000,"o":"m 625 125 l 0 125 l 0 1000 l 625 1000 l 625 875 l 750 875 l 750 750 l 875 750 l 875 375 l 750 375 l 750 250 l 625 250 l 625 125 m 250 875 l 250 250 l 500 250 l 500 375 l 625 375 l 625 750 l 500 750 l 500 875 l 250 875"},"Ð":{"x_min":0,"x_max":875,"ha":1000,"o":"m 625 125 l 125 125 l 125 500 l 0 500 l 0 625 l 125 625 l 125 1000 l 625 1000 l 625 875 l 750 875 l 750 750 l 875 750 l 875 375 l 750 375 l 750 250 l 625 250 l 625 125 m 375 500 l 375 250 l 500 250 l 500 375 l 625 375 l 625 750 l 500 750 l 500 875 l 375 875 l 375 625 l 500 625 l 500 500 l 375 500"},"Ď":{"x_min":0,"x_max":875,"ha":1000,"o":"m 625 125 l 0 125 l 0 750 l 250 750 l 250 875 l 125 875 l 125 1000 l 375 1000 l 375 875 l 500 875 l 500 1000 l 750 1000 l 750 875 l 625 875 l 625 625 l 750 625 l 750 500 l 875 500 l 875 375 l 750 375 l 750 250 l 625 250 l 625 125 m 250 625 l 250 250 l 500 250 l 500 375 l 625 375 l 625 500 l 500 500 l 500 625 l 250 625"},"Đ":{"x_min":0,"x_max":875,"ha":1000,"o":"m 625 125 l 125 125 l 125 500 l 0 500 l 0 625 l 125 625 l 125 1000 l 625 1000 l 625 875 l 750 875 l 750 750 l 875 750 l 875 375 l 750 375 l 750 250 l 625 250 l 625 125 m 375 500 l 375 250 l 500 250 l 500 375 l 625 375 l 625 750 l 500 750 l 500 875 l 375 875 l 375 625 l 500 625 l 500 500 l 375 500"},"E":{"x_min":0,"x_max":875,"ha":1000,"o":"m 875 125 l 0 125 l 0 1000 l 875 1000 l 875 875 l 250 875 l 250 625 l 750 625 l 750 500 l 250 500 l 250 250 l 875 250 l 875 125"},"É":{"x_min":0,"x_max":875,"ha":1000,"o":"m 625 1000 l 625 875 l 500 875 l 500 1000 l 625 1000 m 500 750 l 875 750 l 875 625 l 250 625 l 250 500 l 750 500 l 750 375 l 250 375 l 250 250 l 875 250 l 875 125 l 0 125 l 0 750 l 375 750 l 375 875 l 500 875 l 500 750"},"Ĕ":{"x_min":0,"x_max":875,"ha":1000,"o":"m 125 1000 l 250 1000 l 250 875 l 125 875 l 125 1000 m 750 1000 l 750 875 l 625 875 l 625 1000 l 750 1000 m 625 750 l 875 750 l 875 625 l 250 625 l 250 500 l 750 500 l 750 375 l 250 375 l 250 250 l 875 250 l 875 125 l 0 125 l 0 750 l 250 750 l 250 875 l 625 875 l 625 750"},"Ě":{"x_min":0,"x_max":875,"ha":1000,"o":"m 875 125 l 0 125 l 0 750 l 250 750 l 250 875 l 125 875 l 125 1000 l 375 1000 l 375 875 l 500 875 l 500 1000 l 750 1000 l 750 875 l 625 875 l 625 750 l 875 750 l 875 625 l 250 625 l 250 500 l 750 500 l 750 375 l 250 375 l 250 250 l 875 250 l 875 125"},"Ê":{"x_min":0,"x_max":875,"ha":1000,"o":"m 875 125 l 0 125 l 0 750 l 125 750 l 125 875 l 250 875 l 250 1000 l 625 1000 l 625 875 l 750 875 l 750 750 l 875 750 l 875 625 l 250 625 l 250 500 l 750 500 l 750 375 l 250 375 l 250 250 l 875 250 l 875 125 m 375 875 l 375 750 l 500 750 l 500 875 l 375 875"},"Ë":{"x_min":0,"x_max":875,"ha":1000,"o":"m 375 875 l 125 875 l 125 1000 l 375 1000 l 375 875 m 750 875 l 500 875 l 500 1000 l 750 1000 l 750 875 m 875 125 l 0 125 l 0 750 l 875 750 l 875 625 l 250 625 l 250 500 l 750 500 l 750 375 l 250 375 l 250 250 l 875 250 l 875 125"},"Ė":{"x_min":0,"x_max":875,"ha":1000,"o":"m 625 875 l 375 875 l 375 1000 l 625 1000 l 625 875 m 875 125 l 0 125 l 0 750 l 875 750 l 875 625 l 250 625 l 250 500 l 750 500 l 750 375 l 250 375 l 250 250 l 875 250 l 875 125"},"È":{"x_min":0,"x_max":875,"ha":1000,"o":"m 250 1000 l 375 1000 l 375 875 l 250 875 l 250 1000 m 500 750 l 875 750 l 875 625 l 250 625 l 250 500 l 750 500 l 750 375 l 250 375 l 250 250 l 875 250 l 875 125 l 0 125 l 0 750 l 375 750 l 375 875 l 500 875 l 500 750"},"Ē":{"x_min":0,"x_max":875,"ha":1000,"o":"m 750 875 l 125 875 l 125 1000 l 750 1000 l 750 875 m 875 125 l 0 125 l 0 750 l 875 750 l 875 625 l 250 625 l 250 500 l 750 500 l 750 375 l 250 375 l 250 250 l 875 250 l 875 125"},"Ę":{"x_min":0,"x_max":875,"ha":1000,"o":"m 0 1000 l 875 1000 l 875 875 l 250 875 l 250 750 l 750 750 l 750 625 l 250 625 l 250 500 l 875 500 l 875 375 l 500 375 l 500 250 l 375 250 l 375 375 l 0 375 l 0 1000 m 250 125 l 250 250 l 375 250 l 375 125 l 250 125 m 625 0 l 375 0 l 375 125 l 625 125 l 625 0"},"F":{"x_min":0,"x_max":875,"ha":1000,"o":"m 250 125 l 0 125 l 0 1000 l 875 1000 l 875 875 l 250 875 l 250 625 l 750 625 l 750 500 l 250 500 l 250 125"},"G":{"x_min":0,"x_max":875,"ha":1000,"o":"m 875 125 l 250 125 l 250 250 l 125 250 l 125 375 l 0 375 l 0 750 l 125 750 l 125 875 l 250 875 l 250 1000 l 875 1000 l 875 875 l 375 875 l 375 750 l 250 750 l 250 375 l 375 375 l 375 250 l 625 250 l 625 500 l 500 500 l 500 625 l 875 625 l 875 125"},"Ğ":{"x_min":0,"x_max":875,"ha":1000,"o":"m 125 1000 l 250 1000 l 250 875 l 125 875 l 125 1000 m 750 1000 l 750 875 l 625 875 l 625 1000 l 750 1000 m 625 750 l 875 750 l 875 625 l 250 625 l 250 250 l 625 250 l 625 375 l 500 375 l 500 500 l 875 500 l 875 125 l 125 125 l 125 250 l 0 250 l 0 625 l 125 625 l 125 750 l 250 750 l 250 875 l 625 875 l 625 750"},"Ĝ":{"x_min":0,"x_max":875,"ha":1000,"o":"m 875 125 l 125 125 l 125 250 l 0 250 l 0 625 l 125 625 l 125 875 l 250 875 l 250 1000 l 625 1000 l 625 875 l 750 875 l 750 750 l 875 750 l 875 625 l 250 625 l 250 250 l 625 250 l 625 375 l 500 375 l 500 500 l 875 500 l 875 125 m 375 875 l 375 750 l 500 750 l 500 875 l 375 875"},"Ģ":{"x_min":0,"x_max":875,"ha":1000,"o":"m 500 0 l 250 0 l 250 125 l 375 125 l 375 250 l 250 250 l 250 375 l 125 375 l 125 500 l 0 500 l 0 750 l 125 750 l 125 875 l 250 875 l 250 1000 l 875 1000 l 875 875 l 375 875 l 375 750 l 250 750 l 250 500 l 375 500 l 375 375 l 625 375 l 625 500 l 500 500 l 500 625 l 875 625 l 875 250 l 625 250 l 625 125 l 500 125 l 500 0"},"Ġ":{"x_min":0,"x_max":875,"ha":1000,"o":"m 625 875 l 375 875 l 375 1000 l 625 1000 l 625 875 m 875 125 l 125 125 l 125 250 l 0 250 l 0 625 l 125 625 l 125 750 l 875 750 l 875 625 l 250 625 l 250 250 l 625 250 l 625 375 l 500 375 l 500 500 l 875 500 l 875 125"},"H":{"x_min":0,"x_max":875,"ha":1000,"o":"m 250 125 l 0 125 l 0 1000 l 250 1000 l 250 625 l 625 625 l 625 1000 l 875 1000 l 875 125 l 625 125 l 625 500 l 250 500 l 250 125"},"Ħ":{"x_min":0,"x_max":875,"ha":1000,"o":"m 250 125 l 0 125 l 0 1000 l 250 1000 l 250 875 l 625 875 l 625 1000 l 875 1000 l 875 125 l 625 125 l 625 500 l 250 500 l 250 125 m 250 750 l 250 625 l 625 625 l 625 750 l 250 750"},"Ĥ":{"x_min":0,"x_max":875,"ha":1000,"o":"m 250 125 l 0 125 l 0 875 l 250 875 l 250 1000 l 625 1000 l 625 875 l 875 875 l 875 125 l 625 125 l 625 375 l 250 375 l 250 125 m 250 750 l 250 500 l 625 500 l 625 750 l 500 750 l 500 875 l 375 875 l 375 750 l 250 750"},"I":{"x_min":125,"x_max":875,"ha":1000,"o":"m 875 125 l 125 125 l 125 250 l 375 250 l 375 875 l 125 875 l 125 1000 l 875 1000 l 875 875 l 625 875 l 625 250 l 875 250 l 875 125"},"Ĳ":{"x_min":0,"x_max":875,"ha":1000,"o":"m 500 375 l 0 375 l 0 500 l 125 500 l 125 875 l 0 875 l 0 1000 l 500 1000 l 500 875 l 375 875 l 375 500 l 500 500 l 500 375 m 750 125 l 125 125 l 125 250 l 625 250 l 625 1000 l 875 1000 l 875 250 l 750 250 l 750 125"},"Í":{"x_min":125,"x_max":875,"ha":1000,"o":"m 625 1000 l 625 875 l 500 875 l 500 1000 l 625 1000 m 500 750 l 875 750 l 875 625 l 625 625 l 625 250 l 875 250 l 875 125 l 125 125 l 125 250 l 375 250 l 375 625 l 125 625 l 125 750 l 375 750 l 375 875 l 500 875 l 500 750"},"Ĭ":{"x_min":125,"x_max":875,"ha":1000,"o":"m 250 1000 l 375 1000 l 375 875 l 250 875 l 250 1000 m 750 1000 l 750 875 l 625 875 l 625 1000 l 750 1000 m 625 750 l 875 750 l 875 625 l 625 625 l 625 250 l 875 250 l 875 125 l 125 125 l 125 250 l 375 250 l 375 625 l 125 625 l 125 750 l 375 750 l 375 875 l 625 875 l 625 750"},"Î":{"x_min":125,"x_max":875,"ha":1000,"o":"m 875 125 l 125 125 l 125 250 l 375 250 l 375 625 l 125 625 l 125 750 l 250 750 l 250 875 l 375 875 l 375 1000 l 625 1000 l 625 875 l 750 875 l 750 750 l 875 750 l 875 625 l 625 625 l 625 250 l 875 250 l 875 125"},"Ï":{"x_min":125,"x_max":875,"ha":1000,"o":"m 375 875 l 125 875 l 125 1000 l 375 1000 l 375 875 m 875 875 l 625 875 l 625 1000 l 875 1000 l 875 875 m 875 125 l 125 125 l 125 250 l 375 250 l 375 625 l 125 625 l 125 750 l 875 750 l 875 625 l 625 625 l 625 250 l 875 250 l 875 125"},"İ":{"x_min":125,"x_max":875,"ha":1000,"o":"m 625 875 l 375 875 l 375 1000 l 625 1000 l 625 875 m 875 125 l 125 125 l 125 250 l 375 250 l 375 625 l 125 625 l 125 750 l 875 750 l 875 625 l 625 625 l 625 250 l 875 250 l 875 125"},"Ì":{"x_min":125,"x_max":875,"ha":1000,"o":"m 375 1000 l 500 1000 l 500 875 l 375 875 l 375 1000 m 625 750 l 875 750 l 875 625 l 625 625 l 625 250 l 875 250 l 875 125 l 125 125 l 125 250 l 375 250 l 375 625 l 125 625 l 125 750 l 500 750 l 500 875 l 625 875 l 625 750"},"Ī":{"x_min":125,"x_max":875,"ha":1000,"o":"m 875 875 l 125 875 l 125 1000 l 875 1000 l 875 875 m 875 125 l 125 125 l 125 250 l 375 250 l 375 625 l 125 625 l 125 750 l 875 750 l 875 625 l 625 625 l 625 250 l 875 250 l 875 125"},"Į":{"x_min":125,"x_max":875,"ha":1000,"o":"m 125 1000 l 875 1000 l 875 875 l 625 875 l 625 500 l 875 500 l 875 375 l 500 375 l 500 250 l 375 250 l 375 375 l 125 375 l 125 500 l 375 500 l 375 875 l 125 875 l 125 1000 m 250 125 l 250 250 l 375 250 l 375 125 l 250 125 m 625 0 l 375 0 l 375 125 l 625 125 l 625 0"},"Ĩ":{"x_min":125,"x_max":875,"ha":1000,"o":"m 500 1000 l 500 875 l 250 875 l 250 1000 l 500 1000 m 750 1000 l 875 1000 l 875 875 l 750 875 l 750 1000 m 500 750 l 500 875 l 750 875 l 750 750 l 875 750 l 875 625 l 625 625 l 625 250 l 875 250 l 875 125 l 125 125 l 125 250 l 375 250 l 375 625 l 125 625 l 125 875 l 250 875 l 250 750 l 500 750"},"J":{"x_min":0,"x_max":875,"ha":1000,"o":"m 750 125 l 125 125 l 125 250 l 0 250 l 0 375 l 250 375 l 250 250 l 625 250 l 625 1000 l 875 1000 l 875 250 l 750 250 l 750 125"},"Ĵ":{"x_min":0,"x_max":875,"ha":1000,"o":"m 750 125 l 125 125 l 125 250 l 0 250 l 0 375 l 250 375 l 250 250 l 625 250 l 625 875 l 500 875 l 500 750 l 250 750 l 250 875 l 375 875 l 375 1000 l 750 1000 l 750 875 l 875 875 l 875 250 l 750 250 l 750 125"},"K":{"x_min":0,"x_max":875,"ha":1000,"o":"m 250 125 l 0 125 l 0 1000 l 250 1000 l 250 625 l 375 625 l 375 750 l 500 750 l 500 875 l 625 875 l 625 1000 l 875 1000 l 875 875 l 750 875 l 750 750 l 625 750 l 625 625 l 500 625 l 500 500 l 625 500 l 625 375 l 750 375 l 750 250 l 875 250 l 875 125 l 500 125 l 500 250 l 375 250 l 375 375 l 250 375 l 250 125"},"Ķ":{"x_min":0,"x_max":875,"ha":1000,"o":"m 375 0 l 125 0 l 125 125 l 250 125 l 250 250 l 0 250 l 0 1000 l 250 1000 l 250 750 l 375 750 l 375 875 l 500 875 l 500 1000 l 750 1000 l 750 875 l 625 875 l 625 750 l 500 750 l 500 625 l 625 625 l 625 500 l 750 500 l 750 375 l 875 375 l 875 250 l 500 250 l 500 125 l 375 125 l 375 0 m 250 500 l 250 250 l 500 250 l 500 375 l 375 375 l 375 500 l 250 500"},"L":{"x_min":125,"x_max":875,"ha":1000,"o":"m 875 125 l 125 125 l 125 1000 l 375 1000 l 375 250 l 875 250 l 875 125"},"Ĺ":{"x_min":125,"x_max":875,"ha":1000,"o":"m 625 1000 l 625 875 l 500 875 l 500 1000 l 625 1000 m 375 250 l 875 250 l 875 125 l 125 125 l 125 875 l 500 875 l 500 750 l 375 750 l 375 250"},"Ľ":{"x_min":125,"x_max":875,"ha":1000,"o":"m 875 125 l 125 125 l 125 1000 l 375 1000 l 375 250 l 875 250 l 875 125 m 750 625 l 625 625 l 625 1000 l 875 1000 l 875 750 l 750 750 l 750 625"},"Ļ":{"x_min":125,"x_max":875,"ha":1000,"o":"m 500 0 l 250 0 l 250 125 l 375 125 l 375 250 l 125 250 l 125 1000 l 375 1000 l 375 375 l 875 375 l 875 250 l 625 250 l 625 125 l 500 125 l 500 0"},"Ŀ":{"x_min":125,"x_max":875,"ha":1000,"o":"m 875 125 l 125 125 l 125 1000 l 375 1000 l 375 250 l 875 250 l 875 125 m 750 500 l 500 500 l 500 750 l 750 750 l 750 500"},"Ł":{"x_min":0,"x_max":875,"ha":1000,"o":"m 875 125 l 125 125 l 125 500 l 0 500 l 0 625 l 125 625 l 125 1000 l 375 1000 l 375 750 l 500 750 l 500 625 l 375 625 l 375 250 l 875 250 l 875 125"},"M":{"x_min":0,"x_max":875,"ha":1000,"o":"m 250 125 l 0 125 l 0 1000 l 250 1000 l 250 875 l 375 875 l 375 750 l 500 750 l 500 875 l 625 875 l 625 1000 l 875 1000 l 875 125 l 625 125 l 625 625 l 500 625 l 500 375 l 375 375 l 375 625 l 250 625 l 250 125"},"N":{"x_min":0,"x_max":875,"ha":1000,"o":"m 250 125 l 0 125 l 0 1000 l 250 1000 l 250 875 l 375 875 l 375 750 l 500 750 l 500 625 l 625 625 l 625 1000 l 875 1000 l 875 125 l 625 125 l 625 375 l 500 375 l 500 500 l 375 500 l 375 625 l 250 625 l 250 125"},"Ń":{"x_min":0,"x_max":875,"ha":1000,"o":"m 625 1000 l 625 875 l 500 875 l 500 1000 l 625 1000 m 500 875 l 500 750 l 375 750 l 375 875 l 500 875 m 625 750 l 875 750 l 875 125 l 500 125 l 500 250 l 375 250 l 375 375 l 250 375 l 250 125 l 0 125 l 0 750 l 375 750 l 375 625 l 500 625 l 500 500 l 625 500 l 625 750"},"Ň":{"x_min":0,"x_max":875,"ha":1000,"o":"m 625 750 l 875 750 l 875 125 l 500 125 l 500 250 l 375 250 l 375 375 l 250 375 l 250 125 l 0 125 l 0 750 l 250 750 l 250 875 l 125 875 l 125 1000 l 375 1000 l 375 875 l 500 875 l 500 1000 l 750 1000 l 750 875 l 625 875 l 625 750 l 375 750 l 375 625 l 500 625 l 500 500 l 625 500 l 625 750"},"Ņ":{"x_min":0,"x_max":875,"ha":1000,"o":"m 625 1000 l 875 1000 l 875 250 l 625 250 l 625 375 l 500 375 l 500 500 l 375 500 l 375 625 l 250 625 l 250 250 l 0 250 l 0 1000 l 375 1000 l 375 875 l 500 875 l 500 750 l 625 750 l 625 1000 m 375 125 l 375 250 l 625 250 l 625 125 l 500 125 l 500 0 l 250 0 l 250 125 l 375 125"},"Ŋ":{"x_min":0,"x_max":875,"ha":1000,"o":"m 750 0 l 250 0 l 250 125 l 625 125 l 625 375 l 500 375 l 500 500 l 375 500 l 375 625 l 250 625 l 250 250 l 0 250 l 0 1000 l 375 1000 l 375 875 l 500 875 l 500 750 l 625 750 l 625 1000 l 875 1000 l 875 125 l 750 125 l 750 0"},"Ñ":{"x_min":0,"x_max":875,"ha":1000,"o":"m 375 750 l 375 875 l 250 875 l 250 1000 l 500 1000 l 500 875 l 625 875 l 625 750 l 375 750 m 750 1000 l 750 875 l 625 875 l 625 1000 l 750 1000 m 625 750 l 875 750 l 875 125 l 500 125 l 500 250 l 375 250 l 375 375 l 250 375 l 250 125 l 0 125 l 0 750 l 125 750 l 125 875 l 250 875 l 250 750 l 375 750 l 375 625 l 500 625 l 500 500 l 625 500 l 625 750"},"O":{"x_min":0,"x_max":875,"ha":1000,"o":"m 750 125 l 125 125 l 125 250 l 0 250 l 0 875 l 125 875 l 125 1000 l 750 1000 l 750 875 l 875 875 l 875 250 l 750 250 l 750 125 m 250 875 l 250 250 l 625 250 l 625 875 l 250 875"},"Ó":{"x_min":0,"x_max":875,"ha":1000,"o":"m 625 1000 l 625 875 l 500 875 l 500 1000 l 625 1000 m 750 625 l 875 625 l 875 250 l 750 250 l 750 125 l 125 125 l 125 250 l 0 250 l 0 625 l 125 625 l 125 750 l 375 750 l 375 875 l 500 875 l 500 750 l 750 750 l 750 625 m 625 250 l 625 625 l 250 625 l 250 250 l 625 250"},"Ŏ":{"x_min":0,"x_max":875,"ha":1000,"o":"m 125 1000 l 250 1000 l 250 875 l 125 875 l 125 1000 m 750 1000 l 750 875 l 625 875 l 625 1000 l 750 1000 m 750 625 l 875 625 l 875 250 l 750 250 l 750 125 l 125 125 l 125 250 l 0 250 l 0 625 l 125 625 l 125 750 l 250 750 l 250 875 l 625 875 l 625 750 l 750 750 l 750 625 m 625 250 l 625 625 l 250 625 l 250 250 l 625 250"},"Ô":{"x_min":0,"x_max":875,"ha":1000,"o":"m 750 125 l 125 125 l 125 250 l 0 250 l 0 625 l 125 625 l 125 875 l 250 875 l 250 1000 l 625 1000 l 625 875 l 750 875 l 750 625 l 875 625 l 875 250 l 750 250 l 750 125 m 375 875 l 375 750 l 500 750 l 500 875 l 375 875 m 250 625 l 250 250 l 625 250 l 625 625 l 250 625"},"Ö":{"x_min":0,"x_max":875,"ha":1000,"o":"m 375 875 l 125 875 l 125 1000 l 375 1000 l 375 875 m 750 875 l 500 875 l 500 1000 l 750 1000 l 750 875 m 750 125 l 125 125 l 125 250 l 0 250 l 0 625 l 125 625 l 125 750 l 750 750 l 750 625 l 875 625 l 875 250 l 750 250 l 750 125 m 250 625 l 250 250 l 625 250 l 625 625 l 250 625"},"Ò":{"x_min":0,"x_max":875,"ha":1000,"o":"m 250 1000 l 375 1000 l 375 875 l 250 875 l 250 1000 m 750 625 l 875 625 l 875 250 l 750 250 l 750 125 l 125 125 l 125 250 l 0 250 l 0 625 l 125 625 l 125 750 l 375 750 l 375 875 l 500 875 l 500 750 l 750 750 l 750 625 m 625 250 l 625 625 l 250 625 l 250 250 l 625 250"},"Ő":{"x_min":0,"x_max":875,"ha":1000,"o":"m 375 1000 l 375 875 l 250 875 l 250 1000 l 375 1000 m 750 1000 l 750 875 l 625 875 l 625 1000 l 750 1000 m 750 625 l 875 625 l 875 250 l 750 250 l 750 125 l 125 125 l 125 250 l 0 250 l 0 625 l 125 625 l 125 875 l 250 875 l 250 750 l 500 750 l 500 875 l 625 875 l 625 750 l 750 750 l 750 625 m 625 250 l 625 625 l 250 625 l 250 250 l 625 250"},"Ō":{"x_min":0,"x_max":875,"ha":1000,"o":"m 750 875 l 125 875 l 125 1000 l 750 1000 l 750 875 m 750 125 l 125 125 l 125 250 l 0 250 l 0 625 l 125 625 l 125 750 l 750 750 l 750 625 l 875 625 l 875 250 l 750 250 l 750 125 m 250 625 l 250 250 l 625 250 l 625 625 l 250 625"},"Ø":{"x_min":0,"x_max":875,"ha":1000,"o":"m 750 125 l 125 125 l 125 250 l 0 250 l 0 875 l 125 875 l 125 1000 l 750 1000 l 750 875 l 875 875 l 875 250 l 750 250 l 750 125 m 250 375 l 250 250 l 625 250 l 625 625 l 500 625 l 500 750 l 625 750 l 625 875 l 250 875 l 250 500 l 375 500 l 375 375 l 250 375 m 500 500 l 375 500 l 375 625 l 500 625 l 500 500"},"Õ":{"x_min":0,"x_max":875,"ha":1000,"o":"m 750 125 l 125 125 l 125 250 l 0 250 l 0 625 l 125 625 l 125 875 l 250 875 l 250 1000 l 500 1000 l 500 875 l 625 875 l 625 1000 l 750 1000 l 750 875 l 625 875 l 625 750 l 750 750 l 750 625 l 875 625 l 875 250 l 750 250 l 750 125 m 250 875 l 250 750 l 375 750 l 375 875 l 250 875 m 250 625 l 250 250 l 625 250 l 625 625 l 250 625"},"Œ":{"x_min":0,"x_max":875,"ha":1000,"o":"m 875 125 l 125 125 l 125 250 l 0 250 l 0 875 l 125 875 l 125 1000 l 875 1000 l 875 875 l 625 875 l 625 625 l 875 625 l 875 500 l 625 500 l 625 250 l 875 250 l 875 125 m 250 875 l 250 250 l 375 250 l 375 875 l 250 875"},"P":{"x_min":0,"x_max":875,"ha":1000,"o":"m 250 125 l 0 125 l 0 1000 l 750 1000 l 750 875 l 875 875 l 875 500 l 750 500 l 750 375 l 250 375 l 250 125 m 250 875 l 250 500 l 625 500 l 625 875 l 250 875"},"Þ":{"x_min":0,"x_max":875,"ha":1000,"o":"m 250 125 l 0 125 l 0 1000 l 250 1000 l 250 875 l 750 875 l 750 750 l 875 750 l 875 375 l 750 375 l 750 250 l 250 250 l 250 125 m 250 750 l 250 375 l 625 375 l 625 750 l 250 750"},"Q":{"x_min":0,"x_max":875,"ha":1000,"o":"m 750 875 l 875 875 l 875 375 l 750 375 l 750 250 l 625 250 l 625 125 l 125 125 l 125 250 l 0 250 l 0 875 l 125 875 l 125 1000 l 750 1000 l 750 875 m 625 500 l 625 875 l 250 875 l 250 250 l 500 250 l 500 375 l 375 375 l 375 500 l 625 500 m 875 125 l 750 125 l 750 250 l 875 250 l 875 125"},"R":{"x_min":0,"x_max":875,"ha":1000,"o":"m 250 125 l 0 125 l 0 1000 l 750 1000 l 750 875 l 875 875 l 875 500 l 625 500 l 625 375 l 750 375 l 750 250 l 875 250 l 875 125 l 500 125 l 500 250 l 375 250 l 375 375 l 250 375 l 250 125 m 250 875 l 250 500 l 500 500 l 500 625 l 625 625 l 625 875 l 250 875"},"Ŕ":{"x_min":0,"x_max":875,"ha":1000,"o":"m 625 1000 l 625 875 l 500 875 l 500 1000 l 625 1000 m 750 625 l 875 625 l 875 500 l 625 500 l 625 375 l 750 375 l 750 250 l 875 250 l 875 125 l 500 125 l 500 250 l 375 250 l 375 375 l 250 375 l 250 125 l 0 125 l 0 750 l 375 750 l 375 875 l 500 875 l 500 750 l 750 750 l 750 625 m 500 500 l 500 625 l 250 625 l 250 500 l 500 500"},"Ř":{"x_min":0,"x_max":875,"ha":1000,"o":"m 250 1000 l 375 1000 l 375 875 l 250 875 l 250 1000 m 625 1000 l 625 875 l 500 875 l 500 1000 l 625 1000 m 750 625 l 875 625 l 875 500 l 625 500 l 625 375 l 750 375 l 750 250 l 875 250 l 875 125 l 500 125 l 500 250 l 375 250 l 375 375 l 250 375 l 250 125 l 0 125 l 0 750 l 375 750 l 375 875 l 500 875 l 500 750 l 750 750 l 750 625 m 500 500 l 500 625 l 250 625 l 250 500 l 500 500"},"Ŗ":{"x_min":0,"x_max":875,"ha":1000,"o":"m 500 0 l 250 0 l 250 125 l 375 125 l 375 250 l 500 250 l 500 375 l 375 375 l 375 500 l 250 500 l 250 250 l 0 250 l 0 1000 l 750 1000 l 750 875 l 875 875 l 875 625 l 625 625 l 625 500 l 750 500 l 750 375 l 875 375 l 875 250 l 625 250 l 625 125 l 500 125 l 500 0 m 250 875 l 250 625 l 500 625 l 500 750 l 625 750 l 625 875 l 250 875"},"S":{"x_min":0,"x_max":875,"ha":1000,"o":"m 750 125 l 125 125 l 125 250 l 0 250 l 0 375 l 250 375 l 250 250 l 625 250 l 625 500 l 125 500 l 125 625 l 0 625 l 0 875 l 125 875 l 125 1000 l 750 1000 l 750 875 l 875 875 l 875 750 l 625 750 l 625 875 l 250 875 l 250 625 l 750 625 l 750 500 l 875 500 l 875 250 l 750 250 l 750 125"},"Ś":{"x_min":0,"x_max":875,"ha":1000,"o":"m 625 1000 l 625 875 l 500 875 l 500 1000 l 625 1000 m 750 375 l 875 375 l 875 250 l 750 250 l 750 125 l 0 125 l 0 250 l 625 250 l 625 375 l 125 375 l 125 500 l 0 500 l 0 625 l 125 625 l 125 750 l 375 750 l 375 875 l 500 875 l 500 750 l 750 750 l 750 625 l 250 625 l 250 500 l 750 500 l 750 375"},"Š":{"x_min":0,"x_max":875,"ha":1000,"o":"m 750 125 l 0 125 l 0 250 l 625 250 l 625 375 l 125 375 l 125 500 l 0 500 l 0 625 l 125 625 l 125 750 l 250 750 l 250 875 l 125 875 l 125 1000 l 375 1000 l 375 875 l 500 875 l 500 1000 l 750 1000 l 750 875 l 625 875 l 625 750 l 750 750 l 750 625 l 250 625 l 250 500 l 750 500 l 750 375 l 875 375 l 875 250 l 750 250 l 750 125"},"Ş":{"x_min":0,"x_max":875,"ha":1000,"o":"m 750 625 l 875 625 l 875 375 l 750 375 l 750 250 l 625 250 l 625 125 l 500 125 l 500 250 l 125 250 l 125 375 l 0 375 l 0 500 l 250 500 l 250 375 l 625 375 l 625 625 l 125 625 l 125 750 l 0 750 l 0 875 l 125 875 l 125 1000 l 750 1000 l 750 875 l 250 875 l 250 750 l 750 750 l 750 625 m 250 0 l 250 125 l 500 125 l 500 0 l 250 0"},"Ŝ":{"x_min":0,"x_max":875,"ha":1000,"o":"m 750 125 l 0 125 l 0 250 l 625 250 l 625 375 l 125 375 l 125 500 l 0 500 l 0 625 l 125 625 l 125 875 l 250 875 l 250 1000 l 625 1000 l 625 875 l 750 875 l 750 625 l 250 625 l 250 500 l 750 500 l 750 375 l 875 375 l 875 250 l 750 250 l 750 125 m 375 875 l 375 750 l 500 750 l 500 875 l 375 875"},"T":{"x_min":125,"x_max":875,"ha":1000,"o":"m 625 125 l 375 125 l 375 875 l 125 875 l 125 1000 l 875 1000 l 875 875 l 625 875 l 625 125"},"Ŧ":{"x_min":125,"x_max":875,"ha":1000,"o":"m 625 125 l 375 125 l 375 375 l 250 375 l 250 500 l 375 500 l 375 875 l 125 875 l 125 1000 l 875 1000 l 875 875 l 625 875 l 625 625 l 750 625 l 750 500 l 625 500 l 625 125"},"Ť":{"x_min":125,"x_max":875,"ha":1000,"o":"m 250 1000 l 375 1000 l 375 875 l 250 875 l 250 1000 m 750 1000 l 750 875 l 625 875 l 625 1000 l 750 1000 m 625 750 l 875 750 l 875 625 l 625 625 l 625 125 l 375 125 l 375 625 l 125 625 l 125 750 l 375 750 l 375 875 l 625 875 l 625 750"},"Ț":{"x_min":125,"x_max":875,"ha":1000,"o":"m 125 1000 l 875 1000 l 875 875 l 625 875 l 625 125 l 500 125 l 500 250 l 375 250 l 375 875 l 125 875 l 125 1000 m 250 0 l 250 125 l 500 125 l 500 0 l 250 0"},"U":{"x_min":0,"x_max":875,"ha":1000,"o":"m 750 125 l 125 125 l 125 250 l 0 250 l 0 1000 l 250 1000 l 250 250 l 625 250 l 625 1000 l 875 1000 l 875 250 l 750 250 l 750 125"},"Ú":{"x_min":0,"x_max":875,"ha":1000,"o":"m 625 1000 l 625 875 l 500 875 l 500 1000 l 625 1000 m 500 875 l 500 750 l 375 750 l 375 875 l 500 875 m 625 750 l 875 750 l 875 250 l 750 250 l 750 125 l 125 125 l 125 250 l 0 250 l 0 750 l 250 750 l 250 250 l 625 250 l 625 750"},"Ŭ":{"x_min":0,"x_max":875,"ha":1000,"o":"m 125 1000 l 250 1000 l 250 875 l 125 875 l 125 1000 m 750 1000 l 750 875 l 625 875 l 625 1000 l 750 1000 m 625 875 l 625 750 l 250 750 l 250 875 l 625 875 m 625 750 l 875 750 l 875 250 l 750 250 l 750 125 l 125 125 l 125 250 l 0 250 l 0 750 l 250 750 l 250 250 l 625 250 l 625 750"},"Û":{"x_min":0,"x_max":875,"ha":1000,"o":"m 375 750 l 125 750 l 125 875 l 250 875 l 250 1000 l 625 1000 l 625 875 l 750 875 l 750 750 l 500 750 l 500 875 l 375 875 l 375 750 m 750 125 l 125 125 l 125 250 l 0 250 l 0 625 l 250 625 l 250 250 l 625 250 l 625 625 l 875 625 l 875 250 l 750 250 l 750 125"},"Ü":{"x_min":0,"x_max":875,"ha":1000,"o":"m 375 875 l 125 875 l 125 1000 l 375 1000 l 375 875 m 750 875 l 500 875 l 500 1000 l 750 1000 l 750 875 m 750 125 l 125 125 l 125 250 l 0 250 l 0 750 l 250 750 l 250 250 l 625 250 l 625 750 l 875 750 l 875 250 l 750 250 l 750 125"},"Ù":{"x_min":0,"x_max":875,"ha":1000,"o":"m 375 1000 l 375 875 l 250 875 l 250 1000 l 375 1000 m 500 750 l 375 750 l 375 875 l 500 875 l 500 750 m 625 750 l 875 750 l 875 250 l 750 250 l 750 125 l 125 125 l 125 250 l 0 250 l 0 750 l 250 750 l 250 250 l 625 250 l 625 750"},"Ű":{"x_min":0,"x_max":875,"ha":1000,"o":"m 375 1000 l 375 875 l 250 875 l 250 1000 l 375 1000 m 750 1000 l 750 875 l 625 875 l 625 1000 l 750 1000 m 625 750 l 875 750 l 875 250 l 750 250 l 750 125 l 125 125 l 125 250 l 0 250 l 0 750 l 125 750 l 125 875 l 250 875 l 250 250 l 625 250 l 625 750 m 500 875 l 625 875 l 625 750 l 500 750 l 500 875"},"Ū":{"x_min":0,"x_max":875,"ha":1000,"o":"m 750 875 l 125 875 l 125 1000 l 750 1000 l 750 875 m 750 125 l 125 125 l 125 250 l 0 250 l 0 750 l 250 750 l 250 250 l 625 250 l 625 750 l 875 750 l 875 250 l 750 250 l 750 125"},"Ų":{"x_min":0,"x_max":875,"ha":1000,"o":"m 625 1000 l 875 1000 l 875 500 l 750 500 l 750 375 l 500 375 l 500 250 l 375 250 l 375 375 l 125 375 l 125 500 l 0 500 l 0 1000 l 250 1000 l 250 500 l 625 500 l 625 1000 m 250 125 l 250 250 l 375 250 l 375 125 l 250 125 m 625 0 l 375 0 l 375 125 l 625 125 l 625 0"},"Ů":{"x_min":0,"x_max":875,"ha":1000,"o":"m 750 125 l 125 125 l 125 250 l 0 250 l 0 750 l 125 750 l 125 875 l 250 875 l 250 1000 l 625 1000 l 625 875 l 750 875 l 750 750 l 875 750 l 875 250 l 750 250 l 750 125 m 375 875 l 375 750 l 500 750 l 500 875 l 375 875 m 250 625 l 250 250 l 625 250 l 625 625 l 750 625 l 750 750 l 625 750 l 625 625 l 250 625 l 250 750 l 125 750 l 125 625 l 250 625"},"Ũ":{"x_min":0,"x_max":875,"ha":1000,"o":"m 375 750 l 375 875 l 250 875 l 250 1000 l 500 1000 l 500 875 l 625 875 l 625 750 l 375 750 m 750 1000 l 750 875 l 625 875 l 625 1000 l 750 1000 m 625 750 l 875 750 l 875 250 l 750 250 l 750 125 l 125 125 l 125 250 l 0 250 l 0 750 l 125 750 l 125 875 l 250 875 l 250 250 l 625 250 l 625 750"},"V":{"x_min":0,"x_max":875,"ha":1000,"o":"m 500 125 l 375 125 l 375 250 l 250 250 l 250 375 l 125 375 l 125 500 l 0 500 l 0 1000 l 250 1000 l 250 625 l 375 625 l 375 500 l 500 500 l 500 625 l 625 625 l 625 1000 l 875 1000 l 875 500 l 750 500 l 750 375 l 625 375 l 625 250 l 500 250 l 500 125"},"W":{"x_min":0,"x_max":875,"ha":1000,"o":"m 250 125 l 125 125 l 125 250 l 0 250 l 0 1000 l 250 1000 l 250 500 l 375 500 l 375 1000 l 500 1000 l 500 500 l 625 500 l 625 1000 l 875 1000 l 875 250 l 750 250 l 750 125 l 625 125 l 625 250 l 500 250 l 500 375 l 375 375 l 375 250 l 250 250 l 250 125"},"Ŵ":{"x_min":0,"x_max":875,"ha":1000,"o":"m 375 125 l 0 125 l 0 750 l 125 750 l 125 875 l 250 875 l 250 1000 l 625 1000 l 625 875 l 750 875 l 750 750 l 875 750 l 875 125 l 500 125 l 500 250 l 375 250 l 375 125 m 250 750 l 250 500 l 375 500 l 375 625 l 500 625 l 500 500 l 625 500 l 625 750 l 500 750 l 500 875 l 375 875 l 375 750 l 250 750"},"X":{"x_min":0,"x_max":875,"ha":1000,"o":"m 250 125 l 0 125 l 0 375 l 125 375 l 125 500 l 250 500 l 250 625 l 125 625 l 125 750 l 0 750 l 0 1000 l 250 1000 l 250 750 l 375 750 l 375 625 l 500 625 l 500 750 l 625 750 l 625 1000 l 875 1000 l 875 750 l 750 750 l 750 625 l 625 625 l 625 500 l 750 500 l 750 375 l 875 375 l 875 125 l 625 125 l 625 375 l 500 375 l 500 500 l 375 500 l 375 375 l 250 375 l 250 125"},"Y":{"x_min":125,"x_max":875,"ha":1000,"o":"m 625 125 l 375 125 l 375 500 l 250 500 l 250 625 l 125 625 l 125 1000 l 375 1000 l 375 625 l 625 625 l 625 1000 l 875 1000 l 875 625 l 750 625 l 750 500 l 625 500 l 625 125"},"Ý":{"x_min":125,"x_max":875,"ha":1000,"o":"m 625 1000 l 625 875 l 500 875 l 500 1000 l 625 1000 m 500 875 l 500 750 l 375 750 l 375 875 l 500 875 m 625 750 l 875 750 l 875 500 l 750 500 l 750 375 l 625 375 l 625 125 l 375 125 l 375 375 l 250 375 l 250 500 l 125 500 l 125 750 l 375 750 l 375 500 l 625 500 l 625 750"},"Ŷ":{"x_min":125,"x_max":875,"ha":1000,"o":"m 625 125 l 375 125 l 375 375 l 250 375 l 250 500 l 125 500 l 125 750 l 250 750 l 250 875 l 375 875 l 375 1000 l 625 1000 l 625 875 l 750 875 l 750 750 l 875 750 l 875 500 l 750 500 l 750 375 l 625 375 l 625 125 m 375 875 l 375 500 l 625 500 l 625 875 l 375 875"},"Ÿ":{"x_min":125,"x_max":875,"ha":1000,"o":"m 375 875 l 125 875 l 125 1000 l 375 1000 l 375 875 m 875 875 l 625 875 l 625 1000 l 875 1000 l 875 875 m 625 125 l 375 125 l 375 375 l 250 375 l 250 500 l 125 500 l 125 750 l 375 750 l 375 500 l 625 500 l 625 750 l 875 750 l 875 500 l 750 500 l 750 375 l 625 375 l 625 125"},"Z":{"x_min":0,"x_max":875,"ha":1000,"o":"m 875 125 l 0 125 l 0 375 l 125 375 l 125 500 l 250 500 l 250 625 l 375 625 l 375 750 l 500 750 l 500 875 l 0 875 l 0 1000 l 875 1000 l 875 750 l 750 750 l 750 625 l 625 625 l 625 500 l 500 500 l 500 375 l 375 375 l 375 250 l 875 250 l 875 125"},"Ź":{"x_min":0,"x_max":875,"ha":1000,"o":"m 625 1000 l 625 875 l 500 875 l 500 1000 l 625 1000 m 500 750 l 875 750 l 875 625 l 750 625 l 750 500 l 625 500 l 625 375 l 500 375 l 500 250 l 875 250 l 875 125 l 0 125 l 0 250 l 125 250 l 125 375 l 250 375 l 250 500 l 375 500 l 375 625 l 0 625 l 0 750 l 375 750 l 375 875 l 500 875 l 500 750"},"Ž":{"x_min":0,"x_max":875,"ha":1000,"o":"m 875 125 l 0 125 l 0 250 l 125 250 l 125 375 l 250 375 l 250 500 l 375 500 l 375 625 l 0 625 l 0 750 l 250 750 l 250 875 l 125 875 l 125 1000 l 375 1000 l 375 875 l 500 875 l 500 1000 l 750 1000 l 750 875 l 625 875 l 625 750 l 875 750 l 875 625 l 750 625 l 750 500 l 625 500 l 625 375 l 500 375 l 500 250 l 875 250 l 875 125"},"Ż":{"x_min":0,"x_max":875,"ha":1000,"o":"m 625 875 l 375 875 l 375 1000 l 625 1000 l 625 875 m 875 125 l 0 125 l 0 250 l 125 250 l 125 375 l 250 375 l 250 500 l 375 500 l 375 625 l 0 625 l 0 750 l 875 750 l 875 625 l 750 625 l 750 500 l 625 500 l 625 375 l 500 375 l 500 250 l 875 250 l 875 125"},"a":{"x_min":0,"x_max":875,"ha":1000,"o":"m 875 125 l 125 125 l 125 250 l 0 250 l 0 375 l 125 375 l 125 500 l 625 500 l 625 625 l 125 625 l 125 750 l 750 750 l 750 625 l 875 625 l 875 125 m 250 375 l 250 250 l 625 250 l 625 375 l 250 375"},"á":{"x_min":0,"x_max":875,"ha":1000,"o":"m 625 1000 l 625 875 l 500 875 l 500 1000 l 625 1000 m 750 625 l 875 625 l 875 125 l 125 125 l 125 250 l 0 250 l 0 375 l 125 375 l 125 500 l 625 500 l 625 625 l 125 625 l 125 750 l 375 750 l 375 875 l 500 875 l 500 750 l 750 750 l 750 625 m 625 250 l 625 375 l 250 375 l 250 250 l 625 250"},"ă":{"x_min":0,"x_max":875,"ha":1000,"o":"m 125 1000 l 250 1000 l 250 875 l 125 875 l 125 1000 m 750 1000 l 750 875 l 625 875 l 625 1000 l 750 1000 m 750 625 l 875 625 l 875 125 l 125 125 l 125 250 l 0 250 l 0 375 l 125 375 l 125 500 l 625 500 l 625 625 l 125 625 l 125 750 l 250 750 l 250 875 l 625 875 l 625 750 l 750 750 l 750 625 m 625 250 l 625 375 l 250 375 l 250 250 l 625 250"},"â":{"x_min":0,"x_max":875,"ha":1000,"o":"m 875 125 l 125 125 l 125 250 l 0 250 l 0 375 l 125 375 l 125 500 l 625 500 l 625 625 l 125 625 l 125 875 l 250 875 l 250 1000 l 625 1000 l 625 875 l 750 875 l 750 625 l 875 625 l 875 125 m 375 875 l 375 750 l 500 750 l 500 875 l 375 875 m 250 375 l 250 250 l 625 250 l 625 375 l 250 375"},"ä":{"x_min":0,"x_max":875,"ha":1000,"o":"m 375 875 l 125 875 l 125 1000 l 375 1000 l 375 875 m 750 875 l 500 875 l 500 1000 l 750 1000 l 750 875 m 875 125 l 125 125 l 125 250 l 0 250 l 0 375 l 125 375 l 125 500 l 625 500 l 625 625 l 125 625 l 125 750 l 750 750 l 750 625 l 875 625 l 875 125 m 250 375 l 250 250 l 625 250 l 625 375 l 250 375"},"à":{"x_min":0,"x_max":875,"ha":1000,"o":"m 250 1000 l 375 1000 l 375 875 l 250 875 l 250 1000 m 750 625 l 875 625 l 875 125 l 125 125 l 125 250 l 0 250 l 0 375 l 125 375 l 125 500 l 625 500 l 625 625 l 125 625 l 125 750 l 375 750 l 375 875 l 500 875 l 500 750 l 750 750 l 750 625 m 625 250 l 625 375 l 250 375 l 250 250 l 625 250"},"ā":{"x_min":0,"x_max":875,"ha":1000,"o":"m 750 875 l 125 875 l 125 1000 l 750 1000 l 750 875 m 875 125 l 125 125 l 125 250 l 0 250 l 0 375 l 125 375 l 125 500 l 625 500 l 625 625 l 125 625 l 125 750 l 750 750 l 750 625 l 875 625 l 875 125 m 250 375 l 250 250 l 625 250 l 625 375 l 250 375"},"ą":{"x_min":0,"x_max":875,"ha":1000,"o":"m 750 875 l 875 875 l 875 375 l 500 375 l 500 250 l 375 250 l 375 375 l 125 375 l 125 500 l 0 500 l 0 625 l 125 625 l 125 750 l 625 750 l 625 875 l 125 875 l 125 1000 l 750 1000 l 750 875 m 625 500 l 625 625 l 250 625 l 250 500 l 625 500 m 250 125 l 250 250 l 375 250 l 375 125 l 250 125 m 625 0 l 375 0 l 375 125 l 625 125 l 625 0"},"å":{"x_min":0,"x_max":875,"ha":1000,"o":"m 875 125 l 125 125 l 125 250 l 0 250 l 0 375 l 125 375 l 125 500 l 625 500 l 625 625 l 125 625 l 125 750 l 250 750 l 250 875 l 375 875 l 375 1000 l 500 1000 l 500 875 l 625 875 l 625 750 l 750 750 l 750 625 l 875 625 l 875 125 m 375 875 l 375 750 l 500 750 l 500 875 l 375 875 m 250 375 l 250 250 l 625 250 l 625 375 l 250 375"},"ã":{"x_min":0,"x_max":875,"ha":1000,"o":"m 875 125 l 125 125 l 125 250 l 0 250 l 0 375 l 125 375 l 125 500 l 625 500 l 625 625 l 125 625 l 125 875 l 250 875 l 250 1000 l 500 1000 l 500 875 l 625 875 l 625 1000 l 750 1000 l 750 875 l 625 875 l 625 750 l 750 750 l 750 625 l 875 625 l 875 125 m 250 875 l 250 750 l 375 750 l 375 875 l 250 875 m 250 375 l 250 250 l 625 250 l 625 375 l 250 375"},"æ":{"x_min":0,"x_max":875,"ha":1000,"o":"m 750 125 l 125 125 l 125 250 l 0 250 l 0 375 l 125 375 l 125 500 l 375 500 l 375 625 l 125 625 l 125 750 l 750 750 l 750 625 l 875 625 l 875 375 l 500 375 l 500 250 l 750 250 l 750 125 m 500 625 l 500 500 l 625 500 l 625 625 l 500 625 m 250 375 l 250 250 l 375 250 l 375 375 l 250 375"},"b":{"x_min":0,"x_max":875,"ha":1000,"o":"m 750 125 l 125 125 l 125 250 l 0 250 l 0 1000 l 250 1000 l 250 750 l 750 750 l 750 625 l 875 625 l 875 250 l 750 250 l 750 125 m 250 625 l 250 250 l 625 250 l 625 625 l 250 625"},"c":{"x_min":0,"x_max":875,"ha":1000,"o":"m 875 125 l 125 125 l 125 250 l 0 250 l 0 625 l 125 625 l 125 750 l 875 750 l 875 625 l 250 625 l 250 250 l 875 250 l 875 125"},"ć":{"x_min":0,"x_max":875,"ha":1000,"o":"m 625 1000 l 625 875 l 500 875 l 500 1000 l 625 1000 m 500 750 l 875 750 l 875 625 l 250 625 l 250 250 l 875 250 l 875 125 l 125 125 l 125 250 l 0 250 l 0 625 l 125 625 l 125 750 l 375 750 l 375 875 l 500 875 l 500 750"},"č":{"x_min":0,"x_max":875,"ha":1000,"o":"m 875 125 l 125 125 l 125 250 l 0 250 l 0 625 l 125 625 l 125 750 l 250 750 l 250 875 l 125 875 l 125 1000 l 375 1000 l 375 875 l 500 875 l 500 1000 l 750 1000 l 750 875 l 625 875 l 625 750 l 875 750 l 875 625 l 250 625 l 250 250 l 875 250 l 875 125"},"ç":{"x_min":0,"x_max":875,"ha":1000,"o":"m 125 750 l 875 750 l 875 625 l 250 625 l 250 375 l 875 375 l 875 250 l 625 250 l 625 125 l 500 125 l 500 250 l 125 250 l 125 375 l 0 375 l 0 625 l 125 625 l 125 750 m 250 0 l 250 125 l 500 125 l 500 0 l 250 0"},"ĉ":{"x_min":0,"x_max":875,"ha":1000,"o":"m 875 125 l 125 125 l 125 250 l 0 250 l 0 625 l 125 625 l 125 875 l 250 875 l 250 1000 l 625 1000 l 625 875 l 750 875 l 750 750 l 875 750 l 875 625 l 250 625 l 250 250 l 875 250 l 875 125 m 375 875 l 375 750 l 500 750 l 500 875 l 375 875"},"ċ":{"x_min":0,"x_max":875,"ha":1000,"o":"m 625 875 l 375 875 l 375 1000 l 625 1000 l 625 875 m 875 125 l 125 125 l 125 250 l 0 250 l 0 625 l 125 625 l 125 750 l 875 750 l 875 625 l 250 625 l 250 250 l 875 250 l 875 125"},"d":{"x_min":0,"x_max":875,"ha":1000,"o":"m 875 125 l 125 125 l 125 250 l 0 250 l 0 625 l 125 625 l 125 750 l 625 750 l 625 1000 l 875 1000 l 875 125 m 250 625 l 250 250 l 625 250 l 625 625 l 250 625"},"ð":{"x_min":0,"x_max":875,"ha":1000,"o":"m 750 500 l 875 500 l 875 250 l 750 250 l 750 125 l 125 125 l 125 250 l 0 250 l 0 500 l 125 500 l 125 625 l 375 625 l 375 750 l 125 750 l 125 1000 l 375 1000 l 375 875 l 625 875 l 625 625 l 750 625 l 750 500 m 750 1000 l 750 875 l 625 875 l 625 1000 l 750 1000 m 0 750 l 125 750 l 125 625 l 0 625 l 0 750 m 625 250 l 625 500 l 250 500 l 250 250 l 625 250"},"ď":{"x_min":0,"x_max":1000,"ha":1000,"o":"m 625 125 l 125 125 l 125 250 l 0 250 l 0 625 l 125 625 l 125 750 l 375 750 l 375 1000 l 625 1000 l 625 125 m 875 625 l 750 625 l 750 1000 l 1000 1000 l 1000 750 l 875 750 l 875 625 m 250 625 l 250 250 l 375 250 l 375 625 l 250 625"},"đ":{"x_min":0,"x_max":875,"ha":1000,"o":"m 750 125 l 125 125 l 125 250 l 0 250 l 0 625 l 125 625 l 125 750 l 375 750 l 375 875 l 500 875 l 500 1000 l 750 1000 l 750 875 l 875 875 l 875 750 l 750 750 l 750 125 m 250 625 l 250 250 l 500 250 l 500 625 l 250 625"},"e":{"x_min":0,"x_max":875,"ha":1000,"o":"m 750 125 l 125 125 l 125 250 l 0 250 l 0 625 l 125 625 l 125 750 l 750 750 l 750 625 l 875 625 l 875 375 l 250 375 l 250 250 l 750 250 l 750 125 m 250 625 l 250 500 l 625 500 l 625 625 l 250 625"},"é":{"x_min":0,"x_max":875,"ha":1000,"o":"m 625 1000 l 625 875 l 500 875 l 500 1000 l 625 1000 m 750 625 l 875 625 l 875 375 l 250 375 l 250 250 l 750 250 l 750 125 l 125 125 l 125 250 l 0 250 l 0 625 l 125 625 l 125 750 l 375 750 l 375 875 l 500 875 l 500 750 l 750 750 l 750 625 m 625 500 l 625 625 l 250 625 l 250 500 l 625 500"},"ĕ":{"x_min":0,"x_max":875,"ha":1000,"o":"m 125 1000 l 250 1000 l 250 875 l 125 875 l 125 1000 m 750 1000 l 750 875 l 625 875 l 625 1000 l 750 1000 m 750 625 l 875 625 l 875 375 l 250 375 l 250 250 l 750 250 l 750 125 l 125 125 l 125 250 l 0 250 l 0 625 l 125 625 l 125 750 l 250 750 l 250 875 l 625 875 l 625 750 l 750 750 l 750 625 m 625 500 l 625 625 l 250 625 l 250 500 l 625 500"},"ě":{"x_min":0,"x_max":875,"ha":1000,"o":"m 750 125 l 125 125 l 125 250 l 0 250 l 0 625 l 125 625 l 125 750 l 250 750 l 250 875 l 125 875 l 125 1000 l 375 1000 l 375 875 l 500 875 l 500 1000 l 750 1000 l 750 875 l 625 875 l 625 750 l 750 750 l 750 625 l 875 625 l 875 375 l 250 375 l 250 250 l 750 250 l 750 125 m 250 625 l 250 500 l 625 500 l 625 625 l 250 625"},"ê":{"x_min":0,"x_max":875,"ha":1000,"o":"m 750 125 l 125 125 l 125 250 l 0 250 l 0 625 l 125 625 l 125 875 l 250 875 l 250 1000 l 625 1000 l 625 875 l 750 875 l 750 625 l 875 625 l 875 375 l 250 375 l 250 250 l 750 250 l 750 125 m 375 875 l 375 750 l 500 750 l 500 875 l 375 875 m 250 625 l 250 500 l 625 500 l 625 625 l 250 625"},"ë":{"x_min":0,"x_max":875,"ha":1000,"o":"m 375 875 l 125 875 l 125 1000 l 375 1000 l 375 875 m 750 875 l 500 875 l 500 1000 l 750 1000 l 750 875 m 750 125 l 125 125 l 125 250 l 0 250 l 0 625 l 125 625 l 125 750 l 750 750 l 750 625 l 875 625 l 875 375 l 250 375 l 250 250 l 750 250 l 750 125 m 250 625 l 250 500 l 625 500 l 625 625 l 250 625"},"ė":{"x_min":0,"x_max":875,"ha":1000,"o":"m 625 875 l 375 875 l 375 1000 l 625 1000 l 625 875 m 750 125 l 125 125 l 125 250 l 0 250 l 0 625 l 125 625 l 125 750 l 750 750 l 750 625 l 875 625 l 875 375 l 250 375 l 250 250 l 750 250 l 750 125 m 250 625 l 250 500 l 625 500 l 625 625 l 250 625"},"è":{"x_min":0,"x_max":875,"ha":1000,"o":"m 250 1000 l 375 1000 l 375 875 l 250 875 l 250 1000 m 750 625 l 875 625 l 875 375 l 250 375 l 250 250 l 750 250 l 750 125 l 125 125 l 125 250 l 0 250 l 0 625 l 125 625 l 125 750 l 375 750 l 375 875 l 500 875 l 500 750 l 750 750 l 750 625 m 625 500 l 625 625 l 250 625 l 250 500 l 625 500"},"ē":{"x_min":0,"x_max":875,"ha":1000,"o":"m 750 875 l 125 875 l 125 1000 l 750 1000 l 750 875 m 750 125 l 125 125 l 125 250 l 0 250 l 0 625 l 125 625 l 125 750 l 750 750 l 750 625 l 875 625 l 875 375 l 250 375 l 250 250 l 750 250 l 750 125 m 250 625 l 250 500 l 625 500 l 625 625 l 250 625"},"ę":{"x_min":0,"x_max":875,"ha":1000,"o":"m 750 875 l 875 875 l 875 625 l 250 625 l 250 500 l 750 500 l 750 375 l 500 375 l 500 250 l 375 250 l 375 375 l 125 375 l 125 500 l 0 500 l 0 875 l 125 875 l 125 1000 l 750 1000 l 750 875 m 625 750 l 625 875 l 250 875 l 250 750 l 625 750 m 250 125 l 250 250 l 375 250 l 375 125 l 250 125 m 625 0 l 375 0 l 375 125 l 625 125 l 625 0"},"f":{"x_min":125,"x_max":875,"ha":1000,"o":"m 625 125 l 375 125 l 375 625 l 125 625 l 125 750 l 375 750 l 375 875 l 500 875 l 500 1000 l 875 1000 l 875 875 l 625 875 l 625 750 l 875 750 l 875 625 l 625 625 l 625 125"},"g":{"x_min":0,"x_max":875,"ha":1000,"o":"m 750 0 l 125 0 l 125 125 l 625 125 l 625 250 l 125 250 l 125 375 l 0 375 l 0 625 l 125 625 l 125 750 l 875 750 l 875 125 l 750 125 l 750 0 m 250 625 l 250 375 l 625 375 l 625 625 l 250 625"},"ğ":{"x_min":0,"x_max":875,"ha":1000,"o":"m 125 1000 l 250 1000 l 250 875 l 125 875 l 125 1000 m 750 1000 l 750 875 l 625 875 l 625 1000 l 750 1000 m 625 750 l 875 750 l 875 125 l 750 125 l 750 0 l 125 0 l 125 125 l 625 125 l 625 250 l 125 250 l 125 375 l 0 375 l 0 625 l 125 625 l 125 750 l 250 750 l 250 875 l 625 875 l 625 750 m 625 375 l 625 625 l 250 625 l 250 375 l 625 375"},"ĝ":{"x_min":0,"x_max":875,"ha":1000,"o":"m 750 0 l 125 0 l 125 125 l 625 125 l 625 250 l 125 250 l 125 375 l 0 375 l 0 625 l 125 625 l 125 875 l 250 875 l 250 1000 l 625 1000 l 625 875 l 750 875 l 750 750 l 875 750 l 875 125 l 750 125 l 750 0 m 375 875 l 375 750 l 500 750 l 500 875 l 375 875 m 250 625 l 250 375 l 625 375 l 625 625 l 250 625"},"ģ":{"x_min":0,"x_max":875,"ha":1000,"o":"m 750 0 l 125 0 l 125 125 l 625 125 l 625 250 l 125 250 l 125 375 l 0 375 l 0 625 l 125 625 l 125 750 l 250 750 l 250 875 l 375 875 l 375 1000 l 625 1000 l 625 875 l 500 875 l 500 750 l 875 750 l 875 125 l 750 125 l 750 0 m 250 625 l 250 375 l 625 375 l 625 625 l 250 625"},"ġ":{"x_min":0,"x_max":875,"ha":1000,"o":"m 625 875 l 375 875 l 375 1000 l 625 1000 l 625 875 m 750 0 l 125 0 l 125 125 l 625 125 l 625 250 l 125 250 l 125 375 l 0 375 l 0 625 l 125 625 l 125 750 l 875 750 l 875 125 l 750 125 l 750 0 m 250 625 l 250 375 l 625 375 l 625 625 l 250 625"},"h":{"x_min":0,"x_max":875,"ha":1000,"o":"m 250 125 l 0 125 l 0 1000 l 250 1000 l 250 750 l 750 750 l 750 625 l 875 625 l 875 125 l 625 125 l 625 625 l 250 625 l 250 125"},"ħ":{"x_min":0,"x_max":875,"ha":1000,"o":"m 375 125 l 125 125 l 125 750 l 0 750 l 0 875 l 125 875 l 125 1000 l 375 1000 l 375 875 l 625 875 l 625 750 l 375 750 l 375 625 l 750 625 l 750 500 l 875 500 l 875 125 l 625 125 l 625 500 l 375 500 l 375 125"},"ĥ":{"x_min":0,"x_max":875,"ha":1000,"o":"m 250 125 l 0 125 l 0 875 l 250 875 l 250 1000 l 625 1000 l 625 875 l 750 875 l 750 750 l 500 750 l 500 875 l 375 875 l 375 750 l 250 750 l 250 625 l 750 625 l 750 500 l 875 500 l 875 125 l 625 125 l 625 500 l 250 500 l 250 125"},"i":{"x_min":125,"x_max":875,"ha":1000,"o":"m 625 875 l 375 875 l 375 1000 l 625 1000 l 625 875 m 875 125 l 125 125 l 125 250 l 375 250 l 375 625 l 250 625 l 250 750 l 625 750 l 625 250 l 875 250 l 875 125"},"ı":{"x_min":125,"x_max":875,"ha":1000,"o":"m 875 125 l 125 125 l 125 250 l 375 250 l 375 625 l 250 625 l 250 750 l 625 750 l 625 250 l 875 250 l 875 125"},"í":{"x_min":125,"x_max":875,"ha":1000,"o":"m 625 1000 l 625 875 l 500 875 l 500 1000 l 625 1000 m 500 875 l 500 750 l 375 750 l 375 875 l 500 875 m 625 250 l 875 250 l 875 125 l 125 125 l 125 250 l 375 250 l 375 500 l 250 500 l 250 625 l 625 625 l 625 250"},"ĭ":{"x_min":125,"x_max":875,"ha":1000,"o":"m 250 1000 l 250 875 l 125 875 l 125 1000 l 250 1000 m 750 1000 l 750 875 l 625 875 l 625 1000 l 750 1000 m 625 750 l 250 750 l 250 875 l 625 875 l 625 750 m 625 250 l 875 250 l 875 125 l 125 125 l 125 250 l 375 250 l 375 500 l 250 500 l 250 625 l 625 625 l 625 250"},"î":{"x_min":125,"x_max":875,"ha":1000,"o":"m 375 750 l 125 750 l 125 875 l 250 875 l 250 1000 l 625 1000 l 625 875 l 750 875 l 750 750 l 500 750 l 500 875 l 375 875 l 375 750 m 875 125 l 125 125 l 125 250 l 375 250 l 375 500 l 250 500 l 250 625 l 625 625 l 625 250 l 875 250 l 875 125"},"ï":{"x_min":125,"x_max":875,"ha":1000,"o":"m 375 875 l 125 875 l 125 1000 l 375 1000 l 375 875 m 750 875 l 500 875 l 500 1000 l 750 1000 l 750 875 m 875 125 l 125 125 l 125 250 l 375 250 l 375 625 l 250 625 l 250 750 l 625 750 l 625 250 l 875 250 l 875 125"},"ì":{"x_min":125,"x_max":875,"ha":1000,"o":"m 375 1000 l 375 875 l 250 875 l 250 1000 l 375 1000 m 500 750 l 375 750 l 375 875 l 500 875 l 500 750 m 625 250 l 875 250 l 875 125 l 125 125 l 125 250 l 375 250 l 375 500 l 250 500 l 250 625 l 625 625 l 625 250"},"ĳ":{"x_min":0,"x_max":875,"ha":1000,"o":"m 375 875 l 125 875 l 125 1000 l 375 1000 l 375 875 m 875 875 l 625 875 l 625 1000 l 875 1000 l 875 875 m 375 250 l 125 250 l 125 625 l 0 625 l 0 750 l 375 750 l 375 250 m 750 0 l 250 0 l 250 125 l 625 125 l 625 625 l 500 625 l 500 750 l 875 750 l 875 125 l 750 125 l 750 0"},"ī":{"x_min":125,"x_max":875,"ha":1000,"o":"m 750 875 l 125 875 l 125 1000 l 750 1000 l 750 875 m 875 125 l 125 125 l 125 250 l 375 250 l 375 625 l 250 625 l 250 750 l 625 750 l 625 250 l 875 250 l 875 125"},"į":{"x_min":125,"x_max":875,"ha":1000,"o":"m 625 1000 l 625 875 l 375 875 l 375 1000 l 625 1000 m 625 500 l 875 500 l 875 375 l 500 375 l 500 250 l 375 250 l 375 375 l 125 375 l 125 500 l 375 500 l 375 625 l 250 625 l 250 750 l 625 750 l 625 500 m 250 125 l 250 250 l 375 250 l 375 125 l 250 125 m 625 0 l 375 0 l 375 125 l 625 125 l 625 0"},"ĩ":{"x_min":125,"x_max":875,"ha":1000,"o":"m 250 1000 l 500 1000 l 500 875 l 250 875 l 250 1000 m 750 1000 l 875 1000 l 875 875 l 750 875 l 750 1000 m 125 750 l 125 875 l 250 875 l 250 750 l 125 750 m 500 750 l 500 875 l 750 875 l 750 750 l 500 750 m 625 625 l 625 250 l 875 250 l 875 125 l 125 125 l 125 250 l 375 250 l 375 500 l 250 500 l 250 625 l 625 625"},"j":{"x_min":125,"x_max":750,"ha":1000,"o":"m 750 875 l 500 875 l 500 1000 l 750 1000 l 750 875 m 625 0 l 125 0 l 125 125 l 500 125 l 500 625 l 375 625 l 375 750 l 750 750 l 750 125 l 625 125 l 625 0"},"ĵ":{"x_min":125,"x_max":875,"ha":1000,"o":"m 500 750 l 250 750 l 250 875 l 375 875 l 375 1000 l 750 1000 l 750 875 l 875 875 l 875 750 l 625 750 l 625 875 l 500 875 l 500 750 m 625 0 l 125 0 l 125 125 l 500 125 l 500 500 l 375 500 l 375 625 l 750 625 l 750 125 l 625 125 l 625 0"},"k":{"x_min":0,"x_max":875,"ha":1000,"o":"m 250 125 l 0 125 l 0 1000 l 250 1000 l 250 500 l 500 500 l 500 625 l 625 625 l 625 750 l 875 750 l 875 625 l 750 625 l 750 500 l 625 500 l 625 375 l 750 375 l 750 250 l 875 250 l 875 125 l 625 125 l 625 250 l 500 250 l 500 375 l 250 375 l 250 125"},"ķ":{"x_min":0,"x_max":875,"ha":1000,"o":"m 250 250 l 0 250 l 0 1000 l 250 1000 l 250 625 l 500 625 l 500 750 l 625 750 l 625 875 l 875 875 l 875 750 l 750 750 l 750 625 l 625 625 l 625 500 l 750 500 l 750 375 l 875 375 l 875 250 l 625 250 l 625 375 l 500 375 l 500 500 l 250 500 l 250 250 m 375 0 l 125 0 l 125 125 l 250 125 l 250 250 l 500 250 l 500 125 l 375 125 l 375 0"},"ĸ":{"x_min":0,"x_max":875,"ha":1000,"o":"m 250 125 l 0 125 l 0 750 l 250 750 l 250 500 l 500 500 l 500 625 l 625 625 l 625 750 l 875 750 l 875 625 l 750 625 l 750 500 l 625 500 l 625 375 l 750 375 l 750 250 l 875 250 l 875 125 l 625 125 l 625 250 l 500 250 l 500 375 l 250 375 l 250 125"},"l":{"x_min":125,"x_max":875,"ha":1000,"o":"m 875 125 l 125 125 l 125 250 l 375 250 l 375 875 l 250 875 l 250 1000 l 625 1000 l 625 250 l 875 250 l 875 125"},"ĺ":{"x_min":0,"x_max":750,"ha":1000,"o":"m 500 1000 l 500 875 l 375 875 l 375 1000 l 500 1000 m 500 250 l 750 250 l 750 125 l 0 125 l 0 250 l 250 250 l 250 625 l 125 625 l 125 750 l 250 750 l 250 875 l 375 875 l 375 750 l 500 750 l 500 250"},"ľ":{"x_min":0,"x_max":875,"ha":1000,"o":"m 750 125 l 0 125 l 0 250 l 250 250 l 250 875 l 125 875 l 125 1000 l 500 1000 l 500 250 l 750 250 l 750 125 m 750 625 l 625 625 l 625 1000 l 875 1000 l 875 750 l 750 750 l 750 625"},"ļ":{"x_min":125,"x_max":875,"ha":1000,"o":"m 500 0 l 250 0 l 250 125 l 375 125 l 375 250 l 125 250 l 125 375 l 375 375 l 375 875 l 250 875 l 250 1000 l 625 1000 l 625 375 l 875 375 l 875 250 l 625 250 l 625 125 l 500 125 l 500 0"},"ŀ":{"x_min":0,"x_max":875,"ha":1000,"o":"m 750 125 l 0 125 l 0 250 l 250 250 l 250 875 l 125 875 l 125 1000 l 500 1000 l 500 250 l 750 250 l 750 125 m 875 500 l 625 500 l 625 750 l 875 750 l 875 500"},"ł":{"x_min":125,"x_max":875,"ha":1000,"o":"m 875 125 l 125 125 l 125 250 l 375 250 l 375 500 l 250 500 l 250 625 l 375 625 l 375 875 l 250 875 l 250 1000 l 625 1000 l 625 750 l 750 750 l 750 625 l 625 625 l 625 250 l 875 250 l 875 125"},"m":{"x_min":0,"x_max":875,"ha":1000,"o":"m 125 125 l 0 125 l 0 750 l 750 750 l 750 625 l 875 625 l 875 125 l 625 125 l 625 625 l 500 625 l 500 125 l 250 125 l 250 625 l 125 625 l 125 125"},"n":{"x_min":0,"x_max":875,"ha":1000,"o":"m 250 125 l 0 125 l 0 750 l 750 750 l 750 625 l 875 625 l 875 125 l 625 125 l 625 625 l 250 625 l 250 125"},"ń":{"x_min":0,"x_max":875,"ha":1000,"o":"m 625 1000 l 625 875 l 500 875 l 500 1000 l 625 1000 m 750 625 l 875 625 l 875 125 l 625 125 l 625 625 l 250 625 l 250 125 l 0 125 l 0 750 l 375 750 l 375 875 l 500 875 l 500 750 l 750 750 l 750 625"},"ň":{"x_min":0,"x_max":875,"ha":1000,"o":"m 250 125 l 0 125 l 0 750 l 250 750 l 250 875 l 125 875 l 125 1000 l 375 1000 l 375 875 l 500 875 l 500 1000 l 750 1000 l 750 875 l 625 875 l 625 750 l 750 750 l 750 625 l 875 625 l 875 125 l 625 125 l 625 625 l 250 625 l 250 125"},"ņ":{"x_min":0,"x_max":875,"ha":1000,"o":"m 750 750 l 875 750 l 875 250 l 625 250 l 625 750 l 250 750 l 250 250 l 0 250 l 0 875 l 750 875 l 750 750 m 375 125 l 375 250 l 625 250 l 625 125 l 500 125 l 500 0 l 250 0 l 250 125 l 375 125"},"ŋ":{"x_min":0,"x_max":875,"ha":1000,"o":"m 750 0 l 250 0 l 250 125 l 625 125 l 625 750 l 250 750 l 250 250 l 0 250 l 0 875 l 750 875 l 750 750 l 875 750 l 875 125 l 750 125 l 750 0"},"ñ":{"x_min":0,"x_max":875,"ha":1000,"o":"m 250 125 l 0 125 l 0 750 l 125 750 l 125 875 l 250 875 l 250 1000 l 500 1000 l 500 875 l 625 875 l 625 1000 l 750 1000 l 750 875 l 625 875 l 625 750 l 750 750 l 750 625 l 875 625 l 875 125 l 625 125 l 625 625 l 250 625 l 250 125 m 250 875 l 250 750 l 375 750 l 375 875 l 250 875"},"o":{"x_min":0,"x_max":875,"ha":1000,"o":"m 750 125 l 125 125 l 125 250 l 0 250 l 0 625 l 125 625 l 125 750 l 750 750 l 750 625 l 875 625 l 875 250 l 750 250 l 750 125 m 250 625 l 250 250 l 625 250 l 625 625 l 250 625"},"ó":{"x_min":0,"x_max":875,"ha":1000,"o":"m 625 1000 l 625 875 l 500 875 l 500 1000 l 625 1000 m 750 625 l 875 625 l 875 250 l 750 250 l 750 125 l 125 125 l 125 250 l 0 250 l 0 625 l 125 625 l 125 750 l 375 750 l 375 875 l 500 875 l 500 750 l 750 750 l 750 625 m 625 250 l 625 625 l 250 625 l 250 250 l 625 250"},"ŏ":{"x_min":0,"x_max":875,"ha":1000,"o":"m 125 1000 l 250 1000 l 250 875 l 125 875 l 125 1000 m 750 1000 l 750 875 l 625 875 l 625 1000 l 750 1000 m 750 625 l 875 625 l 875 250 l 750 250 l 750 125 l 125 125 l 125 250 l 0 250 l 0 625 l 125 625 l 125 750 l 250 750 l 250 875 l 625 875 l 625 750 l 750 750 l 750 625 m 625 250 l 625 625 l 250 625 l 250 250 l 625 250"},"ô":{"x_min":0,"x_max":875,"ha":1000,"o":"m 750 125 l 125 125 l 125 250 l 0 250 l 0 625 l 125 625 l 125 875 l 250 875 l 250 1000 l 625 1000 l 625 875 l 750 875 l 750 625 l 875 625 l 875 250 l 750 250 l 750 125 m 375 875 l 375 750 l 500 750 l 500 875 l 375 875 m 250 625 l 250 250 l 625 250 l 625 625 l 250 625"},"ö":{"x_min":0,"x_max":875,"ha":1000,"o":"m 375 875 l 125 875 l 125 1000 l 375 1000 l 375 875 m 750 875 l 500 875 l 500 1000 l 750 1000 l 750 875 m 750 125 l 125 125 l 125 250 l 0 250 l 0 625 l 125 625 l 125 750 l 750 750 l 750 625 l 875 625 l 875 250 l 750 250 l 750 125 m 250 625 l 250 250 l 625 250 l 625 625 l 250 625"},"ò":{"x_min":0,"x_max":875,"ha":1000,"o":"m 250 1000 l 375 1000 l 375 875 l 250 875 l 250 1000 m 750 625 l 875 625 l 875 250 l 750 250 l 750 125 l 125 125 l 125 250 l 0 250 l 0 625 l 125 625 l 125 750 l 375 750 l 375 875 l 500 875 l 500 750 l 750 750 l 750 625 m 625 250 l 625 625 l 250 625 l 250 250 l 625 250"},"ő":{"x_min":0,"x_max":875,"ha":1000,"o":"m 375 1000 l 375 875 l 250 875 l 250 1000 l 375 1000 m 750 1000 l 750 875 l 625 875 l 625 1000 l 750 1000 m 750 625 l 875 625 l 875 250 l 750 250 l 750 125 l 125 125 l 125 250 l 0 250 l 0 625 l 125 625 l 125 875 l 250 875 l 250 750 l 500 750 l 500 875 l 625 875 l 625 750 l 750 750 l 750 625 m 625 250 l 625 625 l 250 625 l 250 250 l 625 250"},"ō":{"x_min":0,"x_max":875,"ha":1000,"o":"m 750 875 l 125 875 l 125 1000 l 750 1000 l 750 875 m 750 125 l 125 125 l 125 250 l 0 250 l 0 625 l 125 625 l 125 750 l 750 750 l 750 625 l 875 625 l 875 250 l 750 250 l 750 125 m 250 625 l 250 250 l 625 250 l 625 625 l 250 625"},"ø":{"x_min":0,"x_max":875,"ha":1000,"o":"m 750 125 l 125 125 l 125 250 l 0 250 l 0 625 l 125 625 l 125 750 l 750 750 l 750 625 l 875 625 l 875 250 l 750 250 l 750 125 m 375 375 l 375 250 l 625 250 l 625 500 l 500 500 l 500 625 l 250 625 l 250 375 l 375 375 m 500 375 l 375 375 l 375 500 l 500 500 l 500 375"},"õ":{"x_min":0,"x_max":875,"ha":1000,"o":"m 750 125 l 125 125 l 125 250 l 0 250 l 0 625 l 125 625 l 125 875 l 250 875 l 250 1000 l 500 1000 l 500 875 l 625 875 l 625 1000 l 750 1000 l 750 875 l 625 875 l 625 750 l 750 750 l 750 625 l 875 625 l 875 250 l 750 250 l 750 125 m 250 875 l 250 750 l 375 750 l 375 875 l 250 875 m 250 625 l 250 250 l 625 250 l 625 625 l 250 625"},"œ":{"x_min":0,"x_max":875,"ha":1000,"o":"m 750 125 l 125 125 l 125 250 l 0 250 l 0 625 l 125 625 l 125 750 l 750 750 l 750 625 l 875 625 l 875 375 l 500 375 l 500 250 l 750 250 l 750 125 m 250 625 l 250 250 l 375 250 l 375 625 l 250 625 m 500 625 l 500 500 l 625 500 l 625 625 l 500 625"},"p":{"x_min":0,"x_max":875,"ha":1000,"o":"m 250 0 l 0 0 l 0 750 l 750 750 l 750 625 l 875 625 l 875 375 l 750 375 l 750 250 l 250 250 l 250 0 m 250 625 l 250 375 l 625 375 l 625 625 l 250 625"},"þ":{"x_min":0,"x_max":875,"ha":1000,"o":"m 250 0 l 0 0 l 0 1000 l 250 1000 l 250 750 l 750 750 l 750 625 l 875 625 l 875 375 l 750 375 l 750 250 l 250 250 l 250 0 m 250 625 l 250 375 l 625 375 l 625 625 l 250 625"},"q":{"x_min":0,"x_max":875,"ha":1000,"o":"m 875 0 l 625 0 l 625 250 l 125 250 l 125 375 l 0 375 l 0 625 l 125 625 l 125 750 l 875 750 l 875 0 m 250 625 l 250 375 l 625 375 l 625 625 l 250 625"},"r":{"x_min":125,"x_max":875,"ha":1000,"o":"m 375 750 l 375 625 l 500 625 l 500 500 l 375 500 l 375 125 l 125 125 l 125 750 l 375 750 m 500 750 l 875 750 l 875 625 l 500 625 l 500 750"},"ŕ":{"x_min":125,"x_max":875,"ha":1000,"o":"m 625 1000 l 625 875 l 500 875 l 500 1000 l 625 1000 m 500 875 l 500 750 l 375 750 l 375 875 l 500 875 m 375 750 l 375 625 l 500 625 l 500 500 l 375 500 l 375 125 l 125 125 l 125 750 l 375 750 m 500 750 l 875 750 l 875 625 l 500 625 l 500 750"},"ř":{"x_min":125,"x_max":875,"ha":1000,"o":"m 375 125 l 125 125 l 125 750 l 375 750 l 375 875 l 250 875 l 250 1000 l 500 1000 l 500 875 l 625 875 l 625 1000 l 875 1000 l 875 875 l 750 875 l 750 750 l 875 750 l 875 625 l 500 625 l 500 500 l 375 500 l 375 125 m 375 750 l 375 625 l 500 625 l 500 750 l 375 750"},"ŗ":{"x_min":125,"x_max":875,"ha":1000,"o":"m 375 875 l 375 750 l 500 750 l 500 625 l 375 625 l 375 250 l 500 250 l 500 125 l 375 125 l 375 0 l 125 0 l 125 125 l 250 125 l 250 250 l 125 250 l 125 875 l 375 875 m 500 875 l 875 875 l 875 750 l 500 750 l 500 875"},"s":{"x_min":0,"x_max":875,"ha":1000,"o":"m 750 125 l 0 125 l 0 250 l 625 250 l 625 375 l 125 375 l 125 500 l 0 500 l 0 625 l 125 625 l 125 750 l 750 750 l 750 625 l 250 625 l 250 500 l 750 500 l 750 375 l 875 375 l 875 250 l 750 250 l 750 125"},"ś":{"x_min":0,"x_max":875,"ha":1000,"o":"m 625 1000 l 625 875 l 500 875 l 500 1000 l 625 1000 m 750 375 l 875 375 l 875 250 l 750 250 l 750 125 l 0 125 l 0 250 l 625 250 l 625 375 l 125 375 l 125 500 l 0 500 l 0 625 l 125 625 l 125 750 l 375 750 l 375 875 l 500 875 l 500 750 l 750 750 l 750 625 l 250 625 l 250 500 l 750 500 l 750 375"},"š":{"x_min":0,"x_max":875,"ha":1000,"o":"m 750 125 l 0 125 l 0 250 l 625 250 l 625 375 l 125 375 l 125 500 l 0 500 l 0 625 l 125 625 l 125 750 l 250 750 l 250 875 l 125 875 l 125 1000 l 375 1000 l 375 875 l 500 875 l 500 1000 l 750 1000 l 750 875 l 625 875 l 625 750 l 750 750 l 750 625 l 250 625 l 250 500 l 750 500 l 750 375 l 875 375 l 875 250 l 750 250 l 750 125"},"ş":{"x_min":0,"x_max":875,"ha":1000,"o":"m 750 500 l 875 500 l 875 375 l 750 375 l 750 250 l 625 250 l 625 125 l 500 125 l 500 250 l 0 250 l 0 375 l 625 375 l 625 500 l 125 500 l 125 625 l 0 625 l 0 750 l 125 750 l 125 875 l 750 875 l 750 750 l 250 750 l 250 625 l 750 625 l 750 500 m 250 0 l 250 125 l 500 125 l 500 0 l 250 0"},"ŝ":{"x_min":0,"x_max":875,"ha":1000,"o":"m 750 125 l 0 125 l 0 250 l 625 250 l 625 375 l 125 375 l 125 500 l 0 500 l 0 625 l 125 625 l 125 875 l 250 875 l 250 1000 l 625 1000 l 625 875 l 750 875 l 750 625 l 250 625 l 250 500 l 750 500 l 750 375 l 875 375 l 875 250 l 750 250 l 750 125 m 375 875 l 375 750 l 500 750 l 500 875 l 375 875"},"ß":{"x_min":125,"x_max":875,"ha":1000,"o":"m 750 875 l 875 875 l 875 625 l 750 625 l 750 500 l 875 500 l 875 250 l 750 250 l 750 125 l 500 125 l 500 250 l 625 250 l 625 500 l 500 500 l 500 625 l 625 625 l 625 875 l 375 875 l 375 375 l 500 375 l 500 250 l 375 250 l 375 125 l 125 125 l 125 875 l 250 875 l 250 1000 l 750 1000 l 750 875"},"ſ":{"x_min":375,"x_max":875,"ha":1000,"o":"m 625 125 l 375 125 l 375 875 l 500 875 l 500 1000 l 875 1000 l 875 875 l 625 875 l 625 125"},"t":{"x_min":125,"x_max":875,"ha":1000,"o":"m 625 125 l 375 125 l 375 625 l 125 625 l 125 750 l 375 750 l 375 1000 l 625 1000 l 625 750 l 875 750 l 875 625 l 625 625 l 625 125"},"ŧ":{"x_min":125,"x_max":875,"ha":1000,"o":"m 625 125 l 375 125 l 375 250 l 250 250 l 250 375 l 375 375 l 375 625 l 125 625 l 125 750 l 375 750 l 375 1000 l 625 1000 l 625 750 l 875 750 l 875 625 l 625 625 l 625 500 l 750 500 l 750 375 l 625 375 l 625 125"},"ť":{"x_min":125,"x_max":875,"ha":1000,"o":"m 250 1000 l 375 1000 l 375 875 l 250 875 l 250 1000 m 750 1000 l 750 875 l 625 875 l 625 1000 l 750 1000 m 625 625 l 875 625 l 875 500 l 625 500 l 625 125 l 375 125 l 375 500 l 125 500 l 125 625 l 375 625 l 375 875 l 625 875 l 625 625"},"ț":{"x_min":125,"x_max":875,"ha":1000,"o":"m 625 750 l 875 750 l 875 625 l 625 625 l 625 125 l 500 125 l 500 250 l 375 250 l 375 625 l 125 625 l 125 750 l 375 750 l 375 1000 l 625 1000 l 625 750 m 250 0 l 250 125 l 500 125 l 500 0 l 250 0"},"u":{"x_min":0,"x_max":875,"ha":1000,"o":"m 875 125 l 125 125 l 125 250 l 0 250 l 0 750 l 250 750 l 250 250 l 625 250 l 625 750 l 875 750 l 875 125"},"ú":{"x_min":0,"x_max":875,"ha":1000,"o":"m 625 1000 l 625 875 l 500 875 l 500 1000 l 625 1000 m 500 875 l 500 750 l 375 750 l 375 875 l 500 875 m 625 750 l 875 750 l 875 125 l 125 125 l 125 250 l 0 250 l 0 750 l 250 750 l 250 250 l 625 250 l 625 750"},"ŭ":{"x_min":0,"x_max":875,"ha":1000,"o":"m 125 1000 l 250 1000 l 250 875 l 125 875 l 125 1000 m 750 1000 l 750 875 l 625 875 l 625 1000 l 750 1000 m 625 875 l 625 750 l 250 750 l 250 875 l 625 875 m 625 750 l 875 750 l 875 125 l 125 125 l 125 250 l 0 250 l 0 750 l 250 750 l 250 250 l 625 250 l 625 750"},"û":{"x_min":0,"x_max":875,"ha":1000,"o":"m 375 750 l 125 750 l 125 875 l 250 875 l 250 1000 l 625 1000 l 625 875 l 750 875 l 750 750 l 500 750 l 500 875 l 375 875 l 375 750 m 875 125 l 125 125 l 125 250 l 0 250 l 0 625 l 250 625 l 250 250 l 625 250 l 625 625 l 875 625 l 875 125"},"ü":{"x_min":0,"x_max":875,"ha":1000,"o":"m 375 875 l 125 875 l 125 1000 l 375 1000 l 375 875 m 750 875 l 500 875 l 500 1000 l 750 1000 l 750 875 m 875 125 l 125 125 l 125 250 l 0 250 l 0 750 l 250 750 l 250 250 l 625 250 l 625 750 l 875 750 l 875 125"},"ù":{"x_min":0,"x_max":875,"ha":1000,"o":"m 375 1000 l 375 875 l 250 875 l 250 1000 l 375 1000 m 500 750 l 375 750 l 375 875 l 500 875 l 500 750 m 625 750 l 875 750 l 875 125 l 125 125 l 125 250 l 0 250 l 0 750 l 250 750 l 250 250 l 625 250 l 625 750"},"ű":{"x_min":0,"x_max":875,"ha":1000,"o":"m 375 1000 l 375 875 l 250 875 l 250 1000 l 375 1000 m 750 1000 l 750 875 l 625 875 l 625 1000 l 750 1000 m 625 750 l 875 750 l 875 125 l 125 125 l 125 250 l 0 250 l 0 750 l 125 750 l 125 875 l 250 875 l 250 250 l 625 250 l 625 750 m 500 875 l 625 875 l 625 750 l 500 750 l 500 875"},"ū":{"x_min":0,"x_max":875,"ha":1000,"o":"m 750 875 l 125 875 l 125 1000 l 750 1000 l 750 875 m 875 125 l 125 125 l 125 250 l 0 250 l 0 750 l 250 750 l 250 250 l 625 250 l 625 750 l 875 750 l 875 125"},"ų":{"x_min":0,"x_max":875,"ha":1000,"o":"m 625 1000 l 875 1000 l 875 375 l 500 375 l 500 250 l 375 250 l 375 375 l 125 375 l 125 500 l 0 500 l 0 1000 l 250 1000 l 250 500 l 625 500 l 625 1000 m 250 125 l 250 250 l 375 250 l 375 125 l 250 125 m 625 0 l 375 0 l 375 125 l 625 125 l 625 0"},"ů":{"x_min":0,"x_max":875,"ha":1000,"o":"m 875 125 l 125 125 l 125 250 l 0 250 l 0 750 l 125 750 l 125 875 l 250 875 l 250 1000 l 625 1000 l 625 875 l 750 875 l 750 750 l 875 750 l 875 125 m 375 875 l 375 750 l 500 750 l 500 875 l 375 875 m 250 625 l 250 250 l 625 250 l 625 625 l 750 625 l 750 750 l 625 750 l 625 625 l 250 625 l 250 750 l 125 750 l 125 625 l 250 625"},"ũ":{"x_min":0,"x_max":875,"ha":1000,"o":"m 375 750 l 375 875 l 250 875 l 250 1000 l 500 1000 l 500 875 l 625 875 l 625 750 l 375 750 m 750 1000 l 750 875 l 625 875 l 625 1000 l 750 1000 m 625 750 l 875 750 l 875 125 l 125 125 l 125 250 l 0 250 l 0 750 l 125 750 l 125 875 l 250 875 l 250 250 l 625 250 l 625 750"},"v":{"x_min":125,"x_max":875,"ha":1000,"o":"m 625 125 l 375 125 l 375 250 l 250 250 l 250 375 l 125 375 l 125 750 l 375 750 l 375 375 l 625 375 l 625 750 l 875 750 l 875 375 l 750 375 l 750 250 l 625 250 l 625 125"},"w":{"x_min":0,"x_max":875,"ha":1000,"o":"m 250 750 l 250 250 l 375 250 l 375 125 l 125 125 l 125 250 l 0 250 l 0 750 l 250 750 m 375 750 l 500 750 l 500 250 l 375 250 l 375 750 m 625 750 l 875 750 l 875 250 l 750 250 l 750 125 l 500 125 l 500 250 l 625 250 l 625 750"},"ŵ":{"x_min":0,"x_max":875,"ha":1000,"o":"m 375 875 l 375 750 l 125 750 l 125 875 l 250 875 l 250 1000 l 625 1000 l 625 875 l 750 875 l 750 750 l 500 750 l 500 875 l 375 875 m 250 625 l 250 250 l 375 250 l 375 125 l 125 125 l 125 250 l 0 250 l 0 625 l 250 625 m 375 625 l 500 625 l 500 250 l 375 250 l 375 625 m 625 625 l 875 625 l 875 250 l 750 250 l 750 125 l 500 125 l 500 250 l 625 250 l 625 625"},"x":{"x_min":0,"x_max":875,"ha":1000,"o":"m 250 125 l 0 125 l 0 250 l 125 250 l 125 375 l 250 375 l 250 500 l 125 500 l 125 625 l 0 625 l 0 750 l 250 750 l 250 625 l 375 625 l 375 500 l 500 500 l 500 625 l 625 625 l 625 750 l 875 750 l 875 625 l 750 625 l 750 500 l 625 500 l 625 375 l 750 375 l 750 250 l 875 250 l 875 125 l 625 125 l 625 250 l 500 250 l 500 375 l 375 375 l 375 250 l 250 250 l 250 125"},"y":{"x_min":0,"x_max":875,"ha":1000,"o":"m 750 0 l 125 0 l 125 125 l 625 125 l 625 250 l 125 250 l 125 375 l 0 375 l 0 750 l 250 750 l 250 375 l 625 375 l 625 750 l 875 750 l 875 125 l 750 125 l 750 0"},"ý":{"x_min":0,"x_max":875,"ha":1000,"o":"m 625 1000 l 625 875 l 500 875 l 500 1000 l 625 1000 m 500 875 l 500 750 l 375 750 l 375 875 l 500 875 m 625 750 l 875 750 l 875 125 l 750 125 l 750 0 l 125 0 l 125 125 l 625 125 l 625 250 l 125 250 l 125 375 l 0 375 l 0 750 l 250 750 l 250 375 l 625 375 l 625 750"},"ŷ":{"x_min":0,"x_max":875,"ha":1000,"o":"m 375 750 l 125 750 l 125 875 l 250 875 l 250 1000 l 625 1000 l 625 875 l 750 875 l 750 750 l 500 750 l 500 875 l 375 875 l 375 750 m 750 0 l 125 0 l 125 125 l 625 125 l 625 250 l 125 250 l 125 375 l 0 375 l 0 625 l 250 625 l 250 375 l 625 375 l 625 625 l 875 625 l 875 125 l 750 125 l 750 0"},"ÿ":{"x_min":0,"x_max":875,"ha":1000,"o":"m 375 875 l 125 875 l 125 1000 l 375 1000 l 375 875 m 750 875 l 500 875 l 500 1000 l 750 1000 l 750 875 m 750 0 l 125 0 l 125 125 l 625 125 l 625 250 l 125 250 l 125 375 l 0 375 l 0 750 l 250 750 l 250 375 l 625 375 l 625 750 l 875 750 l 875 125 l 750 125 l 750 0"},"z":{"x_min":0,"x_max":875,"ha":1000,"o":"m 875 125 l 0 125 l 0 250 l 125 250 l 125 375 l 250 375 l 250 500 l 375 500 l 375 625 l 0 625 l 0 750 l 875 750 l 875 625 l 750 625 l 750 500 l 625 500 l 625 375 l 500 375 l 500 250 l 875 250 l 875 125"},"ź":{"x_min":0,"x_max":875,"ha":1000,"o":"m 625 1000 l 625 875 l 500 875 l 500 1000 l 625 1000 m 500 750 l 875 750 l 875 625 l 750 625 l 750 500 l 625 500 l 625 375 l 500 375 l 500 250 l 875 250 l 875 125 l 0 125 l 0 250 l 125 250 l 125 375 l 250 375 l 250 500 l 375 500 l 375 625 l 0 625 l 0 750 l 375 750 l 375 875 l 500 875 l 500 750"},"ž":{"x_min":0,"x_max":875,"ha":1000,"o":"m 875 125 l 0 125 l 0 250 l 125 250 l 125 375 l 250 375 l 250 500 l 375 500 l 375 625 l 0 625 l 0 750 l 250 750 l 250 875 l 125 875 l 125 1000 l 375 1000 l 375 875 l 500 875 l 500 1000 l 750 1000 l 750 875 l 625 875 l 625 750 l 875 750 l 875 625 l 750 625 l 750 500 l 625 500 l 625 375 l 500 375 l 500 250 l 875 250 l 875 125"},"ż":{"x_min":0,"x_max":875,"ha":1000,"o":"m 625 875 l 375 875 l 375 1000 l 625 1000 l 625 875 m 875 125 l 0 125 l 0 250 l 125 250 l 125 375 l 250 375 l 250 500 l 375 500 l 375 625 l 0 625 l 0 750 l 875 750 l 875 625 l 750 625 l 750 500 l 625 500 l 625 375 l 500 375 l 500 250 l 875 250 l 875 125"},"ﬁ":{"x_min":0,"x_max":875,"ha":1000,"o":"m 375 125 l 125 125 l 125 625 l 0 625 l 0 750 l 125 750 l 125 875 l 250 875 l 250 1000 l 625 1000 l 625 875 l 375 875 l 375 750 l 875 750 l 875 125 l 625 125 l 625 625 l 375 625 l 375 125"},"ﬂ":{"x_min":0,"x_max":875,"ha":1000,"o":"m 375 125 l 125 125 l 125 625 l 0 625 l 0 750 l 125 750 l 125 875 l 250 875 l 250 1000 l 875 1000 l 875 125 l 625 125 l 625 625 l 375 625 l 375 125 m 375 875 l 375 750 l 625 750 l 625 875 l 375 875"},"ª":{"x_min":125,"x_max":750,"ha":1000,"o":"m 750 500 l 250 500 l 250 625 l 125 625 l 125 750 l 250 750 l 250 875 l 125 875 l 125 1000 l 625 1000 l 625 875 l 750 875 l 750 500 m 375 750 l 375 625 l 500 625 l 500 750 l 375 750"},"º":{"x_min":125,"x_max":750,"ha":1000,"o":"m 625 500 l 250 500 l 250 625 l 125 625 l 125 875 l 250 875 l 250 1000 l 625 1000 l 625 875 l 750 875 l 750 625 l 625 625 l 625 500 m 375 875 l 375 625 l 500 625 l 500 875 l 375 875"},"А":{"x_min":0,"x_max":875,"ha":1000,"o":"m 250 125 l 0 125 l 0 750 l 125 750 l 125 875 l 250 875 l 250 1000 l 625 1000 l 625 875 l 750 875 l 750 750 l 875 750 l 875 125 l 625 125 l 625 375 l 250 375 l 250 125 m 250 750 l 250 500 l 625 500 l 625 750 l 500 750 l 500 875 l 375 875 l 375 750 l 250 750"},"Б":{"x_min":0,"x_max":875,"ha":1000,"o":"m 750 125 l 0 125 l 0 1000 l 750 1000 l 750 875 l 250 875 l 250 625 l 750 625 l 750 500 l 875 500 l 875 250 l 750 250 l 750 125 m 250 500 l 250 250 l 625 250 l 625 500 l 250 500"},"В":{"x_min":0,"x_max":875,"ha":1000,"o":"m 750 125 l 0 125 l 0 1000 l 750 1000 l 750 875 l 875 875 l 875 625 l 750 625 l 750 500 l 875 500 l 875 250 l 750 250 l 750 125 m 250 875 l 250 625 l 625 625 l 625 875 l 250 875 m 250 500 l 250 250 l 625 250 l 625 500 l 250 500"},"Г":{"x_min":125,"x_max":875,"ha":1000,"o":"m 375 125 l 125 125 l 125 1000 l 875 1000 l 875 750 l 750 750 l 750 875 l 375 875 l 375 125"},"Ѓ":{"x_min":125,"x_max":875,"ha":1000,"o":"m 625 1000 l 625 875 l 500 875 l 500 1000 l 625 1000 m 500 750 l 875 750 l 875 500 l 750 500 l 750 625 l 375 625 l 375 125 l 125 125 l 125 750 l 375 750 l 375 875 l 500 875 l 500 750"},"Ґ":{"x_min":125,"x_max":875,"ha":1000,"o":"m 625 875 l 625 1000 l 875 1000 l 875 750 l 375 750 l 375 125 l 125 125 l 125 875 l 625 875"},"Д":{"x_min":0,"x_max":1000,"ha":1000,"o":"m 250 0 l 0 0 l 0 250 l 125 250 l 125 500 l 250 500 l 250 1000 l 875 1000 l 875 250 l 1000 250 l 1000 0 l 750 0 l 750 125 l 250 125 l 250 0 m 375 875 l 375 250 l 625 250 l 625 875 l 375 875"},"Е":{"x_min":0,"x_max":875,"ha":1000,"o":"m 875 125 l 0 125 l 0 1000 l 875 1000 l 875 875 l 250 875 l 250 625 l 750 625 l 750 500 l 250 500 l 250 250 l 875 250 l 875 125"},"Ѐ":{"x_min":0,"x_max":875,"ha":1000,"o":"m 250 1000 l 375 1000 l 375 875 l 250 875 l 250 1000 m 500 750 l 875 750 l 875 625 l 250 625 l 250 500 l 750 500 l 750 375 l 250 375 l 250 250 l 875 250 l 875 125 l 0 125 l 0 750 l 375 750 l 375 875 l 500 875 l 500 750"},"Ё":{"x_min":0,"x_max":875,"ha":1000,"o":"m 375 875 l 125 875 l 125 1000 l 375 1000 l 375 875 m 750 875 l 500 875 l 500 1000 l 750 1000 l 750 875 m 875 125 l 0 125 l 0 750 l 875 750 l 875 625 l 250 625 l 250 500 l 750 500 l 750 375 l 250 375 l 250 250 l 875 250 l 875 125"},"Ж":{"x_min":0,"x_max":875,"ha":1000,"o":"m 0 1000 l 250 1000 l 250 625 l 125 625 l 125 750 l 0 750 l 0 1000 m 500 1000 l 500 625 l 625 625 l 625 500 l 500 500 l 500 125 l 375 125 l 375 500 l 250 500 l 250 625 l 375 625 l 375 1000 l 500 1000 m 625 1000 l 875 1000 l 875 750 l 750 750 l 750 625 l 625 625 l 625 1000 m 125 375 l 125 500 l 250 500 l 250 125 l 0 125 l 0 375 l 125 375 m 875 125 l 625 125 l 625 500 l 750 500 l 750 375 l 875 375 l 875 125"},"З":{"x_min":0,"x_max":875,"ha":1000,"o":"m 750 125 l 125 125 l 125 250 l 0 250 l 0 375 l 250 375 l 250 250 l 625 250 l 625 500 l 250 500 l 250 625 l 625 625 l 625 875 l 250 875 l 250 750 l 0 750 l 0 875 l 125 875 l 125 1000 l 750 1000 l 750 875 l 875 875 l 875 625 l 750 625 l 750 500 l 875 500 l 875 250 l 750 250 l 750 125"},"И":{"x_min":0,"x_max":875,"ha":1000,"o":"m 250 125 l 0 125 l 0 1000 l 250 1000 l 250 500 l 375 500 l 375 625 l 500 625 l 500 750 l 625 750 l 625 1000 l 875 1000 l 875 125 l 625 125 l 625 500 l 500 500 l 500 375 l 375 375 l 375 250 l 250 250 l 250 125"},"Й":{"x_min":0,"x_max":875,"ha":1000,"o":"m 750 875 l 125 875 l 125 1000 l 750 1000 l 750 875 m 375 125 l 0 125 l 0 750 l 250 750 l 250 375 l 375 375 l 375 500 l 500 500 l 500 625 l 625 625 l 625 750 l 875 750 l 875 125 l 625 125 l 625 375 l 500 375 l 500 250 l 375 250 l 375 125"},"Ѝ":{"x_min":0,"x_max":875,"ha":1000,"o":"m 375 1000 l 375 875 l 250 875 l 250 1000 l 375 1000 m 500 750 l 375 750 l 375 875 l 500 875 l 500 750 m 625 750 l 875 750 l 875 125 l 625 125 l 625 375 l 500 375 l 500 250 l 375 250 l 375 125 l 0 125 l 0 750 l 250 750 l 250 375 l 375 375 l 375 500 l 500 500 l 500 625 l 625 625 l 625 750"},"К":{"x_min":0,"x_max":875,"ha":1000,"o":"m 375 625 l 375 750 l 500 750 l 500 625 l 625 625 l 625 500 l 750 500 l 750 250 l 875 250 l 875 125 l 625 125 l 625 250 l 500 250 l 500 500 l 250 500 l 250 125 l 0 125 l 0 1000 l 250 1000 l 250 625 l 375 625 m 625 1000 l 875 1000 l 875 875 l 750 875 l 750 750 l 500 750 l 500 875 l 625 875 l 625 1000"},"Ќ":{"x_min":0,"x_max":875,"ha":1000,"o":"m 625 1000 l 625 875 l 500 875 l 500 1000 l 625 1000 m 500 875 l 500 750 l 375 750 l 375 875 l 500 875 m 500 500 l 500 625 l 625 625 l 625 500 l 750 500 l 750 375 l 875 375 l 875 125 l 625 125 l 625 375 l 250 375 l 250 125 l 0 125 l 0 750 l 250 750 l 250 500 l 500 500 m 625 750 l 875 750 l 875 625 l 625 625 l 625 750"},"Л":{"x_min":0,"x_max":875,"ha":1000,"o":"m 250 125 l 0 125 l 0 375 l 125 375 l 125 500 l 250 500 l 250 1000 l 875 1000 l 875 125 l 625 125 l 625 875 l 375 875 l 375 250 l 250 250 l 250 125"},"М":{"x_min":0,"x_max":875,"ha":1000,"o":"m 250 125 l 0 125 l 0 1000 l 250 1000 l 250 875 l 375 875 l 375 750 l 500 750 l 500 875 l 625 875 l 625 1000 l 875 1000 l 875 125 l 625 125 l 625 625 l 500 625 l 500 375 l 375 375 l 375 625 l 250 625 l 250 125"},"Н":{"x_min":0,"x_max":875,"ha":1000,"o":"m 250 125 l 0 125 l 0 1000 l 250 1000 l 250 625 l 625 625 l 625 1000 l 875 1000 l 875 125 l 625 125 l 625 500 l 250 500 l 250 125"},"О":{"x_min":0,"x_max":875,"ha":1000,"o":"m 750 125 l 125 125 l 125 250 l 0 250 l 0 875 l 125 875 l 125 1000 l 750 1000 l 750 875 l 875 875 l 875 250 l 750 250 l 750 125 m 250 875 l 250 250 l 625 250 l 625 875 l 250 875"},"П":{"x_min":0,"x_max":875,"ha":1000,"o":"m 250 125 l 0 125 l 0 1000 l 875 1000 l 875 125 l 625 125 l 625 875 l 250 875 l 250 125"},"Р":{"x_min":0,"x_max":875,"ha":1000,"o":"m 250 125 l 0 125 l 0 1000 l 750 1000 l 750 875 l 875 875 l 875 500 l 750 500 l 750 375 l 250 375 l 250 125 m 250 875 l 250 500 l 625 500 l 625 875 l 250 875"},"С":{"x_min":0,"x_max":875,"ha":1000,"o":"m 750 125 l 250 125 l 250 250 l 125 250 l 125 375 l 0 375 l 0 750 l 125 750 l 125 875 l 250 875 l 250 1000 l 750 1000 l 750 875 l 875 875 l 875 750 l 625 750 l 625 875 l 375 875 l 375 750 l 250 750 l 250 375 l 375 375 l 375 250 l 625 250 l 625 375 l 875 375 l 875 250 l 750 250 l 750 125"},"Т":{"x_min":125,"x_max":875,"ha":1000,"o":"m 625 125 l 375 125 l 375 875 l 125 875 l 125 1000 l 875 1000 l 875 875 l 625 875 l 625 125"},"У":{"x_min":0,"x_max":875,"ha":1000,"o":"m 750 125 l 125 125 l 125 250 l 0 250 l 0 375 l 250 375 l 250 250 l 625 250 l 625 500 l 125 500 l 125 625 l 0 625 l 0 1000 l 250 1000 l 250 625 l 625 625 l 625 1000 l 875 1000 l 875 250 l 750 250 l 750 125"},"Ў":{"x_min":0,"x_max":875,"ha":1000,"o":"m 750 875 l 125 875 l 125 1000 l 750 1000 l 750 875 m 750 0 l 125 0 l 125 125 l 625 125 l 625 250 l 125 250 l 125 375 l 0 375 l 0 750 l 250 750 l 250 375 l 625 375 l 625 750 l 875 750 l 875 125 l 750 125 l 750 0"},"Ф":{"x_min":0,"x_max":875,"ha":1000,"o":"m 500 125 l 375 125 l 375 250 l 125 250 l 125 375 l 0 375 l 0 750 l 125 750 l 125 875 l 375 875 l 375 1000 l 500 1000 l 500 875 l 750 875 l 750 750 l 875 750 l 875 375 l 750 375 l 750 250 l 500 250 l 500 125 m 250 750 l 250 375 l 375 375 l 375 750 l 250 750 m 500 750 l 500 375 l 625 375 l 625 750 l 500 750"},"Х":{"x_min":0,"x_max":875,"ha":1000,"o":"m 250 125 l 0 125 l 0 375 l 125 375 l 125 500 l 250 500 l 250 625 l 125 625 l 125 750 l 0 750 l 0 1000 l 250 1000 l 250 750 l 375 750 l 375 625 l 500 625 l 500 750 l 625 750 l 625 1000 l 875 1000 l 875 750 l 750 750 l 750 625 l 625 625 l 625 500 l 750 500 l 750 375 l 875 375 l 875 125 l 625 125 l 625 375 l 500 375 l 500 500 l 375 500 l 375 375 l 250 375 l 250 125"},"Ч":{"x_min":0,"x_max":875,"ha":1000,"o":"m 875 125 l 625 125 l 625 500 l 125 500 l 125 625 l 0 625 l 0 1000 l 250 1000 l 250 625 l 625 625 l 625 1000 l 875 1000 l 875 125"},"Ц":{"x_min":0,"x_max":875,"ha":1000,"o":"m 875 0 l 625 0 l 625 125 l 0 125 l 0 1000 l 250 1000 l 250 250 l 500 250 l 500 1000 l 750 1000 l 750 250 l 875 250 l 875 0"},"Ш":{"x_min":0,"x_max":875,"ha":1000,"o":"m 875 125 l 0 125 l 0 1000 l 250 1000 l 250 250 l 375 250 l 375 1000 l 500 1000 l 500 250 l 625 250 l 625 1000 l 875 1000 l 875 125"},"Щ":{"x_min":0,"x_max":1000,"ha":1000,"o":"m 1000 0 l 750 0 l 750 125 l 0 125 l 0 1000 l 250 1000 l 250 250 l 375 250 l 375 1000 l 500 1000 l 500 250 l 625 250 l 625 1000 l 875 1000 l 875 250 l 1000 250 l 1000 0"},"Џ":{"x_min":0,"x_max":875,"ha":1000,"o":"m 500 0 l 375 0 l 375 125 l 0 125 l 0 1000 l 250 1000 l 250 250 l 625 250 l 625 1000 l 875 1000 l 875 125 l 500 125 l 500 0"},"Ь":{"x_min":0,"x_max":875,"ha":1000,"o":"m 750 125 l 0 125 l 0 1000 l 250 1000 l 250 750 l 750 750 l 750 625 l 875 625 l 875 250 l 750 250 l 750 125 m 250 625 l 250 250 l 625 250 l 625 625 l 250 625"},"Ъ":{"x_min":0,"x_max":875,"ha":1000,"o":"m 750 125 l 125 125 l 125 875 l 0 875 l 0 1000 l 375 1000 l 375 750 l 750 750 l 750 625 l 875 625 l 875 250 l 750 250 l 750 125 m 375 625 l 375 250 l 625 250 l 625 625 l 375 625"},"Ы":{"x_min":0,"x_max":875,"ha":1000,"o":"m 500 125 l 0 125 l 0 1000 l 250 1000 l 250 750 l 500 750 l 500 125 m 875 125 l 625 125 l 625 1000 l 875 1000 l 875 125 m 250 625 l 250 250 l 375 250 l 375 625 l 250 625"},"Љ":{"x_min":0,"x_max":875,"ha":1000,"o":"m 250 125 l 0 125 l 0 375 l 125 375 l 125 1000 l 625 1000 l 625 750 l 875 750 l 875 125 l 375 125 l 375 875 l 250 875 l 250 125 m 625 625 l 625 250 l 750 250 l 750 625 l 625 625"},"Њ":{"x_min":0,"x_max":875,"ha":1000,"o":"m 250 125 l 0 125 l 0 1000 l 250 1000 l 250 625 l 375 625 l 375 1000 l 625 1000 l 625 750 l 875 750 l 875 125 l 375 125 l 375 500 l 250 500 l 250 125 m 625 625 l 625 250 l 750 250 l 750 625 l 625 625"},"Ѕ":{"x_min":0,"x_max":875,"ha":1000,"o":"m 750 125 l 125 125 l 125 250 l 0 250 l 0 375 l 250 375 l 250 250 l 625 250 l 625 500 l 125 500 l 125 625 l 0 625 l 0 875 l 125 875 l 125 1000 l 750 1000 l 750 875 l 875 875 l 875 750 l 625 750 l 625 875 l 250 875 l 250 625 l 750 625 l 750 500 l 875 500 l 875 250 l 750 250 l 750 125"},"Є":{"x_min":0,"x_max":875,"ha":1000,"o":"m 750 125 l 250 125 l 250 250 l 125 250 l 125 375 l 0 375 l 0 750 l 125 750 l 125 875 l 250 875 l 250 1000 l 750 1000 l 750 875 l 875 875 l 875 750 l 625 750 l 625 875 l 375 875 l 375 750 l 250 750 l 250 625 l 750 625 l 750 500 l 250 500 l 250 375 l 375 375 l 375 250 l 625 250 l 625 375 l 875 375 l 875 250 l 750 250 l 750 125"},"Э":{"x_min":0,"x_max":875,"ha":1000,"o":"m 625 125 l 125 125 l 125 250 l 0 250 l 0 375 l 250 375 l 250 250 l 500 250 l 500 375 l 625 375 l 625 500 l 125 500 l 125 625 l 625 625 l 625 750 l 500 750 l 500 875 l 250 875 l 250 750 l 0 750 l 0 875 l 125 875 l 125 1000 l 625 1000 l 625 875 l 750 875 l 750 750 l 875 750 l 875 375 l 750 375 l 750 250 l 625 250 l 625 125"},"І":{"x_min":125,"x_max":875,"ha":1000,"o":"m 875 125 l 125 125 l 125 250 l 375 250 l 375 875 l 125 875 l 125 1000 l 875 1000 l 875 875 l 625 875 l 625 250 l 875 250 l 875 125"},"Ї":{"x_min":125,"x_max":875,"ha":1000,"o":"m 375 875 l 125 875 l 125 1000 l 375 1000 l 375 875 m 875 875 l 625 875 l 625 1000 l 875 1000 l 875 875 m 875 125 l 125 125 l 125 250 l 375 250 l 375 625 l 125 625 l 125 750 l 875 750 l 875 625 l 625 625 l 625 250 l 875 250 l 875 125"},"Ј":{"x_min":0,"x_max":875,"ha":1000,"o":"m 750 125 l 125 125 l 125 250 l 0 250 l 0 375 l 250 375 l 250 250 l 625 250 l 625 1000 l 875 1000 l 875 250 l 750 250 l 750 125"},"Ћ":{"x_min":0,"x_max":875,"ha":1000,"o":"m 375 125 l 125 125 l 125 875 l 0 875 l 0 1000 l 625 1000 l 625 875 l 375 875 l 375 750 l 750 750 l 750 625 l 875 625 l 875 125 l 625 125 l 625 625 l 375 625 l 375 125"},"Ю":{"x_min":0,"x_max":875,"ha":1000,"o":"m 125 125 l 0 125 l 0 1000 l 125 1000 l 125 625 l 250 625 l 250 875 l 375 875 l 375 1000 l 750 1000 l 750 875 l 875 875 l 875 250 l 750 250 l 750 125 l 375 125 l 375 250 l 250 250 l 250 500 l 125 500 l 125 125 m 500 875 l 500 250 l 625 250 l 625 875 l 500 875"},"Я":{"x_min":0,"x_max":875,"ha":1000,"o":"m 375 125 l 0 125 l 0 250 l 125 250 l 125 375 l 250 375 l 250 500 l 0 500 l 0 875 l 125 875 l 125 1000 l 875 1000 l 875 125 l 625 125 l 625 375 l 375 375 l 375 125 m 375 625 l 375 500 l 625 500 l 625 875 l 250 875 l 250 625 l 375 625"},"Ђ":{"x_min":0,"x_max":875,"ha":1000,"o":"m 750 0 l 500 0 l 500 125 l 625 125 l 625 625 l 375 625 l 375 125 l 125 125 l 125 875 l 0 875 l 0 1000 l 625 1000 l 625 875 l 375 875 l 375 750 l 750 750 l 750 625 l 875 625 l 875 125 l 750 125 l 750 0"},"Ѣ":{"x_min":0,"x_max":875,"ha":1000,"o":"m 750 500 l 875 500 l 875 250 l 750 250 l 750 125 l 125 125 l 125 750 l 0 750 l 0 875 l 125 875 l 125 1000 l 375 1000 l 375 875 l 625 875 l 625 750 l 375 750 l 375 625 l 750 625 l 750 500 m 625 250 l 625 500 l 375 500 l 375 250 l 625 250"},"Ѫ":{"x_min":0,"x_max":875,"ha":1000,"o":"m 0 1000 l 875 1000 l 875 750 l 750 750 l 750 875 l 125 875 l 125 750 l 0 750 l 0 1000 m 125 625 l 125 750 l 250 750 l 250 625 l 125 625 m 750 625 l 625 625 l 625 750 l 750 750 l 750 625 m 250 500 l 250 625 l 625 625 l 625 500 l 500 500 l 500 125 l 375 125 l 375 500 l 250 500 m 125 375 l 125 500 l 250 500 l 250 125 l 0 125 l 0 375 l 125 375 m 875 125 l 625 125 l 625 500 l 750 500 l 750 375 l 875 375 l 875 125"},"Ѳ":{"x_min":0,"x_max":875,"ha":1000,"o":"m 750 125 l 125 125 l 125 250 l 0 250 l 0 875 l 125 875 l 125 1000 l 750 1000 l 750 875 l 875 875 l 875 250 l 750 250 l 750 125 m 250 875 l 250 250 l 625 250 l 625 875 l 250 875 m 125 625 l 125 500 l 750 500 l 750 625 l 125 625"},"Ѵ":{"x_min":0,"x_max":875,"ha":1000,"o":"m 500 125 l 375 125 l 375 250 l 250 250 l 250 375 l 125 375 l 125 500 l 0 500 l 0 1000 l 250 1000 l 250 500 l 375 500 l 375 375 l 500 375 l 500 500 l 625 500 l 625 1000 l 875 1000 l 875 750 l 750 750 l 750 375 l 625 375 l 625 250 l 500 250 l 500 125"},"Ғ":{"x_min":0,"x_max":875,"ha":1000,"o":"m 125 1000 l 875 1000 l 875 750 l 750 750 l 750 875 l 375 875 l 375 625 l 625 625 l 625 500 l 375 500 l 375 125 l 125 125 l 125 500 l 0 500 l 0 625 l 125 625 l 125 1000"},"Ҕ":{"x_min":125,"x_max":875,"ha":1000,"o":"m 125 1000 l 875 1000 l 875 750 l 750 750 l 750 875 l 375 875 l 375 625 l 750 625 l 750 500 l 875 500 l 875 125 l 750 125 l 750 0 l 500 0 l 500 125 l 625 125 l 625 500 l 375 500 l 375 125 l 125 125 l 125 1000"},"Җ":{"x_min":0,"x_max":1000,"ha":1000,"o":"m 0 1000 l 250 1000 l 250 625 l 125 625 l 125 750 l 0 750 l 0 1000 m 500 625 l 625 625 l 625 500 l 500 500 l 500 125 l 375 125 l 375 500 l 250 500 l 250 625 l 375 625 l 375 1000 l 500 1000 l 500 625 m 750 750 l 750 625 l 625 625 l 625 1000 l 875 1000 l 875 750 l 750 750 m 125 375 l 125 500 l 250 500 l 250 125 l 0 125 l 0 375 l 125 375 m 875 375 l 875 250 l 1000 250 l 1000 0 l 750 0 l 750 125 l 625 125 l 625 500 l 750 500 l 750 375 l 875 375"},"Ҙ":{"x_min":0,"x_max":875,"ha":1000,"o":"m 750 875 l 875 875 l 875 625 l 750 625 l 750 500 l 875 500 l 875 250 l 750 250 l 750 125 l 500 125 l 500 0 l 375 0 l 375 125 l 125 125 l 125 250 l 0 250 l 0 375 l 250 375 l 250 250 l 625 250 l 625 500 l 250 500 l 250 625 l 625 625 l 625 875 l 250 875 l 250 750 l 0 750 l 0 875 l 125 875 l 125 1000 l 750 1000 l 750 875"},"Қ":{"x_min":0,"x_max":875,"ha":1000,"o":"m 375 625 l 375 750 l 500 750 l 500 625 l 625 625 l 625 500 l 750 500 l 750 250 l 875 250 l 875 0 l 625 0 l 625 250 l 500 250 l 500 500 l 250 500 l 250 125 l 0 125 l 0 1000 l 250 1000 l 250 625 l 375 625 m 625 1000 l 875 1000 l 875 875 l 750 875 l 750 750 l 500 750 l 500 875 l 625 875 l 625 1000"},"Ҝ":{"x_min":0,"x_max":875,"ha":1000,"o":"m 500 750 l 500 625 l 625 625 l 625 500 l 500 500 l 500 375 l 375 375 l 375 500 l 250 500 l 250 125 l 0 125 l 0 1000 l 250 1000 l 250 625 l 375 625 l 375 750 l 500 750 m 875 875 l 750 875 l 750 625 l 625 625 l 625 1000 l 875 1000 l 875 875 m 875 375 l 875 125 l 625 125 l 625 500 l 750 500 l 750 375 l 875 375"},"Ҡ":{"x_min":0,"x_max":875,"ha":1000,"o":"m 500 750 l 625 750 l 625 500 l 750 500 l 750 250 l 875 250 l 875 125 l 625 125 l 625 250 l 500 250 l 500 500 l 375 500 l 375 125 l 125 125 l 125 875 l 0 875 l 0 1000 l 375 1000 l 375 625 l 500 625 l 500 750 m 875 875 l 750 875 l 750 750 l 625 750 l 625 1000 l 875 1000 l 875 875"},"Ң":{"x_min":0,"x_max":1000,"ha":1000,"o":"m 875 1000 l 875 250 l 1000 250 l 1000 0 l 750 0 l 750 125 l 625 125 l 625 500 l 250 500 l 250 125 l 0 125 l 0 1000 l 250 1000 l 250 625 l 625 625 l 625 1000 l 875 1000"},"Ԥ":{"x_min":0,"x_max":1000,"ha":1000,"o":"m 875 1000 l 875 250 l 1000 250 l 1000 0 l 750 0 l 750 125 l 625 125 l 625 875 l 250 875 l 250 125 l 0 125 l 0 1000 l 875 1000"},"Ҫ":{"x_min":0,"x_max":875,"ha":1000,"o":"m 750 875 l 875 875 l 875 750 l 625 750 l 625 875 l 375 875 l 375 750 l 250 750 l 250 375 l 375 375 l 375 250 l 625 250 l 625 375 l 875 375 l 875 250 l 750 250 l 750 125 l 625 125 l 625 0 l 375 0 l 375 125 l 250 125 l 250 250 l 125 250 l 125 375 l 0 375 l 0 750 l 125 750 l 125 875 l 250 875 l 250 1000 l 750 1000 l 750 875"},"Ҭ":{"x_min":125,"x_max":875,"ha":1000,"o":"m 125 1000 l 875 1000 l 875 875 l 625 875 l 625 250 l 750 250 l 750 0 l 500 0 l 500 125 l 375 125 l 375 875 l 125 875 l 125 1000"},"Ү":{"x_min":125,"x_max":875,"ha":1000,"o":"m 625 125 l 375 125 l 375 500 l 250 500 l 250 625 l 125 625 l 125 1000 l 375 1000 l 375 625 l 625 625 l 625 1000 l 875 1000 l 875 625 l 750 625 l 750 500 l 625 500 l 625 125"},"Ұ":{"x_min":125,"x_max":875,"ha":1000,"o":"m 625 1000 l 875 1000 l 875 625 l 750 625 l 750 500 l 625 500 l 625 375 l 750 375 l 750 250 l 625 250 l 625 125 l 375 125 l 375 250 l 250 250 l 250 375 l 375 375 l 375 500 l 250 500 l 250 625 l 125 625 l 125 1000 l 375 1000 l 375 625 l 625 625 l 625 1000"},"Ҷ":{"x_min":0,"x_max":1000,"ha":1000,"o":"m 875 1000 l 875 250 l 1000 250 l 1000 0 l 750 0 l 750 125 l 625 125 l 625 500 l 125 500 l 125 625 l 0 625 l 0 1000 l 250 1000 l 250 625 l 625 625 l 625 1000 l 875 1000"},"Ҹ":{"x_min":0,"x_max":875,"ha":1000,"o":"m 625 1000 l 875 1000 l 875 125 l 625 125 l 625 500 l 500 500 l 500 375 l 375 375 l 375 500 l 125 500 l 125 625 l 0 625 l 0 1000 l 250 1000 l 250 625 l 375 625 l 375 750 l 500 750 l 500 625 l 625 625 l 625 1000"},"Һ":{"x_min":125,"x_max":1000,"ha":1000,"o":"m 375 125 l 125 125 l 125 1000 l 375 1000 l 375 625 l 875 625 l 875 500 l 1000 500 l 1000 125 l 750 125 l 750 500 l 375 500 l 375 125"},"Ӏ":{"x_min":125,"x_max":875,"ha":1000,"o":"m 875 125 l 125 125 l 125 250 l 375 250 l 375 875 l 125 875 l 125 1000 l 875 1000 l 875 875 l 625 875 l 625 250 l 875 250 l 875 125"},"Ӂ":{"x_min":0,"x_max":875,"ha":1000,"o":"m 750 875 l 125 875 l 125 1000 l 750 1000 l 750 875 m 250 125 l 0 125 l 0 375 l 125 375 l 125 500 l 0 500 l 0 750 l 250 750 l 250 500 l 375 500 l 375 750 l 500 750 l 500 500 l 625 500 l 625 750 l 875 750 l 875 500 l 750 500 l 750 375 l 875 375 l 875 125 l 625 125 l 625 375 l 500 375 l 500 125 l 375 125 l 375 375 l 250 375 l 250 125"},"Ӌ":{"x_min":0,"x_max":1000,"ha":1000,"o":"m 875 1000 l 875 250 l 1000 250 l 1000 0 l 750 0 l 750 125 l 625 125 l 625 500 l 125 500 l 125 625 l 0 625 l 0 1000 l 250 1000 l 250 625 l 625 625 l 625 1000 l 875 1000"},"Ӑ":{"x_min":0,"x_max":875,"ha":1000,"o":"m 750 875 l 125 875 l 125 1000 l 750 1000 l 750 875 m 250 125 l 0 125 l 0 500 l 125 500 l 125 625 l 250 625 l 250 750 l 625 750 l 625 625 l 750 625 l 750 500 l 875 500 l 875 125 l 625 125 l 625 250 l 250 250 l 250 125 m 250 500 l 250 375 l 625 375 l 625 500 l 500 500 l 500 625 l 375 625 l 375 500 l 250 500"},"Ӓ":{"x_min":0,"x_max":875,"ha":1000,"o":"m 375 875 l 125 875 l 125 1000 l 375 1000 l 375 875 m 750 875 l 500 875 l 500 1000 l 750 1000 l 750 875 m 250 125 l 0 125 l 0 500 l 125 500 l 125 625 l 250 625 l 250 750 l 625 750 l 625 625 l 750 625 l 750 500 l 875 500 l 875 125 l 625 125 l 625 250 l 250 250 l 250 125 m 250 500 l 250 375 l 625 375 l 625 500 l 500 500 l 500 625 l 375 625 l 375 500 l 250 500"},"Ӗ":{"x_min":0,"x_max":875,"ha":1000,"o":"m 750 875 l 125 875 l 125 1000 l 750 1000 l 750 875 m 875 125 l 0 125 l 0 750 l 875 750 l 875 625 l 250 625 l 250 500 l 750 500 l 750 375 l 250 375 l 250 250 l 875 250 l 875 125"},"Ә":{"x_min":0,"x_max":875,"ha":1000,"o":"m 750 875 l 875 875 l 875 250 l 750 250 l 750 125 l 125 125 l 125 250 l 0 250 l 0 625 l 625 625 l 625 875 l 250 875 l 250 750 l 0 750 l 0 875 l 125 875 l 125 1000 l 750 1000 l 750 875 m 250 250 l 625 250 l 625 500 l 250 500 l 250 250"},"Ӝ":{"x_min":0,"x_max":875,"ha":1000,"o":"m 375 875 l 125 875 l 125 1000 l 375 1000 l 375 875 m 750 875 l 500 875 l 500 1000 l 750 1000 l 750 875 m 250 125 l 0 125 l 0 375 l 125 375 l 125 500 l 0 500 l 0 750 l 250 750 l 250 500 l 375 500 l 375 750 l 500 750 l 500 500 l 625 500 l 625 750 l 875 750 l 875 500 l 750 500 l 750 375 l 875 375 l 875 125 l 625 125 l 625 375 l 500 375 l 500 125 l 375 125 l 375 375 l 250 375 l 250 125"},"Ӟ":{"x_min":0,"x_max":875,"ha":1000,"o":"m 375 875 l 125 875 l 125 1000 l 375 1000 l 375 875 m 750 875 l 500 875 l 500 1000 l 750 1000 l 750 875 m 750 125 l 125 125 l 125 250 l 0 250 l 0 375 l 250 375 l 250 250 l 625 250 l 625 375 l 375 375 l 375 500 l 625 500 l 625 625 l 250 625 l 250 500 l 0 500 l 0 625 l 125 625 l 125 750 l 750 750 l 750 625 l 875 625 l 875 500 l 750 500 l 750 375 l 875 375 l 875 250 l 750 250 l 750 125"},"Ӣ":{"x_min":0,"x_max":875,"ha":1000,"o":"m 750 875 l 125 875 l 125 1000 l 750 1000 l 750 875 m 375 125 l 0 125 l 0 750 l 250 750 l 250 375 l 375 375 l 375 500 l 500 500 l 500 625 l 625 625 l 625 750 l 875 750 l 875 125 l 625 125 l 625 375 l 500 375 l 500 250 l 375 250 l 375 125"},"Ӥ":{"x_min":0,"x_max":875,"ha":1000,"o":"m 375 875 l 125 875 l 125 1000 l 375 1000 l 375 875 m 750 875 l 500 875 l 500 1000 l 750 1000 l 750 875 m 375 125 l 0 125 l 0 750 l 250 750 l 250 375 l 375 375 l 375 500 l 500 500 l 500 625 l 625 625 l 625 750 l 875 750 l 875 125 l 625 125 l 625 375 l 500 375 l 500 250 l 375 250 l 375 125"},"Ӧ":{"x_min":0,"x_max":875,"ha":1000,"o":"m 375 875 l 125 875 l 125 1000 l 375 1000 l 375 875 m 750 875 l 500 875 l 500 1000 l 750 1000 l 750 875 m 750 125 l 125 125 l 125 250 l 0 250 l 0 625 l 125 625 l 125 750 l 750 750 l 750 625 l 875 625 l 875 250 l 750 250 l 750 125 m 250 625 l 250 250 l 625 250 l 625 625 l 250 625"},"Ө":{"x_min":0,"x_max":875,"ha":1000,"o":"m 750 125 l 125 125 l 125 250 l 0 250 l 0 875 l 125 875 l 125 1000 l 750 1000 l 750 875 l 875 875 l 875 250 l 750 250 l 750 125 m 250 875 l 250 250 l 625 250 l 625 875 l 250 875 m 125 625 l 125 500 l 750 500 l 750 625 l 125 625"},"Ӯ":{"x_min":0,"x_max":875,"ha":1000,"o":"m 750 875 l 125 875 l 125 1000 l 750 1000 l 750 875 m 750 125 l 125 125 l 125 250 l 625 250 l 625 375 l 125 375 l 125 500 l 0 500 l 0 750 l 250 750 l 250 500 l 625 500 l 625 750 l 875 750 l 875 250 l 750 250 l 750 125"},"Ӱ":{"x_min":0,"x_max":875,"ha":1000,"o":"m 375 875 l 125 875 l 125 1000 l 375 1000 l 375 875 m 750 875 l 500 875 l 500 1000 l 750 1000 l 750 875 m 750 125 l 125 125 l 125 250 l 625 250 l 625 375 l 125 375 l 125 500 l 0 500 l 0 750 l 250 750 l 250 500 l 625 500 l 625 750 l 875 750 l 875 250 l 750 250 l 750 125"},"Ӳ":{"x_min":0,"x_max":875,"ha":1000,"o":"m 375 1000 l 375 875 l 250 875 l 250 1000 l 375 1000 m 750 1000 l 750 875 l 625 875 l 625 1000 l 750 1000 m 625 500 l 625 750 l 875 750 l 875 250 l 750 250 l 750 125 l 125 125 l 125 250 l 625 250 l 625 375 l 125 375 l 125 500 l 0 500 l 0 750 l 125 750 l 125 875 l 250 875 l 250 500 l 625 500 m 500 875 l 625 875 l 625 750 l 500 750 l 500 875"},"Ӵ":{"x_min":0,"x_max":875,"ha":1000,"o":"m 375 875 l 125 875 l 125 1000 l 375 1000 l 375 875 m 750 875 l 500 875 l 500 1000 l 750 1000 l 750 875 m 875 125 l 625 125 l 625 375 l 125 375 l 125 500 l 0 500 l 0 750 l 250 750 l 250 500 l 625 500 l 625 750 l 875 750 l 875 125"},"Ӷ":{"x_min":125,"x_max":875,"ha":1000,"o":"m 125 1000 l 875 1000 l 875 750 l 750 750 l 750 875 l 375 875 l 375 250 l 500 250 l 500 0 l 250 0 l 250 125 l 125 125 l 125 1000"},"Ӹ":{"x_min":0,"x_max":875,"ha":1000,"o":"m 375 875 l 125 875 l 125 1000 l 375 1000 l 375 875 m 750 875 l 500 875 l 500 1000 l 750 1000 l 750 875 m 500 125 l 0 125 l 0 750 l 250 750 l 250 625 l 500 625 l 500 125 m 875 125 l 625 125 l 625 750 l 875 750 l 875 125 m 250 500 l 250 250 l 375 250 l 375 500 l 250 500"},"Ԛ":{"x_min":0,"x_max":875,"ha":1000,"o":"m 750 875 l 875 875 l 875 375 l 750 375 l 750 250 l 625 250 l 625 125 l 125 125 l 125 250 l 0 250 l 0 875 l 125 875 l 125 1000 l 750 1000 l 750 875 m 625 500 l 625 875 l 250 875 l 250 250 l 500 250 l 500 375 l 375 375 l 375 500 l 625 500 m 875 125 l 750 125 l 750 250 l 875 250 l 875 125"},"Ԝ":{"x_min":0,"x_max":875,"ha":1000,"o":"m 250 125 l 125 125 l 125 250 l 0 250 l 0 1000 l 250 1000 l 250 500 l 375 500 l 375 1000 l 500 1000 l 500 500 l 625 500 l 625 1000 l 875 1000 l 875 250 l 750 250 l 750 125 l 625 125 l 625 250 l 500 250 l 500 375 l 375 375 l 375 250 l 250 250 l 250 125"},"а":{"x_min":0,"x_max":875,"ha":1000,"o":"m 875 125 l 125 125 l 125 250 l 0 250 l 0 375 l 125 375 l 125 500 l 625 500 l 625 625 l 125 625 l 125 750 l 750 750 l 750 625 l 875 625 l 875 125 m 250 375 l 250 250 l 625 250 l 625 375 l 250 375"},"б":{"x_min":0,"x_max":875,"ha":1000,"o":"m 125 1000 l 875 1000 l 875 875 l 250 875 l 250 625 l 375 625 l 375 500 l 250 500 l 250 250 l 625 250 l 625 625 l 375 625 l 375 750 l 750 750 l 750 625 l 875 625 l 875 250 l 750 250 l 750 125 l 125 125 l 125 250 l 0 250 l 0 875 l 125 875 l 125 1000"},"в":{"x_min":0,"x_max":875,"ha":1000,"o":"m 750 125 l 0 125 l 0 750 l 750 750 l 750 625 l 875 625 l 875 500 l 750 500 l 750 375 l 875 375 l 875 250 l 750 250 l 750 125 m 250 625 l 250 500 l 625 500 l 625 625 l 250 625 m 250 375 l 250 250 l 625 250 l 625 375 l 250 375"},"г":{"x_min":125,"x_max":875,"ha":1000,"o":"m 375 125 l 125 125 l 125 750 l 875 750 l 875 500 l 750 500 l 750 625 l 375 625 l 375 125"},"ѓ":{"x_min":125,"x_max":875,"ha":1000,"o":"m 750 1000 l 750 875 l 625 875 l 625 1000 l 750 1000 m 625 750 l 875 750 l 875 500 l 750 500 l 750 625 l 375 625 l 375 125 l 125 125 l 125 750 l 500 750 l 500 875 l 625 875 l 625 750"},"ґ":{"x_min":125,"x_max":875,"ha":1000,"o":"m 625 750 l 625 875 l 875 875 l 875 625 l 375 625 l 375 125 l 125 125 l 125 750 l 625 750"},"д":{"x_min":0,"x_max":1000,"ha":1000,"o":"m 875 750 l 875 250 l 1000 250 l 1000 0 l 750 0 l 750 125 l 250 125 l 250 0 l 0 0 l 0 250 l 125 250 l 125 375 l 250 375 l 250 750 l 875 750 m 375 625 l 375 250 l 625 250 l 625 625 l 375 625"},"е":{"x_min":0,"x_max":875,"ha":1000,"o":"m 750 125 l 125 125 l 125 250 l 0 250 l 0 625 l 125 625 l 125 750 l 750 750 l 750 625 l 875 625 l 875 375 l 250 375 l 250 250 l 750 250 l 750 125 m 250 625 l 250 500 l 625 500 l 625 625 l 250 625"},"ѐ":{"x_min":0,"x_max":875,"ha":1000,"o":"m 250 1000 l 375 1000 l 375 875 l 250 875 l 250 1000 m 750 625 l 875 625 l 875 375 l 250 375 l 250 250 l 750 250 l 750 125 l 125 125 l 125 250 l 0 250 l 0 625 l 125 625 l 125 750 l 375 750 l 375 875 l 500 875 l 500 750 l 750 750 l 750 625 m 625 500 l 625 625 l 250 625 l 250 500 l 625 500"},"ё":{"x_min":0,"x_max":875,"ha":1000,"o":"m 375 875 l 125 875 l 125 1000 l 375 1000 l 375 875 m 750 875 l 500 875 l 500 1000 l 750 1000 l 750 875 m 750 125 l 125 125 l 125 250 l 0 250 l 0 625 l 125 625 l 125 750 l 750 750 l 750 625 l 875 625 l 875 375 l 250 375 l 250 250 l 750 250 l 750 125 m 250 625 l 250 500 l 625 500 l 625 625 l 250 625"},"ж":{"x_min":0,"x_max":875,"ha":1000,"o":"m 250 125 l 0 125 l 0 375 l 125 375 l 125 500 l 0 500 l 0 750 l 250 750 l 250 500 l 375 500 l 375 750 l 500 750 l 500 500 l 625 500 l 625 750 l 875 750 l 875 500 l 750 500 l 750 375 l 875 375 l 875 125 l 625 125 l 625 375 l 500 375 l 500 125 l 375 125 l 375 375 l 250 375 l 250 125"},"з":{"x_min":0,"x_max":875,"ha":1000,"o":"m 750 125 l 125 125 l 125 250 l 0 250 l 0 375 l 250 375 l 250 250 l 625 250 l 625 375 l 375 375 l 375 500 l 625 500 l 625 625 l 250 625 l 250 500 l 0 500 l 0 625 l 125 625 l 125 750 l 750 750 l 750 625 l 875 625 l 875 500 l 750 500 l 750 375 l 875 375 l 875 250 l 750 250 l 750 125"},"и":{"x_min":0,"x_max":875,"ha":1000,"o":"m 250 750 l 250 375 l 375 375 l 375 250 l 250 250 l 250 125 l 0 125 l 0 750 l 250 750 m 625 750 l 875 750 l 875 125 l 625 125 l 625 500 l 500 500 l 500 625 l 625 625 l 625 750 m 375 375 l 375 500 l 500 500 l 500 375 l 375 375"},"й":{"x_min":0,"x_max":875,"ha":1000,"o":"m 125 1000 l 750 1000 l 750 875 l 125 875 l 125 1000 m 250 750 l 250 375 l 375 375 l 375 250 l 250 250 l 250 125 l 0 125 l 0 750 l 250 750 m 625 750 l 875 750 l 875 125 l 625 125 l 625 500 l 500 500 l 500 625 l 625 625 l 625 750 m 375 375 l 375 500 l 500 500 l 500 375 l 375 375"},"ѝ":{"x_min":0,"x_max":875,"ha":1000,"o":"m 375 1000 l 375 875 l 250 875 l 250 1000 l 375 1000 m 500 750 l 375 750 l 375 875 l 500 875 l 500 750 m 250 750 l 250 375 l 375 375 l 375 250 l 250 250 l 250 125 l 0 125 l 0 750 l 250 750 m 625 750 l 875 750 l 875 125 l 625 125 l 625 500 l 500 500 l 500 625 l 625 625 l 625 750 m 375 375 l 375 500 l 500 500 l 500 375 l 375 375"},"к":{"x_min":0,"x_max":875,"ha":1000,"o":"m 500 500 l 500 625 l 625 625 l 625 500 l 750 500 l 750 375 l 875 375 l 875 125 l 625 125 l 625 375 l 250 375 l 250 125 l 0 125 l 0 750 l 250 750 l 250 500 l 500 500 m 625 750 l 875 750 l 875 625 l 625 625 l 625 750"},"ќ":{"x_min":0,"x_max":875,"ha":1000,"o":"m 625 1000 l 625 875 l 500 875 l 500 1000 l 625 1000 m 500 875 l 500 750 l 375 750 l 375 875 l 500 875 m 500 500 l 500 625 l 625 625 l 625 500 l 750 500 l 750 375 l 875 375 l 875 125 l 625 125 l 625 375 l 250 375 l 250 125 l 0 125 l 0 750 l 250 750 l 250 500 l 500 500 m 625 750 l 875 750 l 875 625 l 625 625 l 625 750"},"л":{"x_min":0,"x_max":875,"ha":1000,"o":"m 250 750 l 875 750 l 875 125 l 625 125 l 625 625 l 375 625 l 375 250 l 250 250 l 250 125 l 0 125 l 0 375 l 125 375 l 125 500 l 250 500 l 250 750"},"м":{"x_min":0,"x_max":875,"ha":1000,"o":"m 250 625 l 375 625 l 375 500 l 250 500 l 250 125 l 0 125 l 0 750 l 250 750 l 250 625 m 625 750 l 875 750 l 875 125 l 625 125 l 625 500 l 500 500 l 500 625 l 625 625 l 625 750 m 375 250 l 375 500 l 500 500 l 500 250 l 375 250"},"н":{"x_min":0,"x_max":875,"ha":1000,"o":"m 250 125 l 0 125 l 0 750 l 250 750 l 250 500 l 625 500 l 625 750 l 875 750 l 875 125 l 625 125 l 625 375 l 250 375 l 250 125"},"о":{"x_min":0,"x_max":875,"ha":1000,"o":"m 750 125 l 125 125 l 125 250 l 0 250 l 0 625 l 125 625 l 125 750 l 750 750 l 750 625 l 875 625 l 875 250 l 750 250 l 750 125 m 250 625 l 250 250 l 625 250 l 625 625 l 250 625"},"п":{"x_min":0,"x_max":875,"ha":1000,"o":"m 250 125 l 0 125 l 0 750 l 875 750 l 875 125 l 625 125 l 625 625 l 250 625 l 250 125"},"р":{"x_min":0,"x_max":875,"ha":1000,"o":"m 750 625 l 875 625 l 875 250 l 750 250 l 750 125 l 250 125 l 250 0 l 0 0 l 0 750 l 250 750 l 250 625 l 375 625 l 375 500 l 250 500 l 250 250 l 625 250 l 625 625 l 375 625 l 375 750 l 750 750 l 750 625"},"с":{"x_min":0,"x_max":875,"ha":1000,"o":"m 750 125 l 125 125 l 125 250 l 0 250 l 0 625 l 125 625 l 125 750 l 750 750 l 750 625 l 875 625 l 875 500 l 625 500 l 625 625 l 250 625 l 250 250 l 625 250 l 625 375 l 875 375 l 875 250 l 750 250 l 750 125"},"т":{"x_min":125,"x_max":875,"ha":1000,"o":"m 625 125 l 375 125 l 375 625 l 125 625 l 125 750 l 875 750 l 875 625 l 625 625 l 625 125"},"у":{"x_min":0,"x_max":875,"ha":1000,"o":"m 750 0 l 125 0 l 125 125 l 625 125 l 625 250 l 125 250 l 125 375 l 0 375 l 0 750 l 250 750 l 250 375 l 625 375 l 625 750 l 875 750 l 875 125 l 750 125 l 750 0"},"ў":{"x_min":0,"x_max":875,"ha":1000,"o":"m 750 875 l 125 875 l 125 1000 l 750 1000 l 750 875 m 750 0 l 125 0 l 125 125 l 625 125 l 625 250 l 125 250 l 125 375 l 0 375 l 0 750 l 250 750 l 250 375 l 625 375 l 625 750 l 875 750 l 875 125 l 750 125 l 750 0"},"ф":{"x_min":0,"x_max":875,"ha":1000,"o":"m 500 0 l 375 0 l 375 125 l 125 125 l 125 250 l 0 250 l 0 625 l 125 625 l 125 750 l 375 750 l 375 875 l 500 875 l 500 750 l 750 750 l 750 625 l 875 625 l 875 250 l 750 250 l 750 125 l 500 125 l 500 0 m 250 625 l 250 250 l 375 250 l 375 625 l 250 625 m 500 625 l 500 250 l 625 250 l 625 625 l 500 625"},"х":{"x_min":0,"x_max":875,"ha":1000,"o":"m 250 125 l 0 125 l 0 250 l 125 250 l 125 375 l 250 375 l 250 500 l 125 500 l 125 625 l 0 625 l 0 750 l 250 750 l 250 625 l 375 625 l 375 500 l 500 500 l 500 625 l 625 625 l 625 750 l 875 750 l 875 625 l 750 625 l 750 500 l 625 500 l 625 375 l 750 375 l 750 250 l 875 250 l 875 125 l 625 125 l 625 250 l 500 250 l 500 375 l 375 375 l 375 250 l 250 250 l 250 125"},"ч":{"x_min":0,"x_max":875,"ha":1000,"o":"m 875 125 l 625 125 l 625 375 l 125 375 l 125 500 l 0 500 l 0 750 l 250 750 l 250 500 l 625 500 l 625 750 l 875 750 l 875 125"},"ц":{"x_min":0,"x_max":875,"ha":1000,"o":"m 875 0 l 625 0 l 625 125 l 0 125 l 0 750 l 250 750 l 250 250 l 500 250 l 500 750 l 750 750 l 750 250 l 875 250 l 875 0"},"ш":{"x_min":0,"x_max":875,"ha":1000,"o":"m 875 125 l 0 125 l 0 750 l 250 750 l 250 250 l 375 250 l 375 750 l 500 750 l 500 250 l 625 250 l 625 750 l 875 750 l 875 125"},"щ":{"x_min":0,"x_max":1000,"ha":1000,"o":"m 1000 0 l 750 0 l 750 125 l 0 125 l 0 750 l 250 750 l 250 250 l 375 250 l 375 750 l 500 750 l 500 250 l 625 250 l 625 750 l 875 750 l 875 250 l 1000 250 l 1000 0"},"џ":{"x_min":0,"x_max":875,"ha":1000,"o":"m 500 0 l 375 0 l 375 125 l 0 125 l 0 750 l 250 750 l 250 250 l 625 250 l 625 750 l 875 750 l 875 125 l 500 125 l 500 0"},"ь":{"x_min":0,"x_max":875,"ha":1000,"o":"m 750 125 l 0 125 l 0 750 l 250 750 l 250 500 l 750 500 l 750 375 l 875 375 l 875 250 l 750 250 l 750 125 m 250 375 l 250 250 l 625 250 l 625 375 l 250 375"},"ъ":{"x_min":0,"x_max":875,"ha":1000,"o":"m 750 125 l 125 125 l 125 625 l 0 625 l 0 750 l 375 750 l 375 500 l 750 500 l 750 375 l 875 375 l 875 250 l 750 250 l 750 125 m 375 375 l 375 250 l 625 250 l 625 375 l 375 375"},"ы":{"x_min":0,"x_max":875,"ha":1000,"o":"m 500 125 l 0 125 l 0 750 l 250 750 l 250 500 l 500 500 l 500 125 m 875 125 l 625 125 l 625 750 l 875 750 l 875 125 m 250 375 l 250 250 l 375 250 l 375 375 l 250 375"},"љ":{"x_min":0,"x_max":875,"ha":1000,"o":"m 250 125 l 0 125 l 0 375 l 125 375 l 125 750 l 625 750 l 625 625 l 875 625 l 875 125 l 375 125 l 375 625 l 250 625 l 250 125 m 625 500 l 625 250 l 750 250 l 750 500 l 625 500"},"њ":{"x_min":0,"x_max":875,"ha":1000,"o":"m 250 125 l 0 125 l 0 750 l 250 750 l 250 500 l 375 500 l 375 750 l 625 750 l 625 625 l 875 625 l 875 125 l 375 125 l 375 375 l 250 375 l 250 125 m 625 500 l 625 250 l 750 250 l 750 500 l 625 500"},"ѕ":{"x_min":0,"x_max":875,"ha":1000,"o":"m 750 125 l 0 125 l 0 250 l 625 250 l 625 375 l 125 375 l 125 500 l 0 500 l 0 625 l 125 625 l 125 750 l 750 750 l 750 625 l 250 625 l 250 500 l 750 500 l 750 375 l 875 375 l 875 250 l 750 250 l 750 125"},"є":{"x_min":0,"x_max":875,"ha":1000,"o":"m 750 125 l 125 125 l 125 250 l 0 250 l 0 625 l 125 625 l 125 750 l 750 750 l 750 625 l 875 625 l 875 500 l 625 500 l 625 625 l 250 625 l 250 500 l 500 500 l 500 375 l 250 375 l 250 250 l 625 250 l 625 375 l 875 375 l 875 250 l 750 250 l 750 125"},"э":{"x_min":0,"x_max":875,"ha":1000,"o":"m 750 125 l 125 125 l 125 250 l 0 250 l 0 375 l 250 375 l 250 250 l 625 250 l 625 375 l 375 375 l 375 500 l 625 500 l 625 625 l 250 625 l 250 500 l 0 500 l 0 625 l 125 625 l 125 750 l 750 750 l 750 625 l 875 625 l 875 250 l 750 250 l 750 125"},"і":{"x_min":125,"x_max":875,"ha":1000,"o":"m 625 875 l 375 875 l 375 1000 l 625 1000 l 625 875 m 875 125 l 125 125 l 125 250 l 375 250 l 375 625 l 250 625 l 250 750 l 625 750 l 625 250 l 875 250 l 875 125"},"ї":{"x_min":125,"x_max":875,"ha":1000,"o":"m 375 875 l 125 875 l 125 1000 l 375 1000 l 375 875 m 750 875 l 500 875 l 500 1000 l 750 1000 l 750 875 m 875 125 l 125 125 l 125 250 l 375 250 l 375 625 l 250 625 l 250 750 l 625 750 l 625 250 l 875 250 l 875 125"},"ј":{"x_min":125,"x_max":750,"ha":1000,"o":"m 750 875 l 500 875 l 500 1000 l 750 1000 l 750 875 m 625 0 l 125 0 l 125 125 l 500 125 l 500 625 l 375 625 l 375 750 l 750 750 l 750 125 l 625 125 l 625 0"},"ћ":{"x_min":0,"x_max":875,"ha":1000,"o":"m 375 125 l 125 125 l 125 750 l 0 750 l 0 875 l 125 875 l 125 1000 l 375 1000 l 375 875 l 625 875 l 625 750 l 375 750 l 375 625 l 750 625 l 750 500 l 875 500 l 875 125 l 625 125 l 625 500 l 375 500 l 375 125"},"ю":{"x_min":0,"x_max":875,"ha":1000,"o":"m 125 125 l 0 125 l 0 750 l 125 750 l 125 500 l 250 500 l 250 625 l 375 625 l 375 750 l 750 750 l 750 625 l 875 625 l 875 250 l 750 250 l 750 125 l 375 125 l 375 250 l 250 250 l 250 375 l 125 375 l 125 125 m 500 625 l 500 250 l 625 250 l 625 625 l 500 625"},"я":{"x_min":0,"x_max":875,"ha":1000,"o":"m 250 125 l 0 125 l 0 375 l 125 375 l 125 500 l 0 500 l 0 625 l 125 625 l 125 750 l 875 750 l 875 125 l 625 125 l 625 375 l 250 375 l 250 125 m 250 625 l 250 500 l 625 500 l 625 625 l 250 625"},"ђ":{"x_min":0,"x_max":875,"ha":1000,"o":"m 750 0 l 500 0 l 500 125 l 625 125 l 625 500 l 375 500 l 375 125 l 125 125 l 125 750 l 0 750 l 0 875 l 125 875 l 125 1000 l 375 1000 l 375 875 l 625 875 l 625 750 l 375 750 l 375 625 l 750 625 l 750 500 l 875 500 l 875 125 l 750 125 l 750 0"},"ѣ":{"x_min":0,"x_max":875,"ha":1000,"o":"m 750 375 l 875 375 l 875 250 l 750 250 l 750 125 l 125 125 l 125 625 l 0 625 l 0 750 l 125 750 l 125 1000 l 375 1000 l 375 750 l 625 750 l 625 625 l 375 625 l 375 500 l 750 500 l 750 375 m 625 250 l 625 375 l 375 375 l 375 250 l 625 250"},"ѫ":{"x_min":0,"x_max":875,"ha":1000,"o":"m 625 500 l 625 625 l 250 625 l 250 500 l 125 500 l 125 625 l 0 625 l 0 750 l 875 750 l 875 625 l 750 625 l 750 500 l 625 500 m 250 375 l 250 500 l 625 500 l 625 375 l 500 375 l 500 125 l 375 125 l 375 375 l 250 375 m 250 125 l 0 125 l 0 375 l 250 375 l 250 125 m 875 375 l 875 125 l 625 125 l 625 375 l 875 375"},"ѳ":{"x_min":0,"x_max":875,"ha":1000,"o":"m 750 125 l 125 125 l 125 250 l 0 250 l 0 625 l 125 625 l 125 750 l 750 750 l 750 625 l 875 625 l 875 250 l 750 250 l 750 125 m 250 625 l 250 250 l 625 250 l 625 625 l 250 625 m 125 500 l 125 375 l 750 375 l 750 500 l 125 500"},"ѵ":{"x_min":125,"x_max":875,"ha":1000,"o":"m 625 125 l 375 125 l 375 250 l 250 250 l 250 375 l 125 375 l 125 750 l 375 750 l 375 375 l 625 375 l 625 750 l 875 750 l 875 625 l 750 625 l 750 250 l 625 250 l 625 125"},"ғ":{"x_min":0,"x_max":875,"ha":1000,"o":"m 125 750 l 875 750 l 875 500 l 750 500 l 750 625 l 375 625 l 375 500 l 625 500 l 625 375 l 375 375 l 375 125 l 125 125 l 125 375 l 0 375 l 0 500 l 125 500 l 125 750"},"ҕ":{"x_min":125,"x_max":875,"ha":1000,"o":"m 875 625 l 375 625 l 375 500 l 750 500 l 750 375 l 875 375 l 875 125 l 750 125 l 750 0 l 500 0 l 500 125 l 625 125 l 625 375 l 375 375 l 375 125 l 125 125 l 125 750 l 875 750 l 875 625"},"җ":{"x_min":0,"x_max":1000,"ha":1000,"o":"m 875 375 l 875 250 l 1000 250 l 1000 0 l 750 0 l 750 125 l 625 125 l 625 375 l 500 375 l 500 125 l 375 125 l 375 375 l 250 375 l 250 125 l 0 125 l 0 375 l 125 375 l 125 500 l 0 500 l 0 750 l 250 750 l 250 500 l 375 500 l 375 750 l 500 750 l 500 500 l 625 500 l 625 750 l 875 750 l 875 500 l 750 500 l 750 375 l 875 375"},"ҙ":{"x_min":0,"x_max":875,"ha":1000,"o":"m 875 625 l 875 500 l 750 500 l 750 375 l 875 375 l 875 250 l 750 250 l 750 125 l 500 125 l 500 0 l 375 0 l 375 125 l 125 125 l 125 250 l 0 250 l 0 375 l 250 375 l 250 250 l 625 250 l 625 375 l 375 375 l 375 500 l 625 500 l 625 625 l 250 625 l 250 500 l 0 500 l 0 625 l 125 625 l 125 750 l 750 750 l 750 625 l 875 625"},"қ":{"x_min":0,"x_max":1000,"ha":1000,"o":"m 875 375 l 875 250 l 1000 250 l 1000 0 l 750 0 l 750 125 l 625 125 l 625 375 l 250 375 l 250 125 l 0 125 l 0 750 l 250 750 l 250 500 l 500 500 l 500 625 l 625 625 l 625 500 l 750 500 l 750 375 l 875 375 m 625 750 l 875 750 l 875 625 l 625 625 l 625 750"},"ҝ":{"x_min":0,"x_max":875,"ha":1000,"o":"m 500 625 l 500 500 l 625 500 l 625 375 l 500 375 l 500 250 l 375 250 l 375 375 l 250 375 l 250 125 l 0 125 l 0 750 l 250 750 l 250 500 l 375 500 l 375 625 l 500 625 m 875 625 l 750 625 l 750 500 l 625 500 l 625 750 l 875 750 l 875 625 m 875 375 l 875 125 l 625 125 l 625 375 l 875 375"},"ҡ":{"x_min":0,"x_max":875,"ha":1000,"o":"m 500 500 l 500 625 l 625 625 l 625 500 l 750 500 l 750 375 l 875 375 l 875 125 l 625 125 l 625 375 l 375 375 l 375 125 l 125 125 l 125 625 l 0 625 l 0 750 l 375 750 l 375 500 l 500 500 m 625 750 l 875 750 l 875 625 l 625 625 l 625 750"},"ң":{"x_min":0,"x_max":1000,"ha":1000,"o":"m 875 750 l 875 250 l 1000 250 l 1000 0 l 750 0 l 750 125 l 625 125 l 625 375 l 250 375 l 250 125 l 0 125 l 0 750 l 250 750 l 250 500 l 625 500 l 625 750 l 875 750"},"ԥ":{"x_min":0,"x_max":1000,"ha":1000,"o":"m 875 750 l 875 250 l 1000 250 l 1000 0 l 750 0 l 750 125 l 625 125 l 625 625 l 250 625 l 250 125 l 0 125 l 0 750 l 875 750"},"ҫ":{"x_min":0,"x_max":875,"ha":1000,"o":"m 875 625 l 875 500 l 625 500 l 625 625 l 250 625 l 250 250 l 625 250 l 625 375 l 875 375 l 875 250 l 750 250 l 750 125 l 500 125 l 500 0 l 375 0 l 375 125 l 125 125 l 125 250 l 0 250 l 0 625 l 125 625 l 125 750 l 750 750 l 750 625 l 875 625"},"ҭ":{"x_min":125,"x_max":875,"ha":1000,"o":"m 125 750 l 875 750 l 875 625 l 625 625 l 625 250 l 750 250 l 750 0 l 500 0 l 500 125 l 375 125 l 375 625 l 125 625 l 125 750"},"ү":{"x_min":125,"x_max":875,"ha":1000,"o":"m 625 750 l 875 750 l 875 375 l 750 375 l 750 250 l 625 250 l 625 0 l 375 0 l 375 250 l 250 250 l 250 375 l 125 375 l 125 750 l 375 750 l 375 375 l 625 375 l 625 750"},"ұ":{"x_min":125,"x_max":875,"ha":1000,"o":"m 625 750 l 875 750 l 875 500 l 750 500 l 750 375 l 625 375 l 625 250 l 750 250 l 750 125 l 625 125 l 625 0 l 375 0 l 375 125 l 250 125 l 250 250 l 375 250 l 375 375 l 250 375 l 250 500 l 125 500 l 125 750 l 375 750 l 375 500 l 625 500 l 625 750"},"ҷ":{"x_min":0,"x_max":1000,"ha":1000,"o":"m 875 750 l 875 250 l 1000 250 l 1000 0 l 750 0 l 750 125 l 625 125 l 625 375 l 125 375 l 125 500 l 0 500 l 0 750 l 250 750 l 250 500 l 625 500 l 625 750 l 875 750"},"ҹ":{"x_min":0,"x_max":875,"ha":1000,"o":"m 625 750 l 875 750 l 875 125 l 625 125 l 625 375 l 500 375 l 500 250 l 375 250 l 375 375 l 125 375 l 125 500 l 0 500 l 0 750 l 250 750 l 250 500 l 375 500 l 375 625 l 500 625 l 500 500 l 625 500 l 625 750"},"һ":{"x_min":0,"x_max":875,"ha":1000,"o":"m 250 1000 l 250 625 l 375 625 l 375 500 l 250 500 l 250 125 l 0 125 l 0 1000 l 250 1000 m 750 625 l 875 625 l 875 125 l 625 125 l 625 625 l 375 625 l 375 750 l 750 750 l 750 625"},"ӏ":{"x_min":125,"x_max":875,"ha":1000,"o":"m 875 125 l 125 125 l 125 250 l 375 250 l 375 875 l 250 875 l 250 1000 l 625 1000 l 625 250 l 875 250 l 875 125"},"ӂ":{"x_min":0,"x_max":875,"ha":1000,"o":"m 750 875 l 125 875 l 125 1000 l 750 1000 l 750 875 m 250 125 l 0 125 l 0 375 l 125 375 l 125 500 l 0 500 l 0 750 l 250 750 l 250 500 l 375 500 l 375 750 l 500 750 l 500 500 l 625 500 l 625 750 l 875 750 l 875 500 l 750 500 l 750 375 l 875 375 l 875 125 l 625 125 l 625 375 l 500 375 l 500 125 l 375 125 l 375 375 l 250 375 l 250 125"},"ӌ":{"x_min":0,"x_max":1000,"ha":1000,"o":"m 875 750 l 875 250 l 1000 250 l 1000 0 l 750 0 l 750 125 l 625 125 l 625 375 l 125 375 l 125 500 l 0 500 l 0 750 l 250 750 l 250 500 l 625 500 l 625 750 l 875 750"},"ӑ":{"x_min":0,"x_max":875,"ha":1000,"o":"m 750 875 l 125 875 l 125 1000 l 750 1000 l 750 875 m 875 125 l 125 125 l 125 250 l 0 250 l 0 375 l 125 375 l 125 500 l 625 500 l 625 625 l 125 625 l 125 750 l 750 750 l 750 625 l 875 625 l 875 125 m 250 375 l 250 250 l 625 250 l 625 375 l 250 375"},"ӓ":{"x_min":0,"x_max":875,"ha":1000,"o":"m 375 875 l 125 875 l 125 1000 l 375 1000 l 375 875 m 750 875 l 500 875 l 500 1000 l 750 1000 l 750 875 m 875 125 l 125 125 l 125 250 l 0 250 l 0 375 l 125 375 l 125 500 l 625 500 l 625 625 l 125 625 l 125 750 l 750 750 l 750 625 l 875 625 l 875 125 m 250 375 l 250 250 l 625 250 l 625 375 l 250 375"},"ӗ":{"x_min":0,"x_max":875,"ha":1000,"o":"m 750 875 l 125 875 l 125 1000 l 750 1000 l 750 875 m 750 125 l 125 125 l 125 250 l 0 250 l 0 625 l 125 625 l 125 750 l 750 750 l 750 625 l 875 625 l 875 375 l 250 375 l 250 250 l 750 250 l 750 125 m 250 625 l 250 500 l 625 500 l 625 625 l 250 625"},"ә":{"x_min":0,"x_max":875,"ha":1000,"o":"m 750 125 l 125 125 l 125 250 l 0 250 l 0 500 l 625 500 l 625 625 l 125 625 l 125 750 l 750 750 l 750 625 l 875 625 l 875 250 l 750 250 l 750 125 m 250 375 l 250 250 l 625 250 l 625 375 l 250 375"},"ӝ":{"x_min":0,"x_max":875,"ha":1000,"o":"m 375 875 l 125 875 l 125 1000 l 375 1000 l 375 875 m 750 875 l 500 875 l 500 1000 l 750 1000 l 750 875 m 250 125 l 0 125 l 0 375 l 125 375 l 125 500 l 0 500 l 0 750 l 250 750 l 250 500 l 375 500 l 375 750 l 500 750 l 500 500 l 625 500 l 625 750 l 875 750 l 875 500 l 750 500 l 750 375 l 875 375 l 875 125 l 625 125 l 625 375 l 500 375 l 500 125 l 375 125 l 375 375 l 250 375 l 250 125"},"ӟ":{"x_min":0,"x_max":875,"ha":1000,"o":"m 375 875 l 125 875 l 125 1000 l 375 1000 l 375 875 m 750 875 l 500 875 l 500 1000 l 750 1000 l 750 875 m 750 125 l 125 125 l 125 250 l 0 250 l 0 375 l 250 375 l 250 250 l 625 250 l 625 375 l 375 375 l 375 500 l 625 500 l 625 625 l 250 625 l 250 500 l 0 500 l 0 625 l 125 625 l 125 750 l 750 750 l 750 625 l 875 625 l 875 500 l 750 500 l 750 375 l 875 375 l 875 250 l 750 250 l 750 125"},"ӣ":{"x_min":0,"x_max":875,"ha":1000,"o":"m 750 1000 l 750 875 l 125 875 l 125 1000 l 750 1000 m 250 750 l 250 375 l 375 375 l 375 250 l 250 250 l 250 125 l 0 125 l 0 750 l 250 750 m 625 750 l 875 750 l 875 125 l 625 125 l 625 500 l 500 500 l 500 625 l 625 625 l 625 750 m 375 375 l 375 500 l 500 500 l 500 375 l 375 375"},"ӥ":{"x_min":0,"x_max":875,"ha":1000,"o":"m 375 1000 l 375 875 l 125 875 l 125 1000 l 375 1000 m 750 1000 l 750 875 l 500 875 l 500 1000 l 750 1000 m 250 750 l 250 375 l 375 375 l 375 250 l 250 250 l 250 125 l 0 125 l 0 750 l 250 750 m 625 750 l 875 750 l 875 125 l 625 125 l 625 500 l 500 500 l 500 625 l 625 625 l 625 750 m 375 375 l 375 500 l 500 500 l 500 375 l 375 375"},"ӧ":{"x_min":0,"x_max":875,"ha":1000,"o":"m 375 875 l 125 875 l 125 1000 l 375 1000 l 375 875 m 750 875 l 500 875 l 500 1000 l 750 1000 l 750 875 m 750 125 l 125 125 l 125 250 l 0 250 l 0 625 l 125 625 l 125 750 l 750 750 l 750 625 l 875 625 l 875 250 l 750 250 l 750 125 m 250 625 l 250 250 l 625 250 l 625 625 l 250 625"},"ө":{"x_min":0,"x_max":875,"ha":1000,"o":"m 750 125 l 125 125 l 125 250 l 0 250 l 0 625 l 125 625 l 125 750 l 750 750 l 750 625 l 875 625 l 875 250 l 750 250 l 750 125 m 250 625 l 250 250 l 625 250 l 625 625 l 250 625 m 125 500 l 125 375 l 750 375 l 750 500 l 125 500"},"ӯ":{"x_min":0,"x_max":875,"ha":1000,"o":"m 750 875 l 125 875 l 125 1000 l 750 1000 l 750 875 m 750 0 l 125 0 l 125 125 l 625 125 l 625 250 l 125 250 l 125 375 l 0 375 l 0 750 l 250 750 l 250 375 l 625 375 l 625 750 l 875 750 l 875 125 l 750 125 l 750 0"},"ӱ":{"x_min":0,"x_max":875,"ha":1000,"o":"m 375 875 l 125 875 l 125 1000 l 375 1000 l 375 875 m 750 875 l 500 875 l 500 1000 l 750 1000 l 750 875 m 750 0 l 125 0 l 125 125 l 625 125 l 625 250 l 125 250 l 125 375 l 0 375 l 0 750 l 250 750 l 250 375 l 625 375 l 625 750 l 875 750 l 875 125 l 750 125 l 750 0"},"ӳ":{"x_min":0,"x_max":875,"ha":1000,"o":"m 375 1000 l 375 875 l 250 875 l 250 1000 l 375 1000 m 750 1000 l 750 875 l 625 875 l 625 1000 l 750 1000 m 625 750 l 875 750 l 875 125 l 750 125 l 750 0 l 125 0 l 125 125 l 625 125 l 625 250 l 125 250 l 125 375 l 0 375 l 0 750 l 125 750 l 125 875 l 250 875 l 250 375 l 625 375 l 625 750 m 500 875 l 625 875 l 625 750 l 500 750 l 500 875"},"ӵ":{"x_min":0,"x_max":875,"ha":1000,"o":"m 375 875 l 125 875 l 125 1000 l 375 1000 l 375 875 m 750 875 l 500 875 l 500 1000 l 750 1000 l 750 875 m 875 125 l 625 125 l 625 375 l 125 375 l 125 500 l 0 500 l 0 750 l 250 750 l 250 500 l 625 500 l 625 750 l 875 750 l 875 125"},"ӷ":{"x_min":125,"x_max":875,"ha":1000,"o":"m 125 750 l 875 750 l 875 500 l 750 500 l 750 625 l 375 625 l 375 250 l 500 250 l 500 0 l 250 0 l 250 125 l 125 125 l 125 750"},"ӹ":{"x_min":0,"x_max":875,"ha":1000,"o":"m 375 875 l 125 875 l 125 1000 l 375 1000 l 375 875 m 750 875 l 500 875 l 500 1000 l 750 1000 l 750 875 m 500 125 l 0 125 l 0 750 l 250 750 l 250 500 l 500 500 l 500 125 m 875 125 l 625 125 l 625 750 l 875 750 l 875 125 m 250 375 l 250 250 l 375 250 l 375 375 l 250 375"},"ԛ":{"x_min":0,"x_max":875,"ha":1000,"o":"m 875 0 l 625 0 l 625 250 l 125 250 l 125 375 l 0 375 l 0 625 l 125 625 l 125 750 l 875 750 l 875 0 m 250 625 l 250 375 l 625 375 l 625 625 l 250 625"},"ԝ":{"x_min":0,"x_max":875,"ha":1000,"o":"m 250 750 l 250 250 l 375 250 l 375 125 l 125 125 l 125 250 l 0 250 l 0 750 l 250 750 m 375 750 l 500 750 l 500 250 l 375 250 l 375 750 m 625 750 l 875 750 l 875 250 l 750 250 l 750 125 l 500 125 l 500 250 l 625 250 l 625 750"},"Ҥ":{"x_min":0,"x_max":875,"ha":1000,"o":"m 375 625 l 375 1000 l 875 1000 l 875 750 l 750 750 l 750 875 l 625 875 l 625 125 l 375 125 l 375 500 l 250 500 l 250 125 l 0 125 l 0 1000 l 250 1000 l 250 625 l 375 625"},"ҥ":{"x_min":0,"x_max":875,"ha":1000,"o":"m 375 500 l 375 750 l 875 750 l 875 500 l 750 500 l 750 625 l 625 625 l 625 125 l 375 125 l 375 375 l 250 375 l 250 125 l 0 125 l 0 750 l 250 750 l 250 500 l 375 500"},"Ӕ":{"x_min":0,"x_max":875,"ha":1000,"o":"m 250 125 l 0 125 l 0 750 l 125 750 l 125 875 l 250 875 l 250 1000 l 875 1000 l 875 875 l 625 875 l 625 625 l 875 625 l 875 500 l 625 500 l 625 250 l 875 250 l 875 125 l 375 125 l 375 375 l 250 375 l 250 125 m 250 750 l 250 500 l 375 500 l 375 750 l 250 750"},"ӕ":{"x_min":0,"x_max":875,"ha":1000,"o":"m 750 125 l 125 125 l 125 250 l 0 250 l 0 375 l 125 375 l 125 500 l 375 500 l 375 625 l 125 625 l 125 750 l 750 750 l 750 625 l 875 625 l 875 500 l 750 500 l 750 375 l 500 375 l 500 250 l 750 250 l 750 125 m 500 625 l 500 500 l 625 500 l 625 625 l 500 625 m 250 375 l 250 250 l 375 250 l 375 375 l 250 375"},"Α":{"x_min":0,"x_max":875,"ha":1000,"o":"m 250 125 l 0 125 l 0 750 l 125 750 l 125 875 l 250 875 l 250 1000 l 625 1000 l 625 875 l 750 875 l 750 750 l 875 750 l 875 125 l 625 125 l 625 375 l 250 375 l 250 125 m 250 750 l 250 500 l 625 500 l 625 750 l 500 750 l 500 875 l 375 875 l 375 750 l 250 750"},"Β":{"x_min":0,"x_max":875,"ha":1000,"o":"m 750 125 l 0 125 l 0 1000 l 750 1000 l 750 875 l 875 875 l 875 625 l 750 625 l 750 500 l 875 500 l 875 250 l 750 250 l 750 125 m 250 875 l 250 625 l 625 625 l 625 875 l 250 875 m 250 500 l 250 250 l 625 250 l 625 500 l 250 500"},"Γ":{"x_min":125,"x_max":875,"ha":1000,"o":"m 375 125 l 125 125 l 125 1000 l 875 1000 l 875 875 l 375 875 l 375 125"},"Δ":{"x_min":0,"x_max":875,"ha":1000,"o":"m 875 125 l 0 125 l 0 750 l 125 750 l 125 875 l 250 875 l 250 1000 l 625 1000 l 625 875 l 750 875 l 750 750 l 875 750 l 875 125 m 250 750 l 250 250 l 625 250 l 625 750 l 500 750 l 500 875 l 375 875 l 375 750 l 250 750"},"Ε":{"x_min":0,"x_max":875,"ha":1000,"o":"m 875 125 l 0 125 l 0 1000 l 875 1000 l 875 875 l 250 875 l 250 625 l 750 625 l 750 500 l 250 500 l 250 250 l 875 250 l 875 125"},"Ζ":{"x_min":0,"x_max":875,"ha":1000,"o":"m 875 125 l 0 125 l 0 375 l 125 375 l 125 500 l 250 500 l 250 625 l 375 625 l 375 750 l 500 750 l 500 875 l 0 875 l 0 1000 l 875 1000 l 875 750 l 750 750 l 750 625 l 625 625 l 625 500 l 500 500 l 500 375 l 375 375 l 375 250 l 875 250 l 875 125"},"Η":{"x_min":0,"x_max":875,"ha":1000,"o":"m 250 125 l 0 125 l 0 1000 l 250 1000 l 250 625 l 625 625 l 625 1000 l 875 1000 l 875 125 l 625 125 l 625 500 l 250 500 l 250 125"},"Θ":{"x_min":0,"x_max":875,"ha":1000,"o":"m 750 125 l 125 125 l 125 250 l 0 250 l 0 875 l 125 875 l 125 1000 l 750 1000 l 750 875 l 875 875 l 875 250 l 750 250 l 750 125 m 250 875 l 250 625 l 625 625 l 625 875 l 250 875 m 250 500 l 250 250 l 625 250 l 625 500 l 250 500"},"Ι":{"x_min":125,"x_max":875,"ha":1000,"o":"m 875 125 l 125 125 l 125 250 l 375 250 l 375 875 l 125 875 l 125 1000 l 875 1000 l 875 875 l 625 875 l 625 250 l 875 250 l 875 125"},"Κ":{"x_min":0,"x_max":875,"ha":1000,"o":"m 250 125 l 0 125 l 0 1000 l 250 1000 l 250 625 l 375 625 l 375 750 l 500 750 l 500 875 l 625 875 l 625 1000 l 875 1000 l 875 875 l 750 875 l 750 750 l 625 750 l 625 625 l 500 625 l 500 500 l 625 500 l 625 375 l 750 375 l 750 250 l 875 250 l 875 125 l 500 125 l 500 250 l 375 250 l 375 375 l 250 375 l 250 125"},"Λ":{"x_min":0,"x_max":875,"ha":1000,"o":"m 250 125 l 0 125 l 0 750 l 125 750 l 125 875 l 250 875 l 250 1000 l 625 1000 l 625 875 l 750 875 l 750 750 l 875 750 l 875 125 l 625 125 l 625 750 l 500 750 l 500 875 l 375 875 l 375 750 l 250 750 l 250 125"},"Μ":{"x_min":0,"x_max":875,"ha":1000,"o":"m 250 125 l 0 125 l 0 1000 l 250 1000 l 250 875 l 375 875 l 375 750 l 500 750 l 500 875 l 625 875 l 625 1000 l 875 1000 l 875 125 l 625 125 l 625 625 l 500 625 l 500 375 l 375 375 l 375 625 l 250 625 l 250 125"},"Ν":{"x_min":0,"x_max":875,"ha":1000,"o":"m 250 125 l 0 125 l 0 1000 l 250 1000 l 250 875 l 375 875 l 375 750 l 500 750 l 500 625 l 625 625 l 625 1000 l 875 1000 l 875 125 l 625 125 l 625 375 l 500 375 l 500 500 l 375 500 l 375 625 l 250 625 l 250 125"},"Ξ":{"x_min":0,"x_max":875,"ha":1000,"o":"m 875 875 l 0 875 l 0 1000 l 875 1000 l 875 875 m 750 500 l 125 500 l 125 625 l 750 625 l 750 500 m 875 125 l 0 125 l 0 250 l 875 250 l 875 125"},"Ο":{"x_min":0,"x_max":875,"ha":1000,"o":"m 750 125 l 125 125 l 125 250 l 0 250 l 0 875 l 125 875 l 125 1000 l 750 1000 l 750 875 l 875 875 l 875 250 l 750 250 l 750 125 m 250 875 l 250 250 l 625 250 l 625 875 l 250 875"},"Π":{"x_min":0,"x_max":875,"ha":1000,"o":"m 250 125 l 0 125 l 0 1000 l 875 1000 l 875 125 l 625 125 l 625 875 l 250 875 l 250 125"},"Ρ":{"x_min":0,"x_max":875,"ha":1000,"o":"m 250 125 l 0 125 l 0 1000 l 750 1000 l 750 875 l 875 875 l 875 500 l 750 500 l 750 375 l 250 375 l 250 125 m 250 875 l 250 500 l 625 500 l 625 875 l 250 875"},"Σ":{"x_min":0,"x_max":875,"ha":1000,"o":"m 875 125 l 0 125 l 0 250 l 125 250 l 125 375 l 250 375 l 250 500 l 375 500 l 375 625 l 250 625 l 250 750 l 125 750 l 125 875 l 0 875 l 0 1000 l 875 1000 l 875 750 l 625 750 l 625 875 l 375 875 l 375 750 l 500 750 l 500 625 l 750 625 l 750 500 l 500 500 l 500 375 l 375 375 l 375 250 l 625 250 l 625 375 l 875 375 l 875 125"},"Τ":{"x_min":125,"x_max":875,"ha":1000,"o":"m 625 125 l 375 125 l 375 875 l 125 875 l 125 1000 l 875 1000 l 875 875 l 625 875 l 625 125"},"Υ":{"x_min":125,"x_max":875,"ha":1000,"o":"m 625 125 l 375 125 l 375 500 l 250 500 l 250 625 l 125 625 l 125 1000 l 375 1000 l 375 625 l 625 625 l 625 1000 l 875 1000 l 875 625 l 750 625 l 750 500 l 625 500 l 625 125"},"Φ":{"x_min":0,"x_max":875,"ha":1000,"o":"m 500 125 l 375 125 l 375 250 l 125 250 l 125 375 l 0 375 l 0 750 l 125 750 l 125 875 l 375 875 l 375 1000 l 500 1000 l 500 875 l 750 875 l 750 750 l 875 750 l 875 375 l 750 375 l 750 250 l 500 250 l 500 125 m 250 750 l 250 375 l 375 375 l 375 750 l 250 750 m 500 750 l 500 375 l 625 375 l 625 750 l 500 750"},"Χ":{"x_min":0,"x_max":875,"ha":1000,"o":"m 250 125 l 0 125 l 0 375 l 125 375 l 125 500 l 250 500 l 250 625 l 125 625 l 125 750 l 0 750 l 0 1000 l 250 1000 l 250 750 l 375 750 l 375 625 l 500 625 l 500 750 l 625 750 l 625 1000 l 875 1000 l 875 750 l 750 750 l 750 625 l 625 625 l 625 500 l 750 500 l 750 375 l 875 375 l 875 125 l 625 125 l 625 375 l 500 375 l 500 500 l 375 500 l 375 375 l 250 375 l 250 125"},"Ψ":{"x_min":0,"x_max":1000,"ha":1000,"o":"m 750 125 l 250 125 l 250 250 l 375 250 l 375 500 l 125 500 l 125 625 l 0 625 l 0 1000 l 250 1000 l 250 625 l 375 625 l 375 1000 l 625 1000 l 625 625 l 750 625 l 750 1000 l 1000 1000 l 1000 625 l 875 625 l 875 500 l 625 500 l 625 250 l 750 250 l 750 125"},"Ω":{"x_min":0,"x_max":875,"ha":1000,"o":"m 375 125 l 0 125 l 0 250 l 125 250 l 125 375 l 0 375 l 0 750 l 125 750 l 125 875 l 250 875 l 250 1000 l 625 1000 l 625 875 l 750 875 l 750 750 l 875 750 l 875 375 l 750 375 l 750 250 l 875 250 l 875 125 l 500 125 l 500 375 l 625 375 l 625 750 l 500 750 l 500 875 l 375 875 l 375 750 l 250 750 l 250 375 l 375 375 l 375 125"},"Ά":{"x_min":0,"x_max":875,"ha":1000,"o":"m 750 750 l 875 750 l 875 125 l 625 125 l 625 375 l 375 375 l 375 125 l 125 125 l 125 750 l 250 750 l 250 875 l 375 875 l 375 1000 l 625 1000 l 625 875 l 750 875 l 750 750 m 250 1000 l 250 875 l 125 875 l 125 1000 l 250 1000 m 0 875 l 125 875 l 125 750 l 0 750 l 0 875 m 625 500 l 625 750 l 375 750 l 375 500 l 625 500"},"Έ":{"x_min":0,"x_max":1000,"ha":1000,"o":"m 125 1000 l 1000 1000 l 1000 875 l 500 875 l 500 625 l 750 625 l 750 500 l 500 500 l 500 250 l 1000 250 l 1000 125 l 250 125 l 250 875 l 125 875 l 125 1000 m 0 750 l 0 875 l 125 875 l 125 750 l 0 750"},"Ή":{"x_min":0,"x_max":1000,"ha":1000,"o":"m 750 1000 l 1000 1000 l 1000 125 l 750 125 l 750 500 l 500 500 l 500 125 l 250 125 l 250 875 l 125 875 l 125 1000 l 500 1000 l 500 625 l 750 625 l 750 1000 m 0 750 l 0 875 l 125 875 l 125 750 l 0 750"},"Ί":{"x_min":0,"x_max":875,"ha":1000,"o":"m 125 875 l 125 1000 l 250 1000 l 250 875 l 125 875 m 375 1000 l 875 1000 l 875 875 l 750 875 l 750 250 l 875 250 l 875 125 l 375 125 l 375 250 l 500 250 l 500 875 l 375 875 l 375 1000 m 0 750 l 0 875 l 125 875 l 125 750 l 0 750"},"Ό":{"x_min":0,"x_max":1000,"ha":1000,"o":"m 125 1000 l 250 1000 l 250 875 l 125 875 l 125 1000 m 875 875 l 1000 875 l 1000 250 l 875 250 l 875 125 l 375 125 l 375 250 l 250 250 l 250 875 l 375 875 l 375 1000 l 875 1000 l 875 875 m 0 750 l 0 875 l 125 875 l 125 750 l 0 750 m 750 250 l 750 875 l 500 875 l 500 250 l 750 250"},"Ύ":{"x_min":0,"x_max":1000,"ha":1000,"o":"m 750 1000 l 1000 1000 l 1000 625 l 875 625 l 875 500 l 750 500 l 750 125 l 500 125 l 500 500 l 375 500 l 375 625 l 250 625 l 250 875 l 125 875 l 125 1000 l 500 1000 l 500 625 l 750 625 l 750 1000 m 0 750 l 0 875 l 125 875 l 125 750 l 0 750"},"Ώ":{"x_min":0,"x_max":1000,"ha":1000,"o":"m 875 750 l 1000 750 l 1000 375 l 875 375 l 875 250 l 1000 250 l 1000 125 l 625 125 l 625 375 l 750 375 l 750 750 l 625 750 l 625 875 l 500 875 l 500 750 l 375 750 l 375 375 l 500 375 l 500 125 l 125 125 l 125 250 l 250 250 l 250 375 l 125 375 l 125 750 l 250 750 l 250 875 l 375 875 l 375 1000 l 750 1000 l 750 875 l 875 875 l 875 750 m 250 1000 l 250 875 l 125 875 l 125 1000 l 250 1000 m 0 875 l 125 875 l 125 750 l 0 750 l 0 875"},"Ϊ":{"x_min":125,"x_max":875,"ha":1000,"o":"m 375 875 l 125 875 l 125 1000 l 375 1000 l 375 875 m 875 875 l 625 875 l 625 1000 l 875 1000 l 875 875 m 875 125 l 125 125 l 125 250 l 375 250 l 375 625 l 125 625 l 125 750 l 875 750 l 875 625 l 625 625 l 625 250 l 875 250 l 875 125"},"Ϋ":{"x_min":125,"x_max":875,"ha":1000,"o":"m 375 875 l 125 875 l 125 1000 l 375 1000 l 375 875 m 875 875 l 625 875 l 625 1000 l 875 1000 l 875 875 m 625 125 l 375 125 l 375 375 l 250 375 l 250 500 l 125 500 l 125 750 l 375 750 l 375 500 l 625 500 l 625 750 l 875 750 l 875 500 l 750 500 l 750 375 l 625 375 l 625 125"},"α":{"x_min":0,"x_max":875,"ha":1000,"o":"m 875 125 l 125 125 l 125 250 l 0 250 l 0 625 l 125 625 l 125 750 l 875 750 l 875 125 m 250 625 l 250 250 l 625 250 l 625 625 l 250 625"},"β":{"x_min":0,"x_max":875,"ha":1000,"o":"m 250 0 l 0 0 l 0 875 l 125 875 l 125 1000 l 750 1000 l 750 875 l 875 875 l 875 625 l 750 625 l 750 500 l 875 500 l 875 250 l 750 250 l 750 125 l 250 125 l 250 0 m 250 875 l 250 625 l 625 625 l 625 875 l 250 875 m 250 500 l 250 250 l 625 250 l 625 500 l 250 500"},"γ":{"x_min":0,"x_max":875,"ha":1000,"o":"m 625 0 l 375 0 l 375 250 l 250 250 l 250 375 l 125 375 l 125 625 l 0 625 l 0 750 l 250 750 l 250 625 l 375 625 l 375 375 l 625 375 l 625 750 l 875 750 l 875 375 l 750 375 l 750 250 l 625 250 l 625 0"},"δ":{"x_min":0,"x_max":875,"ha":1000,"o":"m 750 125 l 125 125 l 125 250 l 0 250 l 0 500 l 125 500 l 125 625 l 500 625 l 500 750 l 375 750 l 375 875 l 500 875 l 500 1000 l 875 1000 l 875 875 l 625 875 l 625 750 l 750 750 l 750 625 l 875 625 l 875 250 l 750 250 l 750 125 m 250 500 l 250 250 l 625 250 l 625 500 l 250 500"},"ε":{"x_min":0,"x_max":875,"ha":1000,"o":"m 875 125 l 125 125 l 125 250 l 0 250 l 0 375 l 125 375 l 125 500 l 0 500 l 0 625 l 125 625 l 125 750 l 875 750 l 875 625 l 250 625 l 250 500 l 750 500 l 750 375 l 250 375 l 250 250 l 875 250 l 875 125"},"ζ":{"x_min":0,"x_max":875,"ha":1000,"o":"m 750 0 l 500 0 l 500 125 l 625 125 l 625 250 l 125 250 l 125 375 l 0 375 l 0 625 l 125 625 l 125 750 l 250 750 l 250 875 l 125 875 l 125 1000 l 750 1000 l 750 875 l 500 875 l 500 750 l 375 750 l 375 625 l 250 625 l 250 375 l 750 375 l 750 250 l 875 250 l 875 125 l 750 125 l 750 0"},"η":{"x_min":0,"x_max":875,"ha":1000,"o":"m 250 750 l 250 625 l 375 625 l 375 125 l 125 125 l 125 625 l 0 625 l 0 750 l 250 750 m 750 625 l 875 625 l 875 0 l 625 0 l 625 625 l 375 625 l 375 750 l 750 750 l 750 625"},"θ":{"x_min":0,"x_max":875,"ha":1000,"o":"m 625 125 l 250 125 l 250 250 l 125 250 l 125 375 l 0 375 l 0 750 l 125 750 l 125 875 l 250 875 l 250 1000 l 625 1000 l 625 875 l 750 875 l 750 750 l 875 750 l 875 375 l 750 375 l 750 250 l 625 250 l 625 125 m 250 750 l 250 625 l 625 625 l 625 750 l 500 750 l 500 875 l 375 875 l 375 750 l 250 750 m 375 375 l 375 250 l 500 250 l 500 375 l 625 375 l 625 500 l 250 500 l 250 375 l 375 375"},"ι":{"x_min":125,"x_max":750,"ha":1000,"o":"m 750 125 l 375 125 l 375 250 l 250 250 l 250 625 l 125 625 l 125 750 l 500 750 l 500 250 l 750 250 l 750 125"},"κ":{"x_min":0,"x_max":875,"ha":1000,"o":"m 250 125 l 0 125 l 0 750 l 250 750 l 250 500 l 500 500 l 500 625 l 625 625 l 625 750 l 875 750 l 875 625 l 750 625 l 750 500 l 625 500 l 625 375 l 750 375 l 750 250 l 875 250 l 875 125 l 625 125 l 625 250 l 500 250 l 500 375 l 250 375 l 250 125"},"λ":{"x_min":0,"x_max":875,"ha":1000,"o":"m 250 125 l 0 125 l 0 375 l 125 375 l 125 500 l 250 500 l 250 750 l 125 750 l 125 875 l 0 875 l 0 1000 l 250 1000 l 250 875 l 375 875 l 375 750 l 500 750 l 500 625 l 625 625 l 625 500 l 750 500 l 750 375 l 875 375 l 875 125 l 625 125 l 625 375 l 500 375 l 500 500 l 375 500 l 375 375 l 250 375 l 250 125"},"μ":{"x_min":0,"x_max":875,"ha":1000,"o":"m 250 750 l 250 250 l 500 250 l 500 125 l 250 125 l 250 0 l 0 0 l 0 750 l 250 750 m 750 250 l 875 250 l 875 125 l 625 125 l 625 250 l 500 250 l 500 750 l 750 750 l 750 250"},"ν":{"x_min":0,"x_max":875,"ha":1000,"o":"m 625 125 l 375 125 l 375 250 l 250 250 l 250 375 l 125 375 l 125 625 l 0 625 l 0 750 l 250 750 l 250 625 l 375 625 l 375 375 l 625 375 l 625 750 l 875 750 l 875 375 l 750 375 l 750 250 l 625 250 l 625 125"},"ξ":{"x_min":0,"x_max":750,"ha":1000,"o":"m 625 0 l 375 0 l 375 125 l 500 125 l 500 250 l 125 250 l 125 375 l 0 375 l 0 500 l 125 500 l 125 625 l 250 625 l 250 750 l 125 750 l 125 875 l 0 875 l 0 1000 l 750 1000 l 750 875 l 375 875 l 375 750 l 625 750 l 625 625 l 375 625 l 375 500 l 250 500 l 250 375 l 625 375 l 625 250 l 750 250 l 750 125 l 625 125 l 625 0"},"ο":{"x_min":0,"x_max":875,"ha":1000,"o":"m 750 125 l 125 125 l 125 250 l 0 250 l 0 625 l 125 625 l 125 750 l 750 750 l 750 625 l 875 625 l 875 250 l 750 250 l 750 125 m 250 625 l 250 250 l 625 250 l 625 625 l 250 625"},"π":{"x_min":0,"x_max":875,"ha":1000,"o":"m 375 125 l 0 125 l 0 250 l 125 250 l 125 625 l 0 625 l 0 750 l 875 750 l 875 625 l 750 625 l 750 250 l 875 250 l 875 125 l 625 125 l 625 250 l 500 250 l 500 625 l 375 625 l 375 125"},"ρ":{"x_min":0,"x_max":875,"ha":1000,"o":"m 250 0 l 0 0 l 0 625 l 125 625 l 125 750 l 750 750 l 750 625 l 875 625 l 875 375 l 750 375 l 750 250 l 250 250 l 250 0 m 250 625 l 250 375 l 625 375 l 625 625 l 250 625"},"ς":{"x_min":0,"x_max":875,"ha":1000,"o":"m 750 0 l 125 0 l 125 125 l 625 125 l 625 250 l 125 250 l 125 375 l 0 375 l 0 625 l 125 625 l 125 750 l 750 750 l 750 625 l 250 625 l 250 375 l 750 375 l 750 250 l 875 250 l 875 125 l 750 125 l 750 0"},"σ":{"x_min":0,"x_max":875,"ha":1000,"o":"m 625 125 l 125 125 l 125 250 l 0 250 l 0 625 l 125 625 l 125 750 l 875 750 l 875 625 l 625 625 l 625 500 l 750 500 l 750 250 l 625 250 l 625 125 m 250 625 l 250 250 l 500 250 l 500 500 l 375 500 l 375 625 l 250 625"},"τ":{"x_min":125,"x_max":875,"ha":1000,"o":"m 875 125 l 500 125 l 500 250 l 375 250 l 375 625 l 125 625 l 125 750 l 875 750 l 875 625 l 625 625 l 625 250 l 875 250 l 875 125"},"υ":{"x_min":0,"x_max":875,"ha":1000,"o":"m 750 125 l 250 125 l 250 250 l 125 250 l 125 625 l 0 625 l 0 750 l 250 750 l 250 625 l 375 625 l 375 250 l 625 250 l 625 625 l 500 625 l 500 750 l 750 750 l 750 625 l 875 625 l 875 250 l 750 250 l 750 125"},"φ":{"x_min":0,"x_max":875,"ha":1000,"o":"m 750 625 l 875 625 l 875 250 l 750 250 l 750 125 l 500 125 l 500 0 l 375 0 l 375 125 l 125 125 l 125 250 l 0 250 l 0 625 l 125 625 l 125 750 l 250 750 l 250 250 l 375 250 l 375 625 l 500 625 l 500 250 l 625 250 l 625 625 l 500 625 l 500 750 l 750 750 l 750 625"},"χ":{"x_min":0,"x_max":875,"ha":1000,"o":"m 250 0 l 0 0 l 0 250 l 125 250 l 125 375 l 250 375 l 250 500 l 125 500 l 125 625 l 0 625 l 0 750 l 250 750 l 250 625 l 375 625 l 375 500 l 500 500 l 500 625 l 625 625 l 625 750 l 875 750 l 875 625 l 750 625 l 750 500 l 625 500 l 625 375 l 750 375 l 750 250 l 875 250 l 875 0 l 625 0 l 625 250 l 500 250 l 500 375 l 375 375 l 375 250 l 250 250 l 250 0"},"ψ":{"x_min":0,"x_max":1000,"ha":1000,"o":"m 625 0 l 375 0 l 375 125 l 125 125 l 125 250 l 0 250 l 0 750 l 250 750 l 250 250 l 375 250 l 375 875 l 625 875 l 625 250 l 750 250 l 750 750 l 1000 750 l 1000 250 l 875 250 l 875 125 l 625 125 l 625 0"},"ω":{"x_min":0,"x_max":875,"ha":1000,"o":"m 250 750 l 250 250 l 375 250 l 375 125 l 125 125 l 125 250 l 0 250 l 0 625 l 125 625 l 125 750 l 250 750 m 750 625 l 875 625 l 875 250 l 750 250 l 750 125 l 500 125 l 500 250 l 625 250 l 625 750 l 750 750 l 750 625 m 375 625 l 500 625 l 500 250 l 375 250 l 375 625"},"ί":{"x_min":125,"x_max":750,"ha":1000,"o":"m 500 1000 l 500 875 l 375 875 l 375 1000 l 500 1000 m 500 250 l 750 250 l 750 125 l 375 125 l 375 250 l 250 250 l 250 625 l 125 625 l 125 750 l 250 750 l 250 875 l 375 875 l 375 750 l 500 750 l 500 250"},"ϊ":{"x_min":0,"x_max":750,"ha":1000,"o":"m 250 875 l 0 875 l 0 1000 l 250 1000 l 250 875 m 625 875 l 375 875 l 375 1000 l 625 1000 l 625 875 m 750 125 l 375 125 l 375 250 l 250 250 l 250 625 l 125 625 l 125 750 l 500 750 l 500 250 l 750 250 l 750 125"},"ΐ":{"x_min":0,"x_max":750,"ha":1000,"o":"m 125 1000 l 125 875 l 0 875 l 0 1000 l 125 1000 m 500 1000 l 500 875 l 375 875 l 375 1000 l 500 1000 m 625 1000 l 750 1000 l 750 875 l 625 875 l 625 1000 m 500 750 l 500 250 l 750 250 l 750 125 l 375 125 l 375 250 l 250 250 l 250 625 l 125 625 l 125 750 l 250 750 l 250 875 l 375 875 l 375 750 l 500 750"},"ύ":{"x_min":0,"x_max":875,"ha":1000,"o":"m 625 1000 l 625 875 l 500 875 l 500 1000 l 625 1000 m 375 875 l 500 875 l 500 750 l 375 750 l 375 875 m 750 625 l 875 625 l 875 250 l 750 250 l 750 125 l 250 125 l 250 250 l 125 250 l 125 625 l 0 625 l 0 750 l 250 750 l 250 625 l 375 625 l 375 250 l 625 250 l 625 625 l 500 625 l 500 750 l 750 750 l 750 625"},"ϋ":{"x_min":0,"x_max":875,"ha":1000,"o":"m 375 875 l 125 875 l 125 1000 l 375 1000 l 375 875 m 750 875 l 500 875 l 500 1000 l 750 1000 l 750 875 m 750 125 l 250 125 l 250 250 l 125 250 l 125 625 l 0 625 l 0 750 l 250 750 l 250 625 l 375 625 l 375 250 l 625 250 l 625 625 l 500 625 l 500 750 l 750 750 l 750 625 l 875 625 l 875 250 l 750 250 l 750 125"},"ΰ":{"x_min":0,"x_max":875,"ha":1000,"o":"m 125 1000 l 125 875 l 0 875 l 0 1000 l 125 1000 m 500 1000 l 500 875 l 375 875 l 375 1000 l 500 1000 m 750 1000 l 750 875 l 625 875 l 625 1000 l 750 1000 m 375 875 l 375 750 l 250 750 l 250 875 l 375 875 m 750 625 l 875 625 l 875 250 l 750 250 l 750 125 l 250 125 l 250 250 l 125 250 l 125 625 l 0 625 l 0 750 l 250 750 l 250 625 l 375 625 l 375 250 l 625 250 l 625 625 l 500 625 l 500 750 l 750 750 l 750 625"},"ό":{"x_min":0,"x_max":875,"ha":1000,"o":"m 625 1000 l 625 875 l 500 875 l 500 1000 l 625 1000 m 750 625 l 875 625 l 875 250 l 750 250 l 750 125 l 125 125 l 125 250 l 0 250 l 0 625 l 125 625 l 125 750 l 375 750 l 375 875 l 500 875 l 500 750 l 750 750 l 750 625 m 625 250 l 625 625 l 250 625 l 250 250 l 625 250"},"ώ":{"x_min":0,"x_max":875,"ha":1000,"o":"m 625 1000 l 625 875 l 500 875 l 500 1000 l 625 1000 m 500 875 l 500 750 l 375 750 l 375 875 l 500 875 m 250 750 l 250 250 l 375 250 l 375 125 l 125 125 l 125 250 l 0 250 l 0 625 l 125 625 l 125 750 l 250 750 m 750 625 l 875 625 l 875 250 l 750 250 l 750 125 l 500 125 l 500 250 l 625 250 l 625 750 l 750 750 l 750 625 m 375 625 l 500 625 l 500 250 l 375 250 l 375 625"},"ά":{"x_min":0,"x_max":875,"ha":1000,"o":"m 625 1000 l 625 875 l 500 875 l 500 1000 l 625 1000 m 500 750 l 875 750 l 875 125 l 125 125 l 125 250 l 0 250 l 0 625 l 125 625 l 125 750 l 375 750 l 375 875 l 500 875 l 500 750 m 625 250 l 625 625 l 250 625 l 250 250 l 625 250"},"έ":{"x_min":0,"x_max":875,"ha":1000,"o":"m 625 1000 l 625 875 l 500 875 l 500 1000 l 625 1000 m 500 750 l 875 750 l 875 625 l 250 625 l 250 500 l 750 500 l 750 375 l 250 375 l 250 250 l 875 250 l 875 125 l 125 125 l 125 250 l 0 250 l 0 375 l 125 375 l 125 500 l 0 500 l 0 625 l 125 625 l 125 750 l 375 750 l 375 875 l 500 875 l 500 750"},"ή":{"x_min":0,"x_max":875,"ha":1000,"o":"m 625 1000 l 625 875 l 500 875 l 500 1000 l 625 1000 m 750 625 l 875 625 l 875 0 l 625 0 l 625 625 l 375 625 l 375 875 l 500 875 l 500 750 l 750 750 l 750 625 m 250 750 l 250 625 l 375 625 l 375 125 l 125 125 l 125 625 l 0 625 l 0 750 l 250 750"},"ͺ":{"x_min":375,"x_max":750,"ha":1000,"o":"m 375 250 l 500 250 l 500 125 l 375 125 l 375 250 m 500 125 l 750 125 l 750 0 l 500 0 l 500 125"},"¹":{"x_min":250,"x_max":750,"ha":1000,"o":"m 750 500 l 250 500 l 250 625 l 375 625 l 375 750 l 250 750 l 250 875 l 375 875 l 375 1000 l 625 1000 l 625 625 l 750 625 l 750 500"},"²":{"x_min":250,"x_max":750,"ha":1000,"o":"m 750 500 l 250 500 l 250 625 l 375 625 l 375 750 l 500 750 l 500 875 l 250 875 l 250 1000 l 625 1000 l 625 875 l 750 875 l 750 750 l 625 750 l 625 625 l 750 625 l 750 500"},"³":{"x_min":250,"x_max":750,"ha":1000,"o":"m 625 500 l 250 500 l 250 625 l 500 625 l 500 750 l 375 750 l 375 875 l 250 875 l 250 1000 l 750 1000 l 750 875 l 625 875 l 625 750 l 750 750 l 750 625 l 625 625 l 625 500"},"⁴":{"x_min":250,"x_max":625,"ha":1000,"o":"m 625 500 l 500 500 l 500 625 l 250 625 l 250 750 l 375 750 l 375 875 l 500 875 l 500 1000 l 625 1000 l 625 500"},"⁄":{"x_min":0,"x_max":875,"ha":1000,"o":"m 750 1000 l 875 1000 l 875 875 l 750 875 l 750 1000 m 625 750 l 625 875 l 750 875 l 750 750 l 625 750 m 500 625 l 500 750 l 625 750 l 625 625 l 500 625 m 375 500 l 375 625 l 500 625 l 500 500 l 375 500 m 250 375 l 250 500 l 375 500 l 375 375 l 250 375 m 125 250 l 125 375 l 250 375 l 250 250 l 125 250 m 0 125 l 0 250 l 125 250 l 125 125 l 0 125"},"½":{"x_min":0,"x_max":875,"ha":1000,"o":"m 125 1000 l 250 1000 l 250 500 l 125 500 l 125 750 l 0 750 l 0 875 l 125 875 l 125 1000 m 750 1000 l 875 1000 l 875 875 l 750 875 l 750 1000 m 625 750 l 625 875 l 750 875 l 750 750 l 625 750 m 500 625 l 500 750 l 625 750 l 625 625 l 500 625 m 375 500 l 375 625 l 500 625 l 500 500 l 375 500 m 750 500 l 625 500 l 625 625 l 875 625 l 875 375 l 750 375 l 750 500 m 250 375 l 250 500 l 375 500 l 375 375 l 250 375 m 125 250 l 125 375 l 250 375 l 250 250 l 125 250 m 625 250 l 625 375 l 750 375 l 750 250 l 875 250 l 875 125 l 500 125 l 500 250 l 625 250 m 0 125 l 0 250 l 125 250 l 125 125 l 0 125"},"¼":{"x_min":0,"x_max":875,"ha":1000,"o":"m 125 1000 l 250 1000 l 250 500 l 125 500 l 125 750 l 0 750 l 0 875 l 125 875 l 125 1000 m 750 1000 l 875 1000 l 875 875 l 750 875 l 750 1000 m 625 750 l 625 875 l 750 875 l 750 750 l 625 750 m 500 625 l 500 750 l 625 750 l 625 625 l 500 625 m 375 500 l 375 625 l 500 625 l 500 500 l 375 500 m 750 500 l 750 625 l 875 625 l 875 125 l 750 125 l 750 250 l 500 250 l 500 375 l 625 375 l 625 500 l 750 500 m 250 375 l 250 500 l 375 500 l 375 375 l 250 375 m 125 250 l 125 375 l 250 375 l 250 250 l 125 250 m 0 125 l 0 250 l 125 250 l 125 125 l 0 125"},"¾":{"x_min":0,"x_max":875,"ha":1000,"o":"m 375 875 l 250 875 l 250 750 l 125 750 l 125 875 l 0 875 l 0 1000 l 375 1000 l 375 875 m 750 1000 l 875 1000 l 875 875 l 750 875 l 750 1000 m 625 750 l 625 875 l 750 875 l 750 750 l 625 750 m 375 750 l 375 625 l 250 625 l 250 750 l 375 750 m 500 625 l 500 750 l 625 750 l 625 625 l 500 625 m 0 625 l 250 625 l 250 500 l 0 500 l 0 625 m 375 500 l 375 625 l 500 625 l 500 500 l 375 500 m 750 500 l 750 625 l 875 625 l 875 125 l 750 125 l 750 250 l 500 250 l 500 375 l 625 375 l 625 500 l 750 500 m 250 375 l 250 500 l 375 500 l 375 375 l 250 375 m 125 250 l 125 375 l 250 375 l 250 250 l 125 250 m 0 125 l 0 250 l 125 250 l 125 125 l 0 125"},"*":{"x_min":0,"x_max":875,"ha":1000,"o":"m 375 250 l 125 250 l 125 375 l 250 375 l 250 500 l 0 500 l 0 625 l 250 625 l 250 750 l 125 750 l 125 875 l 375 875 l 375 750 l 500 750 l 500 875 l 750 875 l 750 750 l 625 750 l 625 625 l 875 625 l 875 500 l 625 500 l 625 375 l 750 375 l 750 250 l 500 250 l 500 375 l 375 375 l 375 250"},"\\":{"x_min":0,"x_max":875,"ha":1000,"o":"m 0 1000 l 125 1000 l 125 875 l 0 875 l 0 1000 m 125 875 l 250 875 l 250 750 l 125 750 l 125 875 m 250 750 l 375 750 l 375 625 l 250 625 l 250 750 m 375 625 l 500 625 l 500 500 l 375 500 l 375 625 m 500 500 l 625 500 l 625 375 l 500 375 l 500 500 m 625 375 l 750 375 l 750 250 l 625 250 l 625 375 m 750 250 l 875 250 l 875 125 l 750 125 l 750 250"},"·":{"x_min":250,"x_max":500,"ha":1000,"o":"m 500 375 l 250 375 l 250 625 l 500 625 l 500 375"},"•":{"x_min":250,"x_max":750,"ha":1000,"o":"m 625 250 l 375 250 l 375 375 l 250 375 l 250 625 l 375 625 l 375 750 l 625 750 l 625 625 l 750 625 l 750 375 l 625 375 l 625 250"},":":{"x_min":250,"x_max":500,"ha":1000,"o":"m 500 625 l 250 625 l 250 875 l 500 875 l 500 625 m 500 250 l 250 250 l 250 500 l 500 500 l 500 250"},",":{"x_min":125,"x_max":500,"ha":1000,"o":"m 375 0 l 125 0 l 125 125 l 250 125 l 250 375 l 500 375 l 500 125 l 375 125 l 375 0"},"…":{"x_min":0,"x_max":875,"ha":1000,"o":"m 125 125 l 0 125 l 0 375 l 125 375 l 125 125 m 500 125 l 375 125 l 375 375 l 500 375 l 500 125 m 875 125 l 750 125 l 750 375 l 875 375 l 875 125"},"!":{"x_min":250,"x_max":625,"ha":1000,"o":"m 500 375 l 250 375 l 250 1000 l 625 1000 l 625 625 l 500 625 l 500 375 m 500 125 l 250 125 l 250 250 l 500 250 l 500 125"},"¡":{"x_min":250,"x_max":625,"ha":1000,"o":"m 625 875 l 375 875 l 375 1000 l 625 1000 l 625 875 m 625 125 l 250 125 l 250 500 l 375 500 l 375 750 l 625 750 l 625 125"},"#":{"x_min":0,"x_max":875,"ha":1000,"o":"m 375 125 l 125 125 l 125 250 l 0 250 l 0 375 l 125 375 l 125 750 l 0 750 l 0 875 l 125 875 l 125 1000 l 375 1000 l 375 875 l 500 875 l 500 1000 l 750 1000 l 750 875 l 875 875 l 875 750 l 750 750 l 750 375 l 875 375 l 875 250 l 750 250 l 750 125 l 500 125 l 500 250 l 375 250 l 375 125 m 375 750 l 375 375 l 500 375 l 500 750 l 375 750"},".":{"x_min":250,"x_max":500,"ha":1000,"o":"m 500 125 l 250 125 l 250 375 l 500 375 l 500 125"},"?":{"x_min":0,"x_max":875,"ha":1000,"o":"m 625 375 l 250 375 l 250 500 l 500 500 l 500 625 l 625 625 l 625 750 l 250 750 l 250 625 l 0 625 l 0 875 l 125 875 l 125 1000 l 750 1000 l 750 875 l 875 875 l 875 625 l 750 625 l 750 500 l 625 500 l 625 375 m 625 125 l 250 125 l 250 250 l 625 250 l 625 125"},"¿":{"x_min":0,"x_max":875,"ha":1000,"o":"m 625 875 l 250 875 l 250 1000 l 625 1000 l 625 875 m 750 125 l 125 125 l 125 250 l 0 250 l 0 500 l 125 500 l 125 625 l 250 625 l 250 750 l 625 750 l 625 625 l 375 625 l 375 500 l 250 500 l 250 375 l 625 375 l 625 500 l 875 500 l 875 250 l 750 250 l 750 125"},"\"":{"x_min":125,"x_max":750,"ha":1000,"o":"m 375 625 l 125 625 l 125 1000 l 375 1000 l 375 625 m 750 625 l 500 625 l 500 1000 l 750 1000 l 750 625"},"'":{"x_min":250,"x_max":500,"ha":1000,"o":"m 500 625 l 250 625 l 250 1000 l 500 1000 l 500 625"},";":{"x_min":125,"x_max":500,"ha":1000,"o":"m 500 625 l 250 625 l 250 875 l 500 875 l 500 625 m 375 125 l 125 125 l 125 250 l 250 250 l 250 500 l 500 500 l 500 250 l 375 250 l 375 125"},"/":{"x_min":0,"x_max":875,"ha":1000,"o":"m 750 1000 l 875 1000 l 875 875 l 750 875 l 750 1000 m 625 750 l 625 875 l 750 875 l 750 750 l 625 750 m 500 625 l 500 750 l 625 750 l 625 625 l 500 625 m 375 500 l 375 625 l 500 625 l 500 500 l 375 500 m 250 375 l 250 500 l 375 500 l 375 375 l 250 375 m 125 250 l 125 375 l 250 375 l 250 250 l 125 250 m 0 125 l 0 250 l 125 250 l 125 125 l 0 125"},"_":{"x_min":0,"x_max":875,"ha":1000,"o":"m 875 0 l 0 0 l 0 125 l 875 125 l 875 0"},"{":{"x_min":250,"x_max":750,"ha":1000,"o":"m 750 125 l 500 125 l 500 250 l 375 250 l 375 500 l 250 500 l 250 625 l 375 625 l 375 875 l 500 875 l 500 1000 l 750 1000 l 750 875 l 625 875 l 625 625 l 500 625 l 500 500 l 625 500 l 625 250 l 750 250 l 750 125"},"}":{"x_min":125,"x_max":625,"ha":1000,"o":"m 375 125 l 125 125 l 125 250 l 250 250 l 250 500 l 375 500 l 375 625 l 250 625 l 250 875 l 125 875 l 125 1000 l 375 1000 l 375 875 l 500 875 l 500 625 l 625 625 l 625 500 l 500 500 l 500 250 l 375 250 l 375 125"},"[":{"x_min":250,"x_max":750,"ha":1000,"o":"m 750 125 l 250 125 l 250 1000 l 750 1000 l 750 875 l 500 875 l 500 250 l 750 250 l 750 125"},"]":{"x_min":125,"x_max":625,"ha":1000,"o":"m 625 125 l 125 125 l 125 250 l 375 250 l 375 875 l 125 875 l 125 1000 l 625 1000 l 625 125"},"(":{"x_min":250,"x_max":750,"ha":1000,"o":"m 750 125 l 500 125 l 500 250 l 375 250 l 375 375 l 250 375 l 250 750 l 375 750 l 375 875 l 500 875 l 500 1000 l 750 1000 l 750 875 l 625 875 l 625 750 l 500 750 l 500 375 l 625 375 l 625 250 l 750 250 l 750 125"},")":{"x_min":125,"x_max":625,"ha":1000,"o":"m 375 125 l 125 125 l 125 250 l 250 250 l 250 375 l 375 375 l 375 750 l 250 750 l 250 875 l 125 875 l 125 1000 l 375 1000 l 375 875 l 500 875 l 500 750 l 625 750 l 625 375 l 500 375 l 500 250 l 375 250 l 375 125"},"—":{"x_min":0,"x_max":1000,"ha":1000,"o":"m 1000 500 l 0 500 l 0 625 l 1000 625 l 1000 500"},"–":{"x_min":0,"x_max":875,"ha":1000,"o":"m 875 500 l 0 500 l 0 625 l 875 625 l 875 500"},"―":{"x_min":0,"x_max":875,"ha":1000,"o":"m 875 500 l 0 500 l 0 625 l 875 625 l 875 500"},"-":{"x_min":125,"x_max":875,"ha":1000,"o":"m 875 500 l 125 500 l 125 625 l 875 625 l 875 500"},"­":{"x_min":125,"x_max":875,"ha":1000,"o":"m 875 500 l 125 500 l 125 625 l 875 625 l 875 500"},"«":{"x_min":0,"x_max":875,"ha":1000,"o":"m 500 250 l 250 250 l 250 375 l 125 375 l 125 500 l 0 500 l 0 625 l 125 625 l 125 750 l 250 750 l 250 875 l 500 875 l 500 750 l 625 750 l 625 875 l 875 875 l 875 750 l 750 750 l 750 625 l 625 625 l 625 500 l 750 500 l 750 375 l 875 375 l 875 250 l 625 250 l 625 375 l 500 375 l 500 250 m 375 500 l 375 375 l 500 375 l 500 500 l 375 500 l 375 625 l 500 625 l 500 750 l 375 750 l 375 625 l 250 625 l 250 500 l 375 500"},"»":{"x_min":0,"x_max":875,"ha":1000,"o":"m 250 250 l 0 250 l 0 375 l 125 375 l 125 500 l 250 500 l 250 625 l 125 625 l 125 750 l 0 750 l 0 875 l 250 875 l 250 750 l 375 750 l 375 875 l 625 875 l 625 750 l 750 750 l 750 625 l 875 625 l 875 500 l 750 500 l 750 375 l 625 375 l 625 250 l 375 250 l 375 375 l 250 375 l 250 250 m 375 500 l 375 375 l 500 375 l 500 500 l 625 500 l 625 625 l 500 625 l 500 750 l 375 750 l 375 625 l 500 625 l 500 500 l 375 500"},"‹":{"x_min":250,"x_max":750,"ha":1000,"o":"m 750 250 l 500 250 l 500 375 l 375 375 l 375 500 l 250 500 l 250 625 l 375 625 l 375 750 l 500 750 l 500 875 l 750 875 l 750 750 l 625 750 l 625 625 l 500 625 l 500 500 l 625 500 l 625 375 l 750 375 l 750 250"},"›":{"x_min":125,"x_max":625,"ha":1000,"o":"m 375 250 l 125 250 l 125 375 l 250 375 l 250 500 l 375 500 l 375 625 l 250 625 l 250 750 l 125 750 l 125 875 l 375 875 l 375 750 l 500 750 l 500 625 l 625 625 l 625 500 l 500 500 l 500 375 l 375 375 l 375 250"},"„":{"x_min":0,"x_max":750,"ha":1000,"o":"m 125 500 l 375 500 l 375 250 l 250 250 l 250 125 l 0 125 l 0 250 l 125 250 l 125 500 m 500 500 l 750 500 l 750 250 l 625 250 l 625 125 l 375 125 l 375 250 l 500 250 l 500 500"},"“":{"x_min":125,"x_max":875,"ha":1000,"o":"m 250 1000 l 500 1000 l 500 875 l 375 875 l 375 625 l 125 625 l 125 875 l 250 875 l 250 1000 m 625 1000 l 875 1000 l 875 875 l 750 875 l 750 625 l 500 625 l 500 875 l 625 875 l 625 1000"},"”":{"x_min":125,"x_max":875,"ha":1000,"o":"m 250 1000 l 500 1000 l 500 750 l 375 750 l 375 625 l 125 625 l 125 750 l 250 750 l 250 1000 m 625 1000 l 875 1000 l 875 750 l 750 750 l 750 625 l 500 625 l 500 750 l 625 750 l 625 1000"},"‘":{"x_min":250,"x_max":625,"ha":1000,"o":"m 500 625 l 250 625 l 250 875 l 375 875 l 375 1000 l 625 1000 l 625 875 l 500 875 l 500 625"},"’":{"x_min":250,"x_max":625,"ha":1000,"o":"m 500 625 l 250 625 l 250 750 l 375 750 l 375 1000 l 625 1000 l 625 750 l 500 750 l 500 625"},"‚":{"x_min":250,"x_max":625,"ha":1000,"o":"m 500 125 l 250 125 l 250 250 l 375 250 l 375 500 l 625 500 l 625 250 l 500 250 l 500 125"},"·":{"x_min":250,"x_max":500,"ha":1000,"o":"m 500 375 l 250 375 l 250 625 l 500 625 l 500 375"},";":{"x_min":125,"x_max":500,"ha":1000,"o":"m 500 625 l 250 625 l 250 875 l 500 875 l 500 625 m 375 125 l 125 125 l 125 250 l 250 250 l 250 500 l 500 500 l 500 250 l 375 250 l 375 125"}," ":{"x_min":0,"x_max":0,"ha":1000,"o":""},"":{"x_min":125,"x_max":750,"ha":1000,"o":"m 375 125 l 125 125 l 125 375 l 375 375 l 375 125 m 750 125 l 500 125 l 500 375 l 750 375 l 750 125"},"¢":{"x_min":0,"x_max":875,"ha":1000,"o":"m 500 125 l 375 125 l 375 250 l 125 250 l 125 375 l 0 375 l 0 750 l 125 750 l 125 875 l 375 875 l 375 1000 l 500 1000 l 500 875 l 750 875 l 750 750 l 875 750 l 875 625 l 625 625 l 625 750 l 500 750 l 500 375 l 625 375 l 625 500 l 875 500 l 875 375 l 750 375 l 750 250 l 500 250 l 500 125 m 250 750 l 250 375 l 375 375 l 375 750 l 250 750"},"¤":{"x_min":125,"x_max":875,"ha":1000,"o":"m 125 875 l 250 875 l 250 750 l 125 750 l 125 875 m 625 875 l 625 750 l 375 750 l 375 875 l 625 875 m 750 875 l 875 875 l 875 750 l 750 750 l 750 875 m 250 750 l 375 750 l 375 375 l 250 375 l 250 750 m 625 375 l 625 750 l 750 750 l 750 375 l 625 375 m 125 250 l 125 375 l 250 375 l 250 250 l 125 250 m 375 250 l 375 375 l 625 375 l 625 250 l 375 250 m 875 250 l 750 250 l 750 375 l 875 375 l 875 250"},"$":{"x_min":0,"x_max":875,"ha":1000,"o":"m 500 125 l 375 125 l 375 250 l 0 250 l 0 375 l 375 375 l 375 500 l 125 500 l 125 625 l 0 625 l 0 750 l 125 750 l 125 875 l 375 875 l 375 1000 l 500 1000 l 500 875 l 750 875 l 750 750 l 500 750 l 500 625 l 750 625 l 750 500 l 875 500 l 875 375 l 750 375 l 750 250 l 500 250 l 500 125 m 250 750 l 250 625 l 375 625 l 375 750 l 250 750 m 500 500 l 500 375 l 625 375 l 625 500 l 500 500"},"₯":{"x_min":0,"x_max":875,"ha":1000,"o":"m 375 1000 l 375 875 l 125 875 l 125 1000 l 375 1000 m 125 875 l 125 250 l 375 250 l 375 125 l 0 125 l 0 875 l 125 875 m 625 625 l 625 250 l 750 250 l 750 125 l 625 125 l 625 0 l 500 0 l 500 250 l 375 250 l 375 875 l 500 875 l 500 625 l 625 625 m 750 750 l 750 625 l 625 625 l 625 750 l 750 750 m 750 625 l 875 625 l 875 250 l 750 250 l 750 625"},"€":{"x_min":0,"x_max":875,"ha":1000,"o":"m 750 875 l 875 875 l 875 750 l 625 750 l 625 875 l 500 875 l 500 750 l 625 750 l 625 625 l 375 625 l 375 500 l 625 500 l 625 375 l 500 375 l 500 250 l 625 250 l 625 375 l 875 375 l 875 250 l 750 250 l 750 125 l 375 125 l 375 250 l 250 250 l 250 375 l 0 375 l 0 500 l 125 500 l 125 625 l 0 625 l 0 750 l 250 750 l 250 875 l 375 875 l 375 1000 l 750 1000 l 750 875"},"ƒ":{"x_min":125,"x_max":875,"ha":1000,"o":"m 500 125 l 125 125 l 125 250 l 375 250 l 375 625 l 125 625 l 125 750 l 375 750 l 375 875 l 500 875 l 500 1000 l 875 1000 l 875 875 l 625 875 l 625 750 l 875 750 l 875 625 l 625 625 l 625 250 l 500 250 l 500 125"},"₴":{"x_min":0,"x_max":875,"ha":1000,"o":"m 750 875 l 750 750 l 875 750 l 875 625 l 0 625 l 0 750 l 500 750 l 500 875 l 125 875 l 125 1000 l 625 1000 l 625 875 l 750 875 m 0 500 l 875 500 l 875 375 l 375 375 l 375 250 l 750 250 l 750 125 l 250 125 l 250 250 l 125 250 l 125 375 l 0 375 l 0 500"},"₽":{"x_min":0,"x_max":1000,"ha":1000,"o":"m 875 875 l 1000 875 l 1000 625 l 875 625 l 875 500 l 375 500 l 375 375 l 625 375 l 625 250 l 375 250 l 375 125 l 125 125 l 125 250 l 0 250 l 0 375 l 125 375 l 125 500 l 0 500 l 0 625 l 125 625 l 125 1000 l 875 1000 l 875 875 m 750 625 l 750 875 l 375 875 l 375 625 l 750 625"},"£":{"x_min":0,"x_max":875,"ha":1000,"o":"m 875 125 l 0 125 l 0 250 l 125 250 l 125 500 l 0 500 l 0 625 l 125 625 l 125 875 l 250 875 l 250 1000 l 750 1000 l 750 875 l 875 875 l 875 750 l 625 750 l 625 875 l 375 875 l 375 625 l 750 625 l 750 500 l 375 500 l 375 250 l 875 250 l 875 125"},"₸":{"x_min":125,"x_max":875,"ha":1000,"o":"m 875 875 l 125 875 l 125 1000 l 875 1000 l 875 875 m 625 125 l 375 125 l 375 625 l 125 625 l 125 750 l 875 750 l 875 625 l 625 625 l 625 125"},"₮":{"x_min":125,"x_max":875,"ha":1000,"o":"m 125 1000 l 875 1000 l 875 875 l 625 875 l 625 750 l 750 750 l 750 625 l 625 625 l 625 500 l 750 500 l 750 375 l 625 375 l 625 125 l 375 125 l 375 250 l 250 250 l 250 375 l 375 375 l 375 500 l 250 500 l 250 625 l 375 625 l 375 875 l 125 875 l 125 1000"},"¥":{"x_min":125,"x_max":875,"ha":1000,"o":"m 625 125 l 375 125 l 375 250 l 125 250 l 125 375 l 375 375 l 375 500 l 125 500 l 125 625 l 250 625 l 250 750 l 125 750 l 125 1000 l 375 1000 l 375 750 l 625 750 l 625 1000 l 875 1000 l 875 750 l 750 750 l 750 625 l 875 625 l 875 500 l 625 500 l 625 375 l 875 375 l 875 250 l 625 250 l 625 125"},"∕":{"x_min":0,"x_max":875,"ha":1000,"o":"m 750 1000 l 875 1000 l 875 875 l 750 875 l 750 1000 m 625 750 l 625 875 l 750 875 l 750 750 l 625 750 m 500 625 l 500 750 l 625 750 l 625 625 l 500 625 m 375 500 l 375 625 l 500 625 l 500 500 l 375 500 m 250 375 l 250 500 l 375 500 l 375 375 l 250 375 m 125 250 l 125 375 l 250 375 l 250 250 l 125 250 m 0 125 l 0 250 l 125 250 l 125 125 l 0 125"},"+":{"x_min":125,"x_max":875,"ha":1000,"o":"m 625 250 l 375 250 l 375 500 l 125 500 l 125 625 l 375 625 l 375 875 l 625 875 l 625 625 l 875 625 l 875 500 l 625 500 l 625 250"},"×":{"x_min":125,"x_max":750,"ha":1000,"o":"m 125 875 l 250 875 l 250 750 l 125 750 l 125 875 m 625 875 l 750 875 l 750 750 l 625 750 l 625 875 m 250 750 l 375 750 l 375 625 l 250 625 l 250 750 m 500 625 l 500 750 l 625 750 l 625 625 l 500 625 m 375 500 l 375 625 l 500 625 l 500 500 l 375 500 m 250 375 l 250 500 l 375 500 l 375 375 l 250 375 m 625 375 l 500 375 l 500 500 l 625 500 l 625 375 m 125 250 l 125 375 l 250 375 l 250 250 l 125 250 m 750 250 l 625 250 l 625 375 l 750 375 l 750 250"},"÷":{"x_min":125,"x_max":875,"ha":1000,"o":"m 625 750 l 375 750 l 375 875 l 625 875 l 625 750 m 875 500 l 125 500 l 125 625 l 875 625 l 875 500 m 625 250 l 375 250 l 375 375 l 625 375 l 625 250"},"=":{"x_min":0,"x_max":875,"ha":1000,"o":"m 875 625 l 0 625 l 0 750 l 875 750 l 875 625 m 875 375 l 0 375 l 0 500 l 875 500 l 875 375"},"≠":{"x_min":0,"x_max":875,"ha":1000,"o":"m 750 1000 l 875 1000 l 875 875 l 750 875 l 750 1000 m 625 750 l 625 875 l 750 875 l 750 750 l 875 750 l 875 625 l 500 625 l 500 500 l 875 500 l 875 375 l 250 375 l 250 250 l 125 250 l 125 375 l 0 375 l 0 500 l 375 500 l 375 625 l 0 625 l 0 750 l 625 750 m 0 125 l 0 250 l 125 250 l 125 125 l 0 125"},">":{"x_min":125,"x_max":750,"ha":1000,"o":"m 375 125 l 125 125 l 125 250 l 250 250 l 250 375 l 375 375 l 375 500 l 500 500 l 500 625 l 375 625 l 375 750 l 250 750 l 250 875 l 125 875 l 125 1000 l 375 1000 l 375 875 l 500 875 l 500 750 l 625 750 l 625 625 l 750 625 l 750 500 l 625 500 l 625 375 l 500 375 l 500 250 l 375 250 l 375 125"},"<":{"x_min":125,"x_max":750,"ha":1000,"o":"m 750 125 l 500 125 l 500 250 l 375 250 l 375 375 l 250 375 l 250 500 l 125 500 l 125 625 l 250 625 l 250 750 l 375 750 l 375 875 l 500 875 l 500 1000 l 750 1000 l 750 875 l 625 875 l 625 750 l 500 750 l 500 625 l 375 625 l 375 500 l 500 500 l 500 375 l 625 375 l 625 250 l 750 250 l 750 125"},"≥":{"x_min":250,"x_max":750,"ha":1000,"o":"m 500 375 l 250 375 l 250 500 l 375 500 l 375 625 l 500 625 l 500 750 l 375 750 l 375 875 l 250 875 l 250 1000 l 500 1000 l 500 875 l 625 875 l 625 750 l 750 750 l 750 625 l 625 625 l 625 500 l 500 500 l 500 375 m 750 125 l 250 125 l 250 250 l 750 250 l 750 125"},"≤":{"x_min":250,"x_max":750,"ha":1000,"o":"m 750 375 l 500 375 l 500 500 l 375 500 l 375 625 l 250 625 l 250 750 l 375 750 l 375 875 l 500 875 l 500 1000 l 750 1000 l 750 875 l 625 875 l 625 750 l 500 750 l 500 625 l 625 625 l 625 500 l 750 500 l 750 375 m 750 125 l 250 125 l 250 250 l 750 250 l 750 125"},"±":{"x_min":125,"x_max":875,"ha":1000,"o":"m 625 375 l 375 375 l 375 625 l 125 625 l 125 750 l 375 750 l 375 1000 l 625 1000 l 625 750 l 875 750 l 875 625 l 625 625 l 625 375 m 875 125 l 125 125 l 125 250 l 875 250 l 875 125"},"≈":{"x_min":0,"x_max":750,"ha":1000,"o":"m 125 875 l 375 875 l 375 750 l 125 750 l 125 875 m 625 875 l 750 875 l 750 750 l 625 750 l 625 875 m 0 625 l 0 750 l 125 750 l 125 625 l 0 625 m 375 625 l 375 750 l 625 750 l 625 625 l 375 625 m 125 500 l 375 500 l 375 375 l 125 375 l 125 500 m 625 375 l 625 500 l 750 500 l 750 375 l 625 375 m 0 250 l 0 375 l 125 375 l 125 250 l 0 250 m 375 250 l 375 375 l 625 375 l 625 250 l 375 250"},"~":{"x_min":0,"x_max":875,"ha":1000,"o":"m 625 625 l 625 500 l 750 500 l 750 375 l 375 375 l 375 500 l 250 500 l 250 625 l 125 625 l 125 750 l 500 750 l 500 625 l 625 625 m 0 500 l 0 625 l 125 625 l 125 500 l 0 500 m 750 625 l 875 625 l 875 500 l 750 500 l 750 625"},"¬":{"x_min":125,"x_max":875,"ha":1000,"o":"m 875 375 l 625 375 l 625 625 l 125 625 l 125 750 l 875 750 l 875 375"},"∞":{"x_min":0,"x_max":875,"ha":1000,"o":"m 375 750 l 375 625 l 125 625 l 125 750 l 375 750 m 750 750 l 750 625 l 500 625 l 500 750 l 750 750 m 0 625 l 125 625 l 125 375 l 0 375 l 0 625 m 375 625 l 500 625 l 500 375 l 375 375 l 375 625 m 750 625 l 875 625 l 875 375 l 750 375 l 750 625 m 125 250 l 125 375 l 375 375 l 375 250 l 125 250 m 500 250 l 500 375 l 750 375 l 750 250 l 500 250"},"∫":{"x_min":125,"x_max":875,"ha":1000,"o":"m 500 1000 l 750 1000 l 750 875 l 625 875 l 625 125 l 500 125 l 500 0 l 250 0 l 250 125 l 375 125 l 375 875 l 500 875 l 500 1000 m 750 875 l 875 875 l 875 750 l 750 750 l 750 875 m 125 250 l 250 250 l 250 125 l 125 125 l 125 250"},"∆":{"x_min":0,"x_max":875,"ha":1000,"o":"m 875 125 l 0 125 l 0 750 l 125 750 l 125 875 l 250 875 l 250 1000 l 625 1000 l 625 875 l 750 875 l 750 750 l 875 750 l 875 125 m 250 750 l 250 250 l 625 250 l 625 750 l 500 750 l 500 875 l 375 875 l 375 750 l 250 750"},"∏":{"x_min":0,"x_max":875,"ha":1000,"o":"m 250 125 l 0 125 l 0 1000 l 875 1000 l 875 125 l 625 125 l 625 875 l 250 875 l 250 125"},"∑":{"x_min":0,"x_max":875,"ha":1000,"o":"m 875 125 l 0 125 l 0 250 l 125 250 l 125 375 l 250 375 l 250 500 l 375 500 l 375 625 l 250 625 l 250 750 l 125 750 l 125 875 l 0 875 l 0 1000 l 875 1000 l 875 750 l 625 750 l 625 875 l 375 875 l 375 750 l 500 750 l 500 625 l 750 625 l 750 500 l 500 500 l 500 375 l 375 375 l 375 250 l 625 250 l 625 375 l 875 375 l 875 125"},"√":{"x_min":0,"x_max":875,"ha":1000,"o":"m 625 125 l 250 125 l 250 250 l 125 250 l 125 375 l 0 375 l 0 500 l 250 500 l 250 375 l 375 375 l 375 1000 l 875 1000 l 875 875 l 625 875 l 625 125"},"µ":{"x_min":0,"x_max":875,"ha":1000,"o":"m 250 750 l 250 250 l 500 250 l 500 125 l 250 125 l 250 0 l 0 0 l 0 750 l 250 750 m 750 250 l 875 250 l 875 125 l 625 125 l 625 250 l 500 250 l 500 750 l 750 750 l 750 250"},"∂":{"x_min":0,"x_max":875,"ha":1000,"o":"m 750 125 l 125 125 l 125 250 l 0 250 l 0 500 l 125 500 l 125 625 l 625 625 l 625 750 l 500 750 l 500 875 l 250 875 l 250 750 l 0 750 l 0 875 l 125 875 l 125 1000 l 625 1000 l 625 875 l 750 875 l 750 750 l 875 750 l 875 250 l 750 250 l 750 125 m 250 500 l 250 250 l 625 250 l 625 500 l 250 500"},"%":{"x_min":0,"x_max":875,"ha":1000,"o":"m 250 750 l 250 875 l 125 875 l 125 1000 l 375 1000 l 375 750 l 250 750 m 750 1000 l 875 1000 l 875 875 l 750 875 l 750 1000 m 250 750 l 250 625 l 0 625 l 0 875 l 125 875 l 125 750 l 250 750 m 625 750 l 625 875 l 750 875 l 750 750 l 625 750 m 500 625 l 500 750 l 625 750 l 625 625 l 500 625 m 375 500 l 375 625 l 500 625 l 500 500 l 375 500 m 250 375 l 250 500 l 375 500 l 375 375 l 250 375 m 625 375 l 625 500 l 875 500 l 875 250 l 750 250 l 750 375 l 625 375 m 125 250 l 125 375 l 250 375 l 250 250 l 125 250 m 625 375 l 625 250 l 750 250 l 750 125 l 500 125 l 500 375 l 625 375 m 0 125 l 0 250 l 125 250 l 125 125 l 0 125"},"‰":{"x_min":0,"x_max":1000,"ha":1000,"o":"m 250 750 l 250 875 l 125 875 l 125 1000 l 375 1000 l 375 750 l 250 750 m 875 1000 l 875 875 l 750 875 l 750 1000 l 875 1000 m 250 750 l 250 625 l 0 625 l 0 875 l 125 875 l 125 750 l 250 750 m 750 875 l 750 750 l 625 750 l 625 875 l 750 875 m 625 750 l 625 625 l 500 625 l 500 750 l 625 750 m 500 625 l 500 500 l 375 500 l 375 625 l 500 625 m 250 500 l 375 500 l 375 375 l 250 375 l 250 500 m 500 500 l 1000 500 l 1000 250 l 875 250 l 875 375 l 750 375 l 750 250 l 875 250 l 875 125 l 375 125 l 375 375 l 500 375 l 500 250 l 625 250 l 625 375 l 500 375 l 500 500 m 125 250 l 125 375 l 250 375 l 250 250 l 125 250 m 0 125 l 0 250 l 125 250 l 125 125 l 0 125"},"↑":{"x_min":0,"x_max":875,"ha":1000,"o":"m 625 0 l 250 0 l 250 500 l 0 500 l 0 625 l 125 625 l 125 750 l 250 750 l 250 875 l 375 875 l 375 1000 l 500 1000 l 500 875 l 625 875 l 625 750 l 750 750 l 750 625 l 875 625 l 875 500 l 625 500 l 625 0"},"→":{"x_min":0,"x_max":1000,"ha":1000,"o":"m 625 125 l 500 125 l 500 375 l 0 375 l 0 750 l 500 750 l 500 1000 l 625 1000 l 625 875 l 750 875 l 750 750 l 875 750 l 875 625 l 1000 625 l 1000 500 l 875 500 l 875 375 l 750 375 l 750 250 l 625 250 l 625 125"},"↓":{"x_min":0,"x_max":875,"ha":1000,"o":"m 500 0 l 375 0 l 375 125 l 250 125 l 250 250 l 125 250 l 125 375 l 0 375 l 0 500 l 250 500 l 250 1000 l 625 1000 l 625 500 l 875 500 l 875 375 l 750 375 l 750 250 l 625 250 l 625 125 l 500 125 l 500 0"},"←":{"x_min":0,"x_max":1000,"ha":1000,"o":"m 500 125 l 375 125 l 375 250 l 250 250 l 250 375 l 125 375 l 125 500 l 0 500 l 0 625 l 125 625 l 125 750 l 250 750 l 250 875 l 375 875 l 375 1000 l 500 1000 l 500 750 l 1000 750 l 1000 375 l 500 375 l 500 125"},"◊":{"x_min":0,"x_max":875,"ha":1000,"o":"m 500 1000 l 500 875 l 375 875 l 375 1000 l 500 1000 m 375 875 l 375 750 l 250 750 l 250 875 l 375 875 m 625 750 l 500 750 l 500 875 l 625 875 l 625 750 m 250 750 l 250 625 l 125 625 l 125 750 l 250 750 m 750 625 l 625 625 l 625 750 l 750 750 l 750 625 m 0 625 l 125 625 l 125 500 l 0 500 l 0 625 m 750 625 l 875 625 l 875 500 l 750 500 l 750 625 m 125 500 l 250 500 l 250 375 l 125 375 l 125 500 m 625 375 l 625 500 l 750 500 l 750 375 l 625 375 m 250 375 l 375 375 l 375 250 l 250 250 l 250 375 m 500 250 l 500 375 l 625 375 l 625 250 l 500 250 m 375 125 l 375 250 l 500 250 l 500 125 l 375 125"},"▲":{"x_min":0,"x_max":875,"ha":1000,"o":"m 875 125 l 0 125 l 0 250 l 125 250 l 125 500 l 250 500 l 250 750 l 375 750 l 375 1000 l 500 1000 l 500 750 l 625 750 l 625 500 l 750 500 l 750 250 l 875 250 l 875 125"},"▶":{"x_min":0,"x_max":875,"ha":1000,"o":"m 125 125 l 0 125 l 0 1000 l 125 1000 l 125 875 l 375 875 l 375 750 l 625 750 l 625 625 l 875 625 l 875 500 l 625 500 l 625 375 l 375 375 l 375 250 l 125 250 l 125 125"},"▼":{"x_min":0,"x_max":875,"ha":1000,"o":"m 500 125 l 375 125 l 375 375 l 250 375 l 250 625 l 125 625 l 125 875 l 0 875 l 0 1000 l 875 1000 l 875 875 l 750 875 l 750 625 l 625 625 l 625 375 l 500 375 l 500 125"},"◀":{"x_min":0,"x_max":875,"ha":1000,"o":"m 875 125 l 750 125 l 750 250 l 500 250 l 500 375 l 250 375 l 250 500 l 0 500 l 0 625 l 250 625 l 250 750 l 500 750 l 500 875 l 750 875 l 750 1000 l 875 1000 l 875 125"},"★":{"x_min":0,"x_max":875,"ha":1000,"o":"m 250 125 l 125 125 l 125 375 l 250 375 l 250 500 l 125 500 l 125 625 l 0 625 l 0 750 l 375 750 l 375 1000 l 500 1000 l 500 750 l 875 750 l 875 625 l 750 625 l 750 500 l 625 500 l 625 375 l 750 375 l 750 125 l 625 125 l 625 250 l 500 250 l 500 375 l 375 375 l 375 250 l 250 250 l 250 125"},"☆":{"x_min":0,"x_max":875,"ha":1000,"o":"m 500 1000 l 500 750 l 375 750 l 375 1000 l 500 1000 m 375 625 l 250 625 l 250 500 l 125 500 l 125 625 l 0 625 l 0 750 l 375 750 l 375 625 m 500 750 l 875 750 l 875 625 l 750 625 l 750 500 l 625 500 l 625 625 l 500 625 l 500 750 m 500 375 l 500 500 l 625 500 l 625 375 l 750 375 l 750 125 l 625 125 l 625 250 l 250 250 l 250 125 l 125 125 l 125 375 l 250 375 l 250 500 l 375 500 l 375 375 l 500 375"},"♠":{"x_min":0,"x_max":875,"ha":1000,"o":"m 750 125 l 125 125 l 125 250 l 250 250 l 250 375 l 0 375 l 0 625 l 125 625 l 125 750 l 250 750 l 250 875 l 375 875 l 375 1000 l 500 1000 l 500 875 l 625 875 l 625 750 l 750 750 l 750 625 l 875 625 l 875 375 l 625 375 l 625 250 l 750 250 l 750 125"},"♣":{"x_min":125,"x_max":875,"ha":1000,"o":"m 625 1000 l 625 750 l 375 750 l 375 1000 l 625 1000 m 125 750 l 375 750 l 375 500 l 125 500 l 125 750 m 625 750 l 875 750 l 875 500 l 625 500 l 625 750 m 375 250 l 375 500 l 625 500 l 625 250 l 750 250 l 750 125 l 250 125 l 250 250 l 375 250"},"♥":{"x_min":0,"x_max":875,"ha":1000,"o":"m 500 125 l 375 125 l 375 250 l 250 250 l 250 375 l 125 375 l 125 500 l 0 500 l 0 875 l 125 875 l 125 1000 l 375 1000 l 375 875 l 500 875 l 500 1000 l 750 1000 l 750 875 l 875 875 l 875 500 l 750 500 l 750 375 l 625 375 l 625 250 l 500 250 l 500 125"},"♦":{"x_min":0,"x_max":875,"ha":1000,"o":"m 500 125 l 375 125 l 375 250 l 250 250 l 250 375 l 125 375 l 125 500 l 0 500 l 0 625 l 125 625 l 125 750 l 250 750 l 250 875 l 375 875 l 375 1000 l 500 1000 l 500 875 l 625 875 l 625 750 l 750 750 l 750 625 l 875 625 l 875 500 l 750 500 l 750 375 l 625 375 l 625 250 l 500 250 l 500 125"},"♪":{"x_min":0,"x_max":875,"ha":1000,"o":"m 500 875 l 625 875 l 625 750 l 500 750 l 500 250 l 375 250 l 375 125 l 125 125 l 125 250 l 0 250 l 0 375 l 125 375 l 125 500 l 375 500 l 375 1000 l 500 1000 l 500 875 m 625 750 l 750 750 l 750 625 l 625 625 l 625 750 m 750 625 l 875 625 l 875 500 l 750 500 l 750 625 m 625 375 l 625 500 l 750 500 l 750 375 l 625 375"},"":{"x_min":0,"x_max":1000,"ha":1000,"o":"m 625 1000 l 625 875 l 500 875 l 500 1000 l 625 1000 m 875 750 l 1000 750 l 1000 375 l 875 375 l 875 250 l 750 250 l 750 125 l 500 125 l 500 250 l 375 250 l 375 125 l 250 125 l 250 250 l 125 250 l 125 375 l 0 375 l 0 750 l 125 750 l 125 875 l 500 875 l 500 750 l 625 750 l 625 875 l 875 875 l 875 750 l 750 750 l 750 500 l 625 500 l 625 375 l 750 375 l 750 500 l 875 500 l 875 750"},"@":{"x_min":0,"x_max":875,"ha":1000,"o":"m 125 1000 l 750 1000 l 750 875 l 125 875 l 125 1000 m 0 250 l 0 875 l 125 875 l 125 250 l 0 250 m 750 875 l 875 875 l 875 375 l 250 375 l 250 750 l 625 750 l 625 500 l 750 500 l 750 875 m 500 500 l 500 625 l 375 625 l 375 500 l 500 500 m 750 125 l 125 125 l 125 250 l 750 250 l 750 125"},"&":{"x_min":0,"x_max":875,"ha":1000,"o":"m 625 500 l 625 375 l 750 375 l 750 250 l 875 250 l 875 125 l 125 125 l 125 250 l 0 250 l 0 500 l 125 500 l 125 625 l 0 625 l 0 875 l 125 875 l 125 1000 l 500 1000 l 500 875 l 625 875 l 625 625 l 500 625 l 500 500 l 625 500 m 250 875 l 250 625 l 375 625 l 375 875 l 250 875 m 500 250 l 500 375 l 375 375 l 375 500 l 250 500 l 250 250 l 500 250 m 750 500 l 875 500 l 875 375 l 750 375 l 750 500"},"¶":{"x_min":125,"x_max":875,"ha":1000,"o":"m 625 125 l 500 125 l 500 375 l 250 375 l 250 500 l 125 500 l 125 875 l 250 875 l 250 1000 l 875 1000 l 875 125 l 750 125 l 750 375 l 625 375 l 625 125 m 375 625 l 375 500 l 500 500 l 500 875 l 375 875 l 375 750 l 250 750 l 250 625 l 375 625 m 625 875 l 625 500 l 750 500 l 750 875 l 625 875"},"§":{"x_min":125,"x_max":875,"ha":1000,"o":"m 750 875 l 875 875 l 875 750 l 625 750 l 625 875 l 375 875 l 375 750 l 625 750 l 625 625 l 375 625 l 375 500 l 250 500 l 250 625 l 125 625 l 125 875 l 250 875 l 250 1000 l 750 1000 l 750 875 m 375 500 l 625 500 l 625 625 l 750 625 l 750 500 l 875 500 l 875 250 l 750 250 l 750 125 l 250 125 l 250 250 l 125 250 l 125 375 l 375 375 l 375 250 l 625 250 l 625 375 l 375 375 l 375 500"},"©":{"x_min":0,"x_max":1000,"ha":1000,"o":"m 750 1000 l 750 875 l 250 875 l 250 1000 l 750 1000 m 250 875 l 250 750 l 125 750 l 125 875 l 250 875 m 875 750 l 750 750 l 750 875 l 875 875 l 875 750 m 0 750 l 125 750 l 125 250 l 0 250 l 0 750 m 375 625 l 375 750 l 625 750 l 625 625 l 375 625 m 875 750 l 1000 750 l 1000 250 l 875 250 l 875 750 m 250 375 l 250 625 l 375 625 l 375 375 l 250 375 m 625 250 l 375 250 l 375 375 l 625 375 l 625 250 m 125 250 l 250 250 l 250 125 l 125 125 l 125 250 m 750 125 l 750 250 l 875 250 l 875 125 l 750 125 m 250 0 l 250 125 l 750 125 l 750 0 l 250 0"},"®":{"x_min":0,"x_max":1000,"ha":1000,"o":"m 750 1000 l 750 875 l 250 875 l 250 1000 l 750 1000 m 250 875 l 250 750 l 125 750 l 125 875 l 250 875 m 875 750 l 750 750 l 750 875 l 875 875 l 875 750 m 0 750 l 125 750 l 125 250 l 0 250 l 0 750 m 375 250 l 250 250 l 250 750 l 625 750 l 625 625 l 375 625 l 375 500 l 625 500 l 625 375 l 375 375 l 375 250 m 875 750 l 1000 750 l 1000 250 l 875 250 l 875 750 m 750 500 l 625 500 l 625 625 l 750 625 l 750 500 m 750 250 l 625 250 l 625 375 l 750 375 l 750 250 m 125 250 l 250 250 l 250 125 l 125 125 l 125 250 m 750 125 l 750 250 l 875 250 l 875 125 l 750 125 m 250 0 l 250 125 l 750 125 l 750 0 l 250 0"},"™":{"x_min":125,"x_max":875,"ha":1000,"o":"m 375 500 l 250 500 l 250 875 l 125 875 l 125 1000 l 875 1000 l 875 500 l 750 500 l 750 750 l 625 750 l 625 500 l 500 500 l 500 875 l 375 875 l 375 500"},"°":{"x_min":250,"x_max":625,"ha":1000,"o":"m 500 1000 l 500 875 l 375 875 l 375 1000 l 500 1000 m 250 875 l 375 875 l 375 750 l 250 750 l 250 875 m 500 875 l 625 875 l 625 750 l 500 750 l 500 875 m 375 625 l 375 750 l 500 750 l 500 625 l 375 625"},"|":{"x_min":375,"x_max":625,"ha":1000,"o":"m 625 125 l 375 125 l 375 1000 l 625 1000 l 625 125"},"¦":{"x_min":375,"x_max":625,"ha":1000,"o":"m 625 625 l 375 625 l 375 1000 l 625 1000 l 625 625 m 625 125 l 375 125 l 375 500 l 625 500 l 625 125"},"†":{"x_min":125,"x_max":875,"ha":1000,"o":"m 625 125 l 375 125 l 375 625 l 125 625 l 125 750 l 375 750 l 375 1000 l 625 1000 l 625 750 l 875 750 l 875 625 l 625 625 l 625 125"},"‡":{"x_min":125,"x_max":875,"ha":1000,"o":"m 625 125 l 375 125 l 375 375 l 125 375 l 125 500 l 375 500 l 375 625 l 125 625 l 125 750 l 375 750 l 375 1000 l 625 1000 l 625 750 l 875 750 l 875 625 l 625 625 l 625 500 l 875 500 l 875 375 l 625 375 l 625 125"},"№":{"x_min":0,"x_max":875,"ha":1000,"o":"m 0 1000 l 250 1000 l 250 875 l 125 875 l 125 125 l 0 125 l 0 1000 m 750 1000 l 750 875 l 625 875 l 625 1000 l 750 1000 m 250 125 l 250 875 l 375 875 l 375 125 l 250 125 m 500 875 l 625 875 l 625 500 l 500 500 l 500 875 m 750 875 l 875 875 l 875 500 l 750 500 l 750 875 m 625 375 l 625 500 l 750 500 l 750 375 l 625 375 m 500 125 l 500 250 l 875 250 l 875 125 l 500 125"},"^":{"x_min":125,"x_max":750,"ha":1000,"o":"m 375 750 l 125 750 l 125 875 l 250 875 l 250 1000 l 625 1000 l 625 875 l 750 875 l 750 750 l 500 750 l 500 875 l 375 875 l 375 750"},"˗":{"x_min":125,"x_max":750,"ha":1000,"o":"m 750 500 l 125 500 l 125 625 l 750 625 l 750 500"},"̀":{"x_min":-710,"x_max":-460,"ha":0,"o":"m -710 1000 l -585 1000 l -585 875 l -710 875 l -710 1000 m -585 875 l -460 875 l -460 750 l -585 750 l -585 875"},"́":{"x_min":-610,"x_max":-360,"ha":0,"o":"m -485 1000 l -360 1000 l -360 875 l -485 875 l -485 1000 m -610 750 l -610 875 l -485 875 l -485 750 l -610 750"},"̦":{"x_min":-750,"x_max":-375,"ha":0,"o":"m -500 -374 l -750 -374 l -750 -249 l -625 -249 l -625 1 l -375 1 l -375 -249 l -500 -249 l -500 -374"},"̵":{"x_min":-740,"x_max":-256,"ha":0,"o":"m -256 359 l -740 359 l -740 484 l -256 484 l -256 359"},"ʼ":{"x_min":0,"x_max":250,"ha":1000,"o":"m 125 625 l 0 625 l 0 1000 l 250 1000 l 250 750 l 125 750 l 125 625"},"ˉ":{"x_min":125,"x_max":750,"ha":1000,"o":"m 750 875 l 125 875 l 125 1000 l 750 1000 l 750 875"},"ˋ":{"x_min":375,"x_max":625,"ha":1000,"o":"m 375 1000 l 500 1000 l 500 875 l 375 875 l 375 1000 m 500 875 l 625 875 l 625 750 l 500 750 l 500 875"},"ˊ":{"x_min":375,"x_max":625,"ha":1000,"o":"m 500 1000 l 625 1000 l 625 875 l 500 875 l 500 1000 m 375 750 l 375 875 l 500 875 l 500 750 l 375 750"},"´":{"x_min":375,"x_max":625,"ha":1000,"o":"m 500 1000 l 625 1000 l 625 875 l 500 875 l 500 1000 m 375 750 l 375 875 l 500 875 l 500 750 l 375 750"},"˘":{"x_min":125,"x_max":750,"ha":1000,"o":"m 125 1000 l 250 1000 l 250 875 l 125 875 l 125 1000 m 625 1000 l 750 1000 l 750 875 l 625 875 l 625 1000 m 250 750 l 250 875 l 625 875 l 625 750 l 250 750"},"ˇ":{"x_min":125,"x_max":750,"ha":1000,"o":"m 625 750 l 250 750 l 250 875 l 125 875 l 125 1000 l 375 1000 l 375 875 l 500 875 l 500 1000 l 750 1000 l 750 875 l 625 875 l 625 750"},"¸":{"x_min":250,"x_max":625,"ha":1000,"o":"m 500 250 l 625 250 l 625 125 l 500 125 l 500 250 m 250 0 l 250 125 l 500 125 l 500 0 l 250 0"},"ˆ":{"x_min":125,"x_max":750,"ha":1000,"o":"m 375 750 l 125 750 l 125 875 l 250 875 l 250 1000 l 625 1000 l 625 875 l 750 875 l 750 750 l 500 750 l 500 875 l 375 875 l 375 750"},"¨":{"x_min":125,"x_max":750,"ha":1000,"o":"m 375 875 l 125 875 l 125 1000 l 375 1000 l 375 875 m 750 875 l 500 875 l 500 1000 l 750 1000 l 750 875"},"˙":{"x_min":375,"x_max":625,"ha":1000,"o":"m 625 875 l 375 875 l 375 1000 l 625 1000 l 625 875"},"`":{"x_min":375,"x_max":625,"ha":1000,"o":"m 375 1000 l 500 1000 l 500 875 l 375 875 l 375 1000 m 500 875 l 625 875 l 625 750 l 500 750 l 500 875"},"˝":{"x_min":125,"x_max":750,"ha":1000,"o":"m 250 875 l 250 1000 l 375 1000 l 375 875 l 250 875 m 625 1000 l 750 1000 l 750 875 l 625 875 l 625 1000 m 125 750 l 125 875 l 250 875 l 250 750 l 125 750 m 500 750 l 500 875 l 625 875 l 625 750 l 500 750"},"¯":{"x_min":125,"x_max":750,"ha":1000,"o":"m 750 875 l 125 875 l 125 1000 l 750 1000 l 750 875"},"˛":{"x_min":250,"x_max":625,"ha":1000,"o":"m 500 375 l 500 250 l 375 250 l 375 375 l 500 375 m 250 250 l 375 250 l 375 125 l 250 125 l 250 250 m 375 125 l 625 125 l 625 0 l 375 0 l 375 125"},"˚":{"x_min":125,"x_max":750,"ha":1000,"o":"m 625 625 l 250 625 l 250 750 l 125 750 l 125 875 l 250 875 l 250 1000 l 625 1000 l 625 875 l 750 875 l 750 750 l 625 750 l 625 625 m 375 875 l 375 750 l 500 750 l 500 875 l 375 875"},"˜":{"x_min":125,"x_max":750,"ha":1000,"o":"m 500 1000 l 500 875 l 625 875 l 625 750 l 375 750 l 375 875 l 250 875 l 250 1000 l 500 1000 m 625 1000 l 750 1000 l 750 875 l 625 875 l 625 1000 m 125 750 l 125 875 l 250 875 l 250 750 l 125 750"},"΄":{"x_min":375,"x_max":625,"ha":1000,"o":"m 500 1000 l 625 1000 l 625 875 l 500 875 l 500 1000 m 375 750 l 375 875 l 500 875 l 500 750 l 375 750"},"΅":{"x_min":125,"x_max":875,"ha":1000,"o":"m 125 875 l 125 1000 l 250 1000 l 250 875 l 125 875 m 500 875 l 500 1000 l 625 1000 l 625 875 l 500 875 m 750 1000 l 875 1000 l 875 875 l 750 875 l 750 1000 m 375 750 l 375 875 l 500 875 l 500 750 l 375 750"},"":{"x_min":125,"x_max":875,"ha":1000,"o":"m 875 125 l 125 125 l 125 1000 l 875 1000 l 875 125 m 375 625 l 375 500 l 750 500 l 750 875 l 250 875 l 250 750 l 625 750 l 625 625 l 375 625 m 375 375 l 375 250 l 500 250 l 500 375 l 375 375"},"":{"x_min":125,"x_max":750,"ha":1000,"o":"m 750 125 l 125 125 l 125 250 l 375 250 l 375 375 l 750 375 l 750 125"}}}
